<svg height="56" viewBox="0 0 56 56" width="56" xmlns="http://www.w3.org/2000/svg"><g fill="none" fill-rule="evenodd"><path d="m0 0h56v56h-56z" fill="#000" fill-rule="nonzero" opacity="0"/><path d="m1.86666667 28c0 9.3365409 4.98098502 17.9638604 13.06666653 22.6321309 8.0856816 4.6682705 18.0476521 4.6682705 26.1333336 0s13.0666666-13.29559 13.0666666-22.6321309c0-14.4330415-11.7002919-26.13333333-26.1333334-26.13333333s-26.13333333 11.70029183-26.13333333 26.13333333z" fill="#cf1322"/><path d="m17.5603045 17.5569705c1.0103951-1.009294 2.6472368-1.009294 3.6576318 0l6.7976743 6.7952705 6.7976743-6.7987217c1.0159163-.9804438 2.6300369-.9656596 3.6278296.0332283s1.0110525 2.6132704.0298022 3.6284183l-6.7942237 6.7987215 6.7976743 6.7987216c.9802928 1.0160729.965511 2.6304421-.0332231 3.6283886-.998734.9979464-2.6128678 1.0112083-3.6278593.0298068l-6.7976743-6.7952705-6.7976743 6.7987216c-1.0159163.9804439-2.6300369.9656597-3.6278296-.0332282s-1.0110525-2.6132704-.0298022-3.6284183l6.7942237-6.7987216-6.7976743-6.7987215c-1.0091385-1.0105508-1.0091385-2.6476447 0-3.6581954z" fill="#fff" fill-rule="nonzero"/></g></svg>