<svg height="56" viewBox="0 0 56 56" width="56" xmlns="http://www.w3.org/2000/svg"><g fill="none" fill-rule="evenodd"><path d="m0 0h56v56h-56z" fill="#000" opacity="0"/><g fill-rule="nonzero" transform="translate(0 11)"><path d="m34.20375 29.855-11.10375-5.3375c-1.09375-.525-1.56625-1.855-1.0325-2.9575l5.3375-11.10375c.525-1.09375 1.855-1.56625 2.9575-1.0325 1.505.72625 2.37125 1.1375 2.37125 1.1375l-.00875-9.555 1.46125-.00875.00875 10.24625s5.0225 2.1175 7.27125 3.50875c.32375.20125.8925.595 1.12875 1.26.18375.53375.175 1.14625-.0875 1.68875l-5.3375 11.10375c-.5425 1.11125-1.8725 1.58375-2.96625 1.05z" fill="#fff"/><g fill="#609926"><path d="m54.04875.595c-.35875-.35875-.84-.35-.84-.35s-10.255.5775-15.56625.7c-1.16375.02625-2.31875.0525-3.465.06125v10.255c-.48125-.2275-.97125-.46375-1.4525-.69125 0-3.185-.00875-9.555-.00875-9.555-2.5375.035-7.805-.1925-7.805-.1925s-12.3725-.62125-13.72-.74375c-.8575-.0525-1.96875-.18375-3.4125.13125-.76125.1575-2.93125.6475-4.7075 2.35375-3.9375 3.50875-2.93125 9.09125-2.80875 9.93125.14875 1.02375.60375 3.8675 2.77375 6.34375 4.0075 4.90875 12.635 4.795 12.635 4.795s1.05875 2.52875 2.6775 4.85625c2.1875 2.89625 4.43625 5.15375 6.62375 5.425 5.5125 0 16.52875-.00875 16.52875-.00875s1.05.00875 2.47625-.90125c1.225-.74375 2.31875-2.0475 2.31875-2.0475s1.12875-1.2075 2.70375-3.96375c.48125-.84875.88375-1.67125 1.23375-2.45 0 0 4.83-10.24625 4.83-20.22125-.09625-3.01875-.84-3.5525-1.015-3.7275zm-43.49625 17.85875c-2.26625-.74375-3.22875-1.63625-3.22875-1.63625s-1.67125-1.1725-2.51125-3.4825c-1.44375-3.8675-.1225-6.23-.1225-6.23s.735-1.96875 3.36875-2.625c1.2075-.32375 2.7125-.27125 2.7125-.27125s.62125 5.1975 1.37375 8.2425c.63 2.555 2.17 6.79875 2.17 6.79875s-2.28375-.27125-3.7625-.79625zm26.27625 9.415s-.53375 1.26875-1.715 1.3475c-.5075.035-.90125-.105-.90125-.105s-.02625-.00875-.46375-.18375l-9.87875-4.8125s-.95375-.49875-1.12-1.365c-.1925-.70875.23625-1.58375.23625-1.58375l4.75125-9.79125s.42-.84875 1.0675-1.1375c.0525-.02625.20125-.0875.39375-.13125.70875-.18375 1.575.245 1.575.245l9.68625 4.69875s1.1025.49875 1.33875 1.4175c.16625.6475-.04375 1.225-.1575 1.505-.55125 1.3475-4.8125 9.89625-4.8125 9.89625z"/><path d="m28.1575 20.74625c-.7175.00875-1.3475.5075-1.51375 1.2075s.175 1.42625.79625 1.75c.67375.35 1.53125.1575 1.98625-.4725.44625-.62125.37625-1.47875-.1575-2.02125l2.1-4.29625c.13125.00875.32375.0175.5425-.04375.35875-.07875.62125-.315.62125-.315.3675.1575.7525.3325 1.155.53375.42.21.81375.42875 1.1725.63875.07875.04375.1575.09625.245.16625.14.11375.2975.27125.41125.48125.16625.48125-.16625 1.30375-.16625 1.30375-.20125.665-1.61 3.5525-1.61 3.5525-.70875-.0175-1.33875.4375-1.54875 1.09375-.2275.70875.09625 1.51375.77875 1.86375s1.5225.14875 1.96875-.46375c.4375-.595.4025-1.42625-.09625-1.9775.16625-.32375.32375-.6475.49-.98875.4375-.91 1.18125-2.66 1.18125-2.66.07875-.14875.49875-.90125.23625-1.86375-.21875-.9975-1.1025-1.46125-1.1025-1.46125-1.0675-.69125-2.555-1.33-2.555-1.33s0-.35875-.09625-.62125c-.09625-.27125-.245-.44625-.34125-.55125.41125-.84875.8225-1.68875 1.23375-2.5375-.35875-.175-.70875-.35-1.0675-.53375-.42.8575-.84875 1.72375-1.26875 2.58125-.58625-.00875-1.12875.30625-1.40875.8225-.2975.55125-.23625 1.23375.16625 1.7325z"/></g></g></g></svg>