<svg height="56" viewBox="0 0 56 56" width="56" xmlns="http://www.w3.org/2000/svg"><g fill="none"><path d="m3.111111 3.111111h50.199623v50.199623h-50.199623z" fill="#000" opacity="0"/><path d="m28.2109228 53.3107345c-13.8048964 0-25.09981169-11.2949153-25.09981169-25.0998117s11.29491529-25.09981169 25.09981169-25.09981169 25.0998117 11.29491529 25.0998117 25.09981169-11.2949153 25.0998117-25.0998117 25.0998117zm12.7067796-27.9235405h-14.2755178c-.6274953 0-1.2549906.6274953-1.2549906 1.2549906v3.1374764c0 .6274953.6274953 1.2549906 1.2549906 1.2549906h8.6280602c.6274953 0 1.2549906.6274953 1.2549906 1.2549906v.6274953c0 2.0393597-1.725612 3.7649717-3.7649717 3.7649717h-11.7655368c-.6274953 0-1.2549906-.6274953-1.2549906-1.2549906v-11.9224105c0-2.0393597 1.7256121-3.7649718 3.7649718-3.7649718h17.4129943c.6274953 0 1.2549906-.6274952 1.2549906-1.2549905v-3.1374765c0-.6274953-.6274953-1.2549906-1.2549906-1.2549906h-17.4129943c-5.1768362 0-9.2555556 4.2355932-9.2555556 9.2555556v17.4129943c0 .6274953.6274953 1.2549906 1.2549906 1.2549906h18.3542373c4.5493409 0 8.3143126-3.7649717 8.3143126-8.3143126v-7.059322c0-.6274953-.6274953-1.2549906-1.2549906-1.2549906z" fill="#c71d23"/></g></svg>