<svg height="35" viewBox="0 0 56 35" width="56" xmlns="http://www.w3.org/2000/svg" xmlns:xlink="http://www.w3.org/1999/xlink"><linearGradient id="a" x1="0%" x2="100.000223%" y1="49.999918%" y2="49.999918%"><stop offset="0" stop-color="#6dffff"/><stop offset="1" stop-color="#0080ff"/></linearGradient><mask id="b" fill="#fff"><path d="m23.7890943 0v35h5.9769551v-3.4733783h-2.0737476v-31.5266217zm7.9352147 4.7160185v24.7013873l2.8103885 1.6457686v-27.99310137zm-16.6831629 2.53852374 1.5475756.55932075v23.21552571l2.822441-1.4343871v-20.58024406l1.5121376.53526394v-3.13216082l-5.8821542-3.34778763zm26.2120043.95024385.006476 2.58239201-1.5031432-2.01475751-1.3183984.65271776v16.17307255l1.0929989.5619741-.0053967-1.7948854 1.7269238 2.7444217 1.4011468.2142117v-19.64857354zm-30.9772345 19.11914691 3.1226739-1.5352134v-16.57832362l-3.1226739-1.53503652zm41.2702398-16.4286761-2.4867702 3.2513835v-2.1559144l-2.74383.6401587v11.6341192l2.74383.5614434v-2.2291461l2.6497486 3.3309832 4.2908659.2101433-5.726731-7.9063755 5.0026822-7.7369166zm-51.5461557 15.2415788 6.78896902-3.3826346v-6.3688626l-3.22395079-.3366184v2.2367523l1.2924945.0030071v2.1596291l-2.23564671 1.0004801v-6.863796l4.167103.7406312v-2.6207768l-6.78896902-2.2095115z" fill="#fff" fill-rule="evenodd"/></mask><path d="m23.7890943 0v35h5.9769551v-3.4733783h-2.0737476v-31.5266217zm7.9352147 4.7160185v24.7013873l2.8103885 1.6457686v-27.99310137zm-16.6831629 2.53852374 1.5475756.55932075v23.21552571l2.822441-1.4343871v-20.58024406l1.5121376.53526394v-3.13216082l-5.8821542-3.34778763zm26.2120043.95024385.006476 2.58239201-1.5031432-2.01475751-1.3183984.65271776v16.17307255l1.0929989.5619741-.0053967-1.7948854 1.7269238 2.7444217 1.4011468.2142117v-19.64857354zm-30.9772345 19.11914691 3.1226739-1.5352134v-16.57832362l-3.1226739-1.53503652zm41.2702398-16.4286761-2.4867702 3.2513835v-2.1559144l-2.74383.6401587v11.6341192l2.74383.5614434v-2.2291461l2.6497486 3.3309832 4.2908659.2101433-5.726731-7.9063755 5.0026822-7.7369166zm-51.5461557 15.2415788 6.78896902-3.3826346v-6.3688626l-3.22395079-.3366184v2.2367523l1.2924945.0030071v2.1596291l-2.23564671 1.0004801v-6.863796l4.167103.7406312v-2.6207768l-6.78896902-2.2095115z" fill="url(#a)" fill-rule="evenodd" mask="url(#b)"/></svg>