<svg height="56" viewBox="0 0 56 56" width="56" xmlns="http://www.w3.org/2000/svg"><g fill="none" fill-rule="evenodd"><path d="m0 0h56v56h-56z" fill="#000" opacity="0"/><g fill-rule="nonzero" transform="translate(3.111111 3.888889)"><path d="m48.9405778 19.1002-.0696889-.1782667-6.7671333-17.65714219c-.1375112-.34629778-.3809556-.64031333-.6953334-.84008089-.3168666-.19996978-.6878666-.29667555-1.0619778-.276766-.3741111.01990956-.7328222.15544978-1.0266666.38791511-.2910445.23338311-.5008889.55271845-.5996667.91245623l-4.5752 14.00208444h-18.5101778l-4.5751066-14.00208444c-.0987934-.35973778-.3086689-.67907312-.5996823-.91245623-.2925533-.23402711-.65104662-.37058777-1.02514218-.39052222-.37411111-.01993444-.74508.07776067-1.06084222.27937311-.31582444.19894934-.56021778.49314534-.69791556.84008089l-6.77488933 17.68031999-.06979155.1757778c-.97253583 2.5464444-1.09208089 5.3397555-.34066045 7.9599333.75142045 2.6201778 2.33319022 4.9256667 4.50743689 6.5695778l.02585333.0180444.05945334.0465112 10.32131333 7.7261333 5.10244 3.8644667 3.1019333 2.3495111c.3643111.2753333.8085778.4243555 1.2652889.4243555.4565556 0 .9008222-.1490222 1.2652889-.4243555l3.1017778-2.3495111 5.1050222-3.8644667 10.3808445-7.7726445.0283111-.0206888c2.1816666-1.6423556 3.7697333-3.9497112 4.5246444-6.5740889.7550667-2.6242223.6357556-5.4228223-.3397333-7.9734667z" fill="#e24329"/><path d="m48.9408889 19.1002-.0696889-.1782667c-3.3004222.6800889-6.4104444 2.0788445-9.1090222 4.0968667l-14.8603778 11.2622222c5.0662889 3.8308667 9.4761333 7.1600667 9.4761333 7.1600667l10.3806889-7.7726445.0284667-.0206888c2.1762222-1.6464 3.7580667-3.9557778 4.5073778-6.5796889.7493111-2.6240667.6251777-5.4204889-.3535778-7.9678667z" fill="#fc6d26"/><path d="m15.4127556 41.4410889 5.0947555 3.8644667 3.1017778 2.3495111c.3644667.2753333.8085778.4243555 1.2652889.4243555s.9009778-.1490222 1.2652889-.4243555l3.1017777-2.3495111 5.1051778-3.8644667s-4.4098444-3.3292-9.4761333-7.1600667z" fill="#fca326"/><path d="m10.0102022 23.0292222c-2.69790887-2.0188-5.80828887-3.4167778-9.10901753-4.0943778l-.06979156.1757778c-.97503358 2.5476889-1.09589355 5.3431778-.34438133 7.9655334.75151222 2.6223555 2.33470378 4.9295555 4.51115933 6.5742444l.02585333.0180444.05945334.0465112 10.32129782 7.7261333 9.4967133-7.1600667z" fill="#fc6d26"/></g></g></svg>