<svg height="30" viewBox="0 0 30 30" width="30" xmlns="http://www.w3.org/2000/svg" xmlns:xlink="http://www.w3.org/1999/xlink"><filter id="a"><feColorMatrix in="SourceGraphic" type="matrix" values="0 0 0 0 0.003922 0 0 0 0 0.172549 0 0 0 0 0.325490 0 0 0 1.000000 0"/></filter><g fill="none" fill-rule="evenodd" filter="url(#a)" transform="translate(-945 -288)"><g fill-rule="nonzero" transform="translate(945 288)"><path d="m0 0h30v30h-30z" fill="#000" opacity="0"/><g fill="#012c53"><path d="m15 1.8c.6627417 0 1.2.5372583 1.2 1.2v3.6c0 .6627417-.5372583 1.2-1.2 1.2s-1.2-.5372583-1.2-1.2v-3.6c0-.6627417.5372583-1.2 1.2-1.2z"/><path d="m21.6 3.5682c.5739218.33138046.7705552 1.06526363.4392 1.6392l-1.8 3.1182c-.2128339.37434094-.6099279.60594386-1.040542.60689344-.4306141.00094375-.8287225-.228911-1.0432002-.60231254-.2144778-.37340154-.2124391-.8330964.0053422-1.2045809l1.8-3.1182c.3313805-.57392179 1.0652636-.7705552 1.6392-.4392z" fill-opacity=".900022"/><path d="m26.4318 8.4c.3313552.57393637.1347218 1.30781954-.4392 1.6392l-3.1182 1.8c-.573432.3260283-1.3025045.1280899-1.6323294-.4431668-.3298249-.5712568-.1367269-1.3016263.4323294-1.6352332l3.1182-1.8c.5739364-.3313552 1.3078195-.13472179 1.6392.4392z" fill-opacity=".799306"/><path d="m28.2 15c0 .3182598-.1264282.6234845-.3514719.8485281-.2250436.2250437-.5302683.3514719-.8485281.3514719h-3.6c-.6627417 0-1.2-.5372583-1.2-1.2s.5372583-1.2 1.2-1.2h3.6c.6627417 0 1.2.5372583 1.2 1.2z" fill-opacity=".701868"/><path d="m26.4318 21.6c-.3313805.5739218-1.0652636.7705552-1.6392.4392l-3.1182-1.8c-.3743409-.2128339-.6059439-.6099279-.6068934-1.040542-.0009438-.4306141.228911-.8287225.6023125-1.0432002.3734015-.2144778.8330964-.2124391 1.2045809.0053422l3.1182 1.8c.5739218.3313805.7705552 1.0652636.4392 1.6392z" fill-opacity=".645323"/><path d="m21.6 26.4318c-.5739364.3313552-1.3078195.1347218-1.6392-.4392l-1.8-3.1182c-.3260283-.573432-.1280899-1.3025045.4431668-1.6323294.5712568-.3298249 1.3016263-.1367269 1.6352332.4323294l1.8 3.1182c.3313552.5739364.1347218 1.3078195-.4392 1.6392z" fill-opacity=".59446"/><path d="m15 28.2c-.3182598 0-.6234845-.1264282-.8485281-.3514719-.2250437-.2250436-.3514719-.5302683-.3514719-.8485281v-3.6c0-.6627417.5372583-1.2 1.2-1.2s1.2.5372583 1.2 1.2v3.6c0 .6627417-.5372583 1.2-1.2 1.2z" fill-opacity=".50377"/><path d="m8.4 26.4318c-.57392179-.3313805-.7705552-1.0652636-.4392-1.6392l1.8-3.1182c.2128339-.3743409.6099279-.6059439 1.040542-.6068934.4306141-.0009438.8287225.228911 1.0432002.6023125.2144778.3734015.2124391.8330964-.0053422 1.2045809l-1.8 3.1182c-.33138046.5739218-1.06526363.7705552-1.6392.4392z" fill-opacity=".454928"/><path d="m3.5682 21.6c-.3313552-.5739364-.13472179-1.3078195.4392-1.6392l3.1182-1.8c.57343196-.3260283 1.30250455-.1280899 1.63232944.4431668.32982489.5712568.1367269 1.3016263-.43232944 1.6352332l-3.1182 1.8c-.57393637.3313552-1.30781954.1347218-1.6392-.4392z" fill-opacity=".402781"/><path d="m1.8 15c0-.6627417.5372583-1.2 1.2-1.2h3.6c.6627417 0 1.2.5372583 1.2 1.2s-.5372583 1.2-1.2 1.2h-3.6c-.6627417 0-1.2-.5372583-1.2-1.2z" fill-opacity=".350388"/><path d="m3.5682 8.4c.33138046-.57392179 1.06526363-.7705552 1.6392-.4392l3.1182 1.8c.37434094.2128339.60594386.6099279.60689344 1.040542.00094375.4306141-.228911.8287225-.60231254 1.0432002-.37340154.2144778-.8330964.2124391-1.2045809-.0053422l-3.1182-1.8c-.57392179-.33138046-.7705552-1.06526363-.4392-1.6392z" fill-opacity=".251748"/><path d="m8.4 3.5682c.57393637-.3313552 1.30781954-.13472179 1.6392.4392l1.8 3.1182c.3260283.57343196.1280899 1.30250455-.4431668 1.63232944-.5712568.32982489-1.3016263.1367269-1.6352332-.43232944l-1.8-3.1182c-.3313552-.57393637-.13472179-1.30781954.4392-1.6392z" fill-opacity=".19564"/></g></g></g></svg>