<svg height="65" viewBox="0 0 232 65" width="232" xmlns="http://www.w3.org/2000/svg" xmlns:xlink="http://www.w3.org/1999/xlink"><mask id="a" fill="#fff"><path d="m0 .45967078h22.641358v63.39557612h-22.641358z" fill="#fff" fill-rule="evenodd"/></mask><g fill="none" fill-rule="evenodd"><g fill="#012c53"><path d="m11.1465021 6.24207819c0-3.20473251 2.6471193-5.78240741 5.781893-5.78240741 3.2047325 0 5.7129629 2.5776749 5.7129629 5.78240741 0 3.13477366-2.5082304 5.71244851-5.7129629 5.71244851-3.1347737 0-5.781893-2.57767485-5.781893-5.71244851m11.4948559 14.21193411v26.1244856c0 9.4742799-7.5236625 17.2073046-16.99845677 17.276749-3.13477366-.0694444-5.64300411-2.5771605-5.64300411-5.7129629 0-3.2042182 2.5776749-5.7813787 5.781893-5.7813787h-.27880658c3.13528806 0 5.64351856-2.5082304 5.64351856-5.7824074v-26.1244856c0-3.2052469 2.6471193-5.7824074 5.781893-5.7824074 3.2047325 0 5.7129629 2.5771605 5.7129629 5.7824074" mask="url(#a)" transform="translate(0 1)"/><path d="m29.6082305 7.5909465c0-3.2042181 2.5082304-5.78240741 5.7124485-5.78240741 3.2047325 0 5.712963 2.57818931 5.712963 5.78240741 0 3.1347737-2.5082305 5.7124486-5.712963 5.7124486-3.2042181 0-5.7124485-2.5776749-5.7124485-5.7124486"/><path d="m41.033642 21.5230453v23.3384773c0 3.1342593-2.5082305 5.7124486-5.7124486 5.7124486-3.2047325 0-5.7129629-2.5781893-5.7129629-5.7124486v-23.3384773c0-3.1347737 2.5082304-5.7124486 5.7129629-5.7124486 3.2042181 0 5.7124486 2.5776749 5.7124486 5.7124486"/><path d="m65.4863683 38.9286008c-2.9403292 0-5.4053498-2.1723251-5.7932099-4.9511317-.0298354-.2474279-.0591563-.4953703-.0591563-.7618312s.0293209-.5144033.0591563-.7618313c.3878601-2.779321 2.8528807-4.9511317 5.7932099-4.9511317 3.1347737 0 5.7119342 2.5776749 5.7119342 5.7124486h.0699588v.0010288h-.0699588c0 3.1342592-2.5771605 5.7124485-5.7119342 5.7124485zm17.4146091-5.7129629.0010288-.0005144h-.002572c-.0056585 0-.0663581-.0020577-.0663581-.0689301v-11.5643004-.0010288c0-3.2042181-2.6476337-5.7813786-5.7829218-5.7813786-1.2962963 0-2.4223251.3806584-3.3513374 1.0699588-.2788066.1975309-.5401235.4176955-.7788066.6604939-2.7885803-1.6610083-7.433642-1.7304527-7.433642-1.7304527-3.1522634 0-6.1023662.8307613-8.651749 2.2777778-.1358024.0498971-.2716049.0997942-.4048353.1599794l-1.1846708.7664609c-3.9377572 2.8127572-6.6352881 7.3106996-7.149177 12.3822016-.0046296.0514404-.0087448.1033951-.0138889.1548354-.0221193.2386832-.0426954.4768519-.0545267.718107-.0102881.1872428-.0133745.3765432-.0180041.5653293-.0015432.1075102-.0092593.2139917-.0092593.3220164v.0689301.0010288.06893c0 .1080247.0077161.2139918.0092593.3220165.0046296.1882716.007716.3780864.0180041.5653292.0118313.2407407.0324074.4794239.0545267.718107.0051441.0514403.0092593.103395.0138889.154321.5138889 5.0720164 3.2114198 9.5694444 7.149177 12.3822016l1.1846708.7664609c.1332304.0601852.2690329.1100823.4048353.1604938 2.5493828 1.4470165 5.4994856 2.2777778 8.651749 2.2777778 0 0 4.6450617-.0694444 7.433642-1.7309671.2386831.2433128.5.462963.7788066.6610083.9290123.6893004 2.0550411 1.0699588 3.3513374 1.0699588 3.1352881 0 5.7829218-2.5771605 5.7829218-5.781893v-.0005144-11.5643004c0-.0668724.0606996-.06893.0663581-.06893h.002572z"/><path d="m124.703549 33.1571502v11.6342593c0 3.2047325-2.578189 5.7824074-5.782407 5.7824074-3.204733 0-5.781893-2.5776749-5.781893-5.7824074v-11.6342593c0-3.2042181-2.648148-5.7813786-5.852366-5.7813786-3.204733 0-5.782408 2.5771605-5.782408 5.7813786v11.6342593c0 3.2047325-2.5771602 5.7824074-5.7818927 5.7824074s-5.8518518-2.5776749-5.8518518-5.7824074v-11.6342593c0-9.6136831 7.8024691-17.4156379 17.4161525-17.4156379 9.614197 0 17.416666 7.8019548 17.416666 17.4156379"/></g><path d="m189.841358 33.2272119v11.6342593c0 3.1342593-2.647119 5.7124486-5.851852 5.7124486-3.204732 0-5.782407-2.5781893-5.782407-5.7124486v-11.6342593c0-3.2047325-2.647634-5.8513374-5.851852-5.8513374-3.204733 0-5.851338 2.6466049-5.851338 5.8513374v11.6342593c0 3.1342593-2.578189 5.7124486-5.782407 5.7124486-3.205247 0-5.851852-2.5781893-5.851852-5.7124486v-11.6342593c0-3.2047325-2.50823-5.8513374-5.712963-5.8513374-3.204218 0-5.851852 2.6466049-5.851852 5.8513374v11.6342593c0 3.1342593-2.577675 5.7124486-5.781893 5.7124486-3.204732 0-5.852366-2.5781893-5.852366-5.7124486v-11.6342593c0-9.6836419 7.872428-17.4855967 17.486111-17.4855967 4.458848 0 8.499486 1.6712963 11.564815 4.4583334 3.065329-2.7870371 7.175412-4.4583334 11.633745-4.4583334 9.613683 0 17.486111 7.8719136 17.486111 17.4855967" fill="#096dd9"/><path d="m196.810442 33.1571502v-11.6342593c0-3.2042181 2.577675-5.7813786 5.782408-5.7813786 3.204732 0 5.781893 2.5771605 5.781893 5.7813786v11.6342593c0 3.2047325 2.647634 5.7824074 5.851852 5.7824074 3.204732 0 5.782921-2.5776749 5.782921-5.7824074v-11.6342593c0-3.2042181 2.577161-5.7813786 5.781893-5.7813786 3.204219 0 5.852367 2.5771605 5.852367 5.7813786v11.6342593c0 9.6147119-7.802984 17.4166667-17.417181 17.4166667-9.613169 0-17.416153-7.8019548-17.416153-17.4166667" fill="#096dd9"/></g></svg>