<svg height="36" viewBox="0 0 140 36" width="140" xmlns="http://www.w3.org/2000/svg" xmlns:xlink="http://www.w3.org/1999/xlink"><mask id="a" fill="#fff"><path d="m.42093333.26677778h9.05628889v9.05706666h-9.05628889z" fill="#fff" fill-rule="evenodd"/></mask><g fill="none" fill-rule="evenodd"><g fill="#fff"><path d="m6.10711111 3.94574444c0-1.75544444 1.44977778-3.16788888 3.16788889-3.16788888 1.7554444 0 3.1297778 1.41244444 3.1297778 3.16788888 0 1.71733334-1.3743334 3.12977778-3.1297778 3.12977778-1.71811111 0-3.16788889-1.41244444-3.16788889-3.12977778m6.29766669 7.78633336v14.3134444c0 5.1908889-4.12222224 9.4274445-9.31311113 9.4655556-1.71733334-.0381111-3.09166667-1.4116667-3.09166667-3.1297778 0-1.7554444 1.41244444-3.1678889 3.16788889-3.1678889h-.15244445c1.71733334 0 3.09166667-1.3743333 3.09166667-3.1678889v-14.3134444c0-1.75622224 1.44977778-3.16788891 3.16788889-3.16788891 1.7554444 0 3.1297778 1.41166667 3.1297778 3.16788891"/><path d="m22.4814333 11.7702667v12.7866666c0 1.7173334-1.3743333 3.1297778-3.1297777 3.1297778-1.7554445 0-3.1297778-1.4124444-3.1297778-3.1297778v-12.7866666c0-1.7173334 1.3743333-3.12977781 3.1297778-3.12977781 1.7554444 0 3.1297777 1.41244441 3.1297777 3.12977781m-6.2595555-7.82444448c0-1.75544444 1.3743333-3.16788889 3.1297778-3.16788889 1.7554444 0 3.1297777 1.41244445 3.1297777 3.16788889 0 1.71733334-1.3743333 3.12977778-3.1297777 3.12977778-1.7554445 0-3.1297778-1.41244444-3.1297778-3.12977778"/><path d="m35.8787333 21.3063667c-1.6107777 0-2.9617777-1.19-3.1741111-2.7128889-.0163333-.1353334-.0318889-.2706667-.0318889-.4168889s.0155556-.2823333.0318889-.4176667c.2123334-1.5228889 1.5633334-2.7128889 3.1741111-2.7128889 1.7173334 0 3.1297778 1.4124445 3.1297778 3.1305556h.0381111-.0381111c0 1.7173333-1.4124444 3.1297778-3.1297778 3.1297778zm9.541-3.1297778h.0007778-.0015555c-.0031112-.0007778-.0365556-.0015556-.0365556-.0381111v-6.3357778-.0007778c0-1.7554444-1.4505556-3.16711109-3.1678889-3.16711109-.7101111 0-1.3276667.20844445-1.8363333.58566667-.1524445.10888889-.2955556.22866666-.4262222.36244444-1.5283334-.91077778-4.0732223-.94811111-4.0732223-.94811111-1.7274444 0-3.3436666.45422222-4.7397777 1.24755556-.0746667.02722222-.1493334.05444444-.2224445.08788889l-.6486667.42000004c-2.1575555 1.5407777-3.6353333 4.0047777-3.9168888 6.7837777-.0023334.028-.0046667.0567778-.0077778.0847778-.0116667.1306667-.0233334.2613333-.0295556.3935556-.0062222.1026666-.0077778.2061111-.0101111.3095555-.0007778.0591111-.0046667.1174445-.0046667.1765556v.0381111.0373333c0 .0598889.0038889.1182222.0046667.1765556.0023333.1034444.0038889.2076666.0101111.3103333.0062222.1314445.0178889.2621111.0295556.3935556.0031111.028.0054444.056.0077778.0847777.2815555 2.7782223 1.7593333 5.2422223 3.9168888 6.7837778l.6486667.4192222c.0731111.0334445.1477778.0606667.2224445.0886667 1.3961111.7925556 3.0123333 1.2475556 4.7397777 1.2475556 0 0 2.5448889-.0381111 4.0732223-.9481111.1306666.133.2737777.2535555.4262222.3616666.5086666.378 1.1262222.5864445 1.8363333.5864445 1.7173333 0 3.1678889-1.4116667 3.1678889-3.1678889v-6.3365556c0-.0357778.0334444-.0373333.0365556-.0373333h.0015555z"/><path d="m68.3228778 18.1443889v6.3738889c0 1.7562222-1.4124445 3.1686666-3.1678889 3.1686666-1.7562222 0-3.1678889-1.4124444-3.1678889-3.1686666v-6.3738889c0-1.7554445-1.4505556-3.1678889-3.2067778-3.1678889-1.7554444 0-3.1678889 1.4124444-3.1678889 3.1678889v6.3738889c0 1.7562222-1.4116666 3.1686666-3.1678889 3.1686666-1.7554444 0-3.206-1.4124444-3.206-3.1686666v-6.3738889c0-5.2671111 4.2746667-9.54177779 9.5417778-9.54177779s9.5425556 4.27466669 9.5425556 9.54177779"/></g><g fill="#096dd9"><path d="m104.010667 18.1827333v6.3738889c0 1.7173334-1.450556 3.1297778-3.206 3.1297778-1.7554448 0-3.1678892-1.4124444-3.1678892-3.1297778v-6.3738889c0-1.7554444-1.4505556-3.206-3.206-3.206-1.7562222 0-3.206 1.4505556-3.206 3.206v6.3738889c0 1.7173334-1.4124445 3.1297778-3.1686667 3.1297778-1.7554444 0-3.206-1.4124444-3.206-3.1297778v-6.3738889c0-1.7554444-1.3735555-3.206-3.1297778-3.206-1.7554444 0-3.206 1.4505556-3.206 3.206v6.3738889c0 1.7173334-1.4124444 3.1297778-3.1678889 3.1297778-1.7554444 0-3.2067777-1.4124444-3.2067777-3.1297778v-6.3738889c0-5.3052222 4.3135555-9.57988886 9.5806666-9.57988886 2.443 0 4.6565556.91544445 6.3357778 2.44222226 1.6792222-1.52677781 3.9316667-2.44222226 6.3746667-2.44222226 5.2671111 0 9.5798892 4.31277776 9.5798892 9.57988886"/><path d="m107.829244 18.1443889v-6.3738889c0-1.7562222 1.411667-3.16788889 3.167889-3.16788889 1.755445 0 3.167889 1.41166669 3.167889 3.16788889v6.3738889c0 1.7554444 1.450556 3.1678889 3.206 3.1678889 1.755445 0 3.167889-1.4124445 3.167889-3.1678889v-6.3738889c0-1.7562222 1.412445-3.16788889 3.168667-3.16788889 1.755444 0 3.206 1.41166669 3.206 3.16788889v6.3738889c0 5.2671111-4.274667 9.5425555-9.542556 9.5425555-5.267111 0-9.541778-4.2754444-9.541778-9.5425555"/><path d="m4.94915556.26662222c-2.50055556 0-4.52822223 2.02766667-4.52822223 4.52822222 0 2.50133334 2.02766667 4.529 4.52822223 4.529 2.50055555 0 4.52822222-2.02766666 4.52822222-4.529 0-2.50055555-2.02766667-4.52822222-4.52822222-4.52822222zm0 8.41011111c-2.14355556 0-3.88111112-1.73755555-3.88111112-3.88188889 0-2.14355555 1.73755556-3.88111111 3.88111112-3.88111111 2.14355555 0 3.88188888 1.73755556 3.88188888 3.88111111 0 2.14433334-1.73833333 3.88188889-3.88188888 3.88188889zm1.93044444-1.80988889-1.12155556-1.50111111.01166667-.00155555c.65022222-.21 1.12-.81977778 1.12-1.53922222 0-.89366667-.72411111-1.617-1.617-1.617h-1.29422222c-.17811111 0-.32355556.14466666-.32355556.32277777v4.52822223c0 .17888888.14544445.32355555.32355556.32355555.17888889 0 .32355555-.14466667.32355555-.32355555v-1.617h.69611112l1.36422222 1.81377777c.10733333.14233334.30955555.17188889.45266666.06455556.14311112-.10733333.17188889-.31033333.06455556-.45344445zm-2.57755556-2.072v-1.94055555h.97066667c.53588889 0 .97066667.43477778.97066667.97066667 0 .53588888-.43477778.96988888-.97066667.96988888z" mask="url(#a)" transform="translate(129.888889 .511078)"/></g></g></svg>