<svg height="30" viewBox="0 0 118 30" width="118" xmlns="http://www.w3.org/2000/svg" xmlns:xlink="http://www.w3.org/1999/xlink"><mask id="a" fill="#fff"><path d="m0 .4561069h10.3588711v29.3484347h-10.3588711z" fill="#fff" fill-rule="evenodd"/></mask><mask id="b" fill="#fff"><path d="m.20731572.45386773h7.79226379v7.61606093h-7.79226379z" fill="#fff" fill-rule="evenodd"/></mask><g fill="none" fill-rule="evenodd" transform="translate(.236661)"><g fill="#042749"><path d="m5.09967545 3.13295239c0-1.48372125 1.21089908-2.67684549 2.64547621-2.67684549 1.46633388 0 2.61371944 1.19312424 2.61371944 2.67684549 0 1.45112222-1.14738556 2.64471216-2.61371944 2.64471216-1.43457713 0-2.64547621-1.19358994-2.64547621-2.64471216m5.25919565 6.57941423v12.09423748c0 4.3864314-3.44215667 7.9662699-7.77718456 7.9979375-1.43411689-.0316676-2.58196269-1.1931243-2.58196269-2.6442465 0-1.4837212 1.17960256-2.6768455 2.64547621-2.6768455h-.12702704c1.43411688 0 2.58150243-1.1609909 2.58150243-2.6768455v-12.09423748c0-1.48372124 1.21089908-2.67684548 2.64547621-2.67684548 1.46633388 0 2.61371944 1.19312424 2.61371944 2.67684548" mask="url(#a)"/><path d="m18.9328744 9.75440114v10.79574026c0 1.4499796-1.1428992 2.6426297-2.6034995 2.6426297-1.4601419 0-2.603041-1.1926501-2.603041-2.6426297v-10.79574026c0-1.4499796 1.1428991-2.64262969 2.603041-2.64262969 1.4606003 0 2.6034995 1.19265009 2.6034995 2.64262969m-5.2065405-6.60634157c0-1.48208761 1.1428991-2.67473771 2.603041-2.67473771 1.4606003 0 2.6034995 1.1926501 2.6034995 2.67473771 0 1.4499796-1.1428992 2.6426297-2.6034995 2.6426297-1.4601419 0-2.603041-1.1926501-2.603041-2.6426297"/><path d="m30.0724112 17.6268275c-1.3956822 0-2.565515-1.0333882-2.7493459-2.3547855-.0143244-.1176914-.0281714-.2358612-.0281714-.3621642 0-.1267815.013847-.2444729.0281714-.3626427.1838309-1.3213973 1.3536637-2.3547855 2.7493459-2.3547855 1.4878363 0 2.7116247 1.2261916 2.7116247 2.7169497h.0329463v.0004785h-.0329463c0 1.4907581-1.2237884 2.7169497-2.7116247 2.7169497zm8.2661819-2.7169497.0004775-.0004785h-.000955c-.0028649 0-.0315139-.0009568-.0315139-.033011v-5.49992151c0-1.52424756-1.2567346-2.74996077-2.7450485-2.74996077-.6149978 0-1.1497785.18132136-1.5909726.50903937-.1322627.09424883-.2564082.19854449-.3695717.31432224-1.3235822-.79035059-3.5285977-.82336161-3.5285977-.82336161-1.4959536 0-2.8964106.3951753-4.1068294 1.08314391-.0639827.02439945-.1284429.04784205-.1919481.07654727l-.5619972.36455639c-1.8693451 1.33766359-3.1494764 3.47668141-3.3934701 5.88887741-.0023874.0243994-.0042974.0487988-.0066848.0736767-.0105046.1133857-.0200543.2267713-.0257841.3415922-.0052523.0889862-.0066847.1789293-.0085946.2688723-.000955.051191-.0042974.1014251-.0042974.1526161v.033011.0004785.033011c0 .051191.0033424.1019035.0042974.1526161.0019099.089943.0033423.1798861.0085946.2688723.0057298.1148209.0152795.228685.0257841.3420706.0023874.0243995.0042974.0487989.0066848.0731983.2439937 2.412196 1.524125 4.5512138 3.3934701 5.8888774l.5619972.3645564c.0635052.0287052.1279654.0521478.1919481.0765473 1.2104188.6879686 2.6108758 1.0831439 4.1068294 1.0831439 0 0 2.2050155-.033011 3.5285977-.8233616.1131635.1157777.237309.2205518.3695717.3143222.4411941.327718.9759748.5090394 1.5909726.5090394 1.4883139 0 2.7450485-1.2257132 2.7450485-2.7499608v-5.4999215c0-.0320542.028649-.033011.0315139-.033011h.000955z"/><path d="m57.2719449 14.9096386v5.5330923c0 1.5242916-1.2261916 2.7500402-2.7504392 2.7500402-1.5237691 0-2.7499607-1.2257486-2.7499607-2.7500402v-5.5330923c0-1.5242916-1.2587243-2.7500402-2.7829718-2.7500402-1.5242476 0-2.7499608 1.2257486-2.7499608 2.7500402v5.5330923c0 1.5242916-1.2257132 2.7500402-2.7499608 2.7500402-1.5242475 0-2.7829717-1.2257486-2.7829717-2.7500402v-5.5330923c0-4.5723964 3.710629-8.28313258 8.2828933-8.28313258s8.2833717 3.71073618 8.2833717 8.28313258"/></g><path d="m87.8141136 14.7447159v5.5330924c0 1.4912796-1.2275003 2.7170282-2.7139374 2.7170282-1.486437 0-2.6817452-1.2257486-2.6817452-2.7170282v-5.5330924c0-1.5242916-1.2279668-2.7830521-2.7144039-2.7830521-1.4859705 0-2.7139373 1.2587605-2.7139373 2.7830521v5.5330924c0 1.4912796-1.1957747 2.7170282-2.6817453 2.7170282-1.486437 0-2.7139373-1.2257486-2.7139373-2.7170282v-5.5330924c0-1.5242916-1.163116-2.7830521-2.6495531-2.7830521-1.486437 0-2.7144039 1.2587605-2.7144039 2.7830521v5.5330924c0 1.4912796-1.1953081 2.7170282-2.6812787 2.7170282-1.486437 0-2.7144039-1.2257486-2.7144039-2.7170282v-5.5330924c0-4.6054083 3.6512419-8.31614447 8.1100865-8.31614447 2.0677618 0 3.9419042.79515776 5.3634904 2.12042069 1.4215863-1.32526293 3.3279208-2.12042069 5.3956826-2.12042069 4.4588447 0 8.1100865 3.74374817 8.1100865 8.31614447" fill="#096dd9"/><path d="m90.404475 14.9096386v-5.53309239c0-1.52429158 1.2257132-2.75004019 2.7499608-2.75004019s2.7499608 1.22574861 2.7499608 2.75004019v5.53309239c0 1.5242915 1.2587242 2.7500401 2.7829718 2.7500401s2.7504396-1.2257486 2.7504396-2.7500401v-5.53309239c0-1.52429158 1.225713-2.75004019 2.74996-2.75004019 1.523769 0 2.782972 1.22574861 2.782972 2.75004019v5.53309239c0 4.5728747-3.710629 8.2831325-8.2833716 8.2831325-4.5722643 0-8.2828934-3.7102578-8.2828934-8.2831325" fill="#096dd9"/><path d="m4.10325794.45386773c-2.15187266 0-3.89594222 1.70461097-3.89594222 3.80779874 0 2.10318776 1.74406956 3.80826219 3.89594222 3.80826219s3.89641641-1.70507443 3.89641641-3.80826219c0-2.10318777-1.74454375-3.80779874-3.89641641-3.80779874zm0 7.07195726c-1.84412358 0-3.33924356-1.46129374-3.33924356-3.26415852 0-1.80240133 1.49511998-3.26415853 3.33924356-3.26415853 1.84459776 0 3.33971775 1.4617572 3.33971775 3.26415853 0 1.80286478-1.49511999 3.26415852-3.33971775 3.26415852zm1.66108637-1.52154372-.96497595-1.26293227.00995798-.00092692c.5590696-.17657879.96355338-.68916708.96355338-1.29444765 0-.7512709-.62261102-1.36025916-1.39127245-1.36025916h-1.11292313c-.15363745 0-.27834933.12189034-.27834933.27205183v3.80779873c0 .15016149.12471188.27205183.27834933.27205183.15316326 0 .27787514-.12189034.27787514-.27205183v-1.3597957h.59937573l1.17314521 1.52478795c.09246698.1200365.26649459.14459996.3897839.05468845.12281512-.09037497.14794717-.26092876.05548019-.38096526zm-2.21778503-1.7426148v-1.63184754h.83504799c.46138653 0 .83504798.36520757.83504798.8161555 0 .45048446-.37366145.81569204-.83504798.81569204z" fill="#096dd9" mask="url(#b)" transform="translate(109.337349)"/></g></svg>