<svg height="55" viewBox="0 0 210 55" width="210" xmlns="http://www.w3.org/2000/svg" xmlns:xlink="http://www.w3.org/1999/xlink"><mask id="a" fill="#fff"><path d="m.00021561.32728953h18.97934289v53.14289327h-18.97934289z" fill="#fff" fill-rule="evenodd"/></mask><g fill="none" fill-rule="evenodd"><g fill="#012c53"><path d="m9.34370637 5.17449487c0-2.68601643 2.21901433-4.84724846 4.84724843-4.84724846 2.6860165 0 4.7886037 2.16123203 4.7886037 4.84724846 0 2.62780287-2.1025872 4.78860369-4.7886037 4.78860369-2.6282341 0-4.84724843-2.16080082-4.84724843-4.78860369m9.63585213 11.91394253v21.8990759c0 7.9424846-6.3068994 14.4248871-14.24938396 14.4826695-2.62780288-.0577824-4.72995893-2.1603697-4.72995893-4.7886037 0-2.6864477 2.16036961-4.8468173 4.84681724-4.8468173h-.23371663c2.62823409 0 4.73039015-2.1025873 4.73039015-4.8472485v-21.8990759c0-2.6873101 2.21901433-4.8472485 4.84724843-4.8472485 2.6860165 0 4.7886037 2.1599384 4.7886037 4.8472485" mask="url(#a)" transform="translate(0 .103922)"/><path d="m24.8197577 5.57108008c0-2.68601642 2.1025873-4.84724846 4.7886037-4.84724846 2.6864476 0 4.7890349 2.16123204 4.7890349 4.84724846 0 2.62780288-2.1025873 4.78860372-4.7890349 4.78860372-2.6860164 0-4.7886037-2.16080084-4.7886037-4.78860372"/><path d="m34.3973532 17.2500123v19.5636345c0 2.6278029-2.1025873 4.7890349-4.7886037 4.7890349-2.6864477 0-4.7890349-2.161232-4.7890349-4.7890349v-19.5636345c0-2.6278029 2.1025872-4.7886037 4.7890349-4.7886037 2.6860164 0 4.7886037 2.1608008 4.7886037 4.7886037"/><path d="m54.8955092 31.8404415c-2.4648049 0-4.5311704-1.820575-4.8558726-4.1504107-.0254415-.2069815-.0495894-.4152567-.0495894-.638193 0-.2233676.0241479-.4312115.0495894-.6386242.3247022-2.3298358 2.3910677-4.1508419 4.8558726-4.1508419 2.6278029 0 4.7886037 2.161232 4.7886037 4.7890349h.0582136v.0008624h-.0582136c0 2.6273717-2.1608008 4.7881725-4.7886037 4.7881725zm14.5982341-4.7886037.0012937-.0004312h-.0025873c-.0047433 0-.0556263-.0021561-.0556263-.0582136v-9.6940657-.0008624c0-2.6860164-2.2194456-4.846386-4.8472485-4.846386-1.0870841 0-2.0310061.3190965-2.8097741.8969199-.2337166.1660164-.4523408.3501437-.652423.5541067-2.3380287-1.3928131-6.2318686-1.4510266-6.2318686-1.4510266-2.642464 0-5.115462.6964065-7.2525462 1.9094045-.1138398.0418275-.2276796.083655-.3393634.134538l-.9930801.6425051c-3.300924 2.3578645-5.5617659 6.1283778-5.9925462 10.379692-.0043121.0426899-.0077618.0862423-.0116427.1297946-.0185421.199651-.0362218.3997331-.0461396.6015401-.0086243.156961-.0112115.316078-.0146612.4743326-.0017249.0901232-.008193.1789528-.008193.2695072v.0582136.0008624.0573511c0 .0905544.0064681.1798152.008193.2699384.0034497.1582546.0060369.3169405.0146612.4739015.0099178.2022382.0275975.4023203.0461396.6019712.0038809.0435524.0073306.0871047.0116427.1297947.4307803 4.2513141 2.6916222 8.0218275 5.9925462 10.3792608l.9930801.6429363c.1116838.0504517.2255236.0922793.3393634.1341068 2.1370842 1.2129979 4.6100822 1.9094045 7.2525462 1.9094045 0 0 3.8938399-.0582136 6.2318686-1.4505955.2000822.2035318.4187064.3880904.652423.5541068.778768.5778234 1.72269.8964887 2.8097741.8964887 2.6278029 0 4.8472485-2.1603696 4.8472485-4.846386v-.0008625-9.6940657c0-.0560575.050883-.0573511.0556263-.0573511h.0025873z"/><path d="m104.535758 27.002809v9.7522793c0 2.6864476-2.161232 4.8472485-4.8472488 4.8472485-2.6864476 0-4.8468172-2.1608009-4.8468172-4.8472485v-9.7522793c0-2.6860164-2.2194456-4.8468172-4.9058932-4.8468172-2.6860165 0-4.8468173 2.1608008-4.8468173 4.8468172v9.7522793c0 2.6864476-2.1608008 4.8472485-4.8472484 4.8472485-2.6864477 0-4.9054621-2.1608009-4.9054621-4.8472485v-9.7522793c0-8.0589117 6.5406161-14.5990965 14.5995278-14.5990965 8.0593429 0 14.5999592 6.5401848 14.5999592 14.5990965"/></g><g fill="#096dd9"><path d="m159.139164 27.0613244v9.7522793c0 2.6278029-2.219014 4.7890349-4.905462 4.7890349-2.686447 0-4.847248-2.161232-4.847248-4.7890349v-9.7522793c0-2.6860164-2.219015-4.905462-4.905462-4.905462-2.686448 0-4.905031 2.2194456-4.905031 4.905462v9.7522793c0 2.6278029-2.161232 4.7890349-4.847248 4.7890349-2.686448 0-4.905462-2.161232-4.905462-4.7890349v-9.7522793c0-2.6860164-2.102588-4.905462-4.788604-4.905462-2.686448 0-4.905893 2.2194456-4.905893 4.905462v9.7522793c0 2.6278029-2.160801 4.7890349-4.846818 4.7890349-2.686447 0-4.905462-2.161232-4.905462-4.7890349v-9.7522793c0-8.1175564 6.59883-14.6577412 14.658173-14.6577412 3.73731 0 7.124476 1.4014373 9.694066 3.73731 2.569589-2.3358727 6.014969-3.73731 9.752279-3.73731 8.059343 0 14.658172 6.5988295 14.658172 14.6577412"/><path d="m164.98139 27.002809v-9.7527104c0-2.6864477 2.160801-4.8463861 4.847249-4.8463861 2.686016 0 4.846817 2.1599384 4.846817 4.8463861v9.7527104c0 2.6860165 2.219014 4.8472485 4.905462 4.8472485s4.84768-2.161232 4.84768-4.8472485v-9.7527104c0-2.6864477 2.160369-4.8463861 4.846817-4.8463861 2.686016 0 4.905462 2.1599384 4.905462 4.8463861v9.7527104c0 8.059343-6.540616 14.5995278-14.599959 14.5995278-8.058912 0-14.599528-6.5401848-14.599528-14.5995278"/><path d="m199.226267 12.4034969h4.287967v.5204723h-1.84731v4.7127105h-.593347v-4.7127105h-1.84731z"/></g><path d="m204.166441 12.4034969h.74729l1.949938 4.4634702h.021992l1.942177-4.4634702h.747289v5.2331828h-.600677v-4.1633471h-.021992l-1.810657 4.1633471h-.542033l-1.810657-4.1633471h-.021561v4.1633471h-.601109z" fill="#0181df"/></g></svg>