<svg height="10" viewBox="0 0 10 10" width="10" xmlns="http://www.w3.org/2000/svg"><g fill="none" fill-rule="evenodd"><rect fill="#000" fill-opacity=".04" height="21" rx="2" stroke="#b9cfe6" width="168" x="-148.5" y="-5.5"/><path d="m0 0h10v10h-10z" fill="#000" fill-rule="nonzero" opacity="0"/><path d="m5.50585937 5 2.56347657-3.05566406c.04296875-.05078125.00683593-.12792969-.05957032-.12792969h-.77929687c-.04589844 0-.08984375.02050781-.12011719.05566406l-2.11425781 2.52050781-2.11425781-2.52050781c-.02929688-.03515625-.07324219-.05566406-.12011719-.05566406h-.77929688c-.06640625 0-.10253906.07714844-.05957031.12792969l2.56347656 3.05566406-2.56347656 3.05566406c-.04296875.05078125-.00683594.12792969.05957031.12792969h.77929688c.04589844 0 .08984375-.02050781.12011719-.05566406l2.11425781-2.52050782 2.11425781 2.52050782c.02929688.03515625.07324219.05566406.12011719.05566406h.77929687c.06640625 0 .10253907-.07714844.05957032-.12792969z" fill="#082340"/></g></svg>