<svg height="24" viewBox="0 0 24 24" width="24" xmlns="http://www.w3.org/2000/svg"><path d="m18.25 5.4375v-2.1875c0-.68945312-.5605469-1.25-1.25-1.25h-13.75c-.68945312 0-1.25.56054688-1.25 1.25v13.75c0 .6894531.56054688 1.25 1.25 1.25h2.1875c.171875 0 .3125.140625.3125.3125v2.1875c0 .6894531.56054688 1.25 1.25 1.25h2.421875c.04296875 0 .078125-.0351562.078125-.078125v-1.09375c0-.0429688-.03515625-.078125-.078125-.078125h-2.421875v-2.1875c0-.171875.140625-.3125.3125-.3125h9.6875c.6894531 0 1.25-.5605469 1.25-1.25v-9.6875c0-.171875.140625-.3125.3125-.3125h2.1875v2.421875c0 .04296875.0351562.078125.078125.078125h1.09375c.0429688 0 .078125-.03515625.078125-.078125v-2.421875c0-.68945312-.5605469-1.25-1.25-1.25h-2.1875c-.171875 0-.3125-.140625-.3125-.3125zm-1.5625 11.5625h-13.125c-.171875 0-.3125-.140625-.3125-.3125v-13.125c0-.171875.140625-.3125.3125-.3125h13.125c.171875 0 .3125.140625.3125.3125v13.125c0 .171875-.140625.3125-.3125.3125zm4.0625 5h-2.421875c-.0429688 0-.078125-.0351562-.078125-.078125v-1.09375c0-.0429688.0351562-.078125.078125-.078125h2.109375c.171875 0 .3125-.140625.3125-.3125v-2.109375c0-.0429688.0351562-.078125.078125-.078125h1.09375c.0429688 0 .078125.0351562.078125.078125v2.421875c0 .6894531-.5605469 1.25-1.25 1.25zm-4.453125 0h-4.84375c-.0429688 0-.078125-.0351562-.078125-.078125v-1.09375c0-.0429688.0351562-.078125.078125-.078125h4.84375c.0429688 0 .078125.0351562.078125.078125v1.09375c0 .0429688-.0351562.078125-.078125.078125zm5.625-5.625h-1.09375c-.0429688 0-.078125-.0351562-.078125-.078125v-4.84375c0-.0429688.0351562-.078125.078125-.078125h1.09375c.0429688 0 .078125.0351562.078125.078125v4.84375c0 .0429688-.0351562.078125-.078125.078125z" fill="#6b7b8d" fill-rule="evenodd"/></svg>