<svg height="20" viewBox="0 0 20 20" width="20" xmlns="http://www.w3.org/2000/svg"><g fill="none"><path d="m0 0h20v20h-20z" fill="#000" opacity="0"/><path d="m19.9090909 20c-.0909091-.1363636-.1818182-.3181818-.3181818-.4090909-6.4090909-6.4090909-12.81818183-12.81818183-19.22727273-19.18181818-.0909091-.13636365-.22727274-.22727274-.36363637-.31818184.13636363-.04545453.27272727-.09090908.40909092-.09090908h19.59090908v19.5909091c0 .1363636-.0454546.2727272-.0909091.4090909zm-5.8040402-10.22861925c1.4801347-1.48013475 2.9602695-2.96026952 4.4404042-4.38754233-.1585858-.21144783-.3700337-.42289565-.6343435-.79292934-1.2686869 1.32154889-2.4845119 2.59023583-3.7531988 3.85892278-.7400674-.74006737-1.4272728-1.42727281-2.0616163-2.11447824l-.6872054.68720543c.8986533.89865324 1.7973065 1.85016844 2.6959598 2.7488217z" fill="#096dd9"/></g></svg>