<svg height="200" viewBox="0 0 200 200" width="200" xmlns="http://www.w3.org/2000/svg"><g fill="none" fill-rule="evenodd"><rect fill="#fff" height="198" rx="51" stroke="#ff9618" stroke-width="2" width="198" x="1" y="1"/><path d="m40 40h120v120h-120z" fill="#000" fill-rule="nonzero" opacity="0"/><path d="m40 40h120v120h-120z" fill="#417505" opacity="0"/><path d="m138.160511 93.7965199c.902344 0 1.699219.328125 2.355469.984375s.984375 1.453125.984375 2.3554687v13.3945314c0 .902344-.328125 1.699219-.984375 2.355469s-1.453125.984375-2.355469.984375h-70.3359371c-1.40625 0-2.5898438-.480469-3.5507813-1.464844l-7.3828125-7.382813c-.3515625-.351562-.5273437-.75-.5273437-1.195312 0-.445313.1757812-.867188.5273437-1.195313l7.3828125-7.3828121c.9726563-.9726563 2.1679688-1.4648438 3.5507813-1.4648438h26.7890625v-10.0546875h13.3945316v10.0898438zm7.59375-24.6445313c.351563.3515625.527344.75.527344 1.1953125s-.175781.8671875-.527344 1.1953125l-7.382812 7.3828125c-.972656.9726563-2.167969 1.4648438-3.550781 1.4648438h-70.3242191c-.9023438 0-1.6992188-.328125-2.3554688-.984375s-.984375-1.4414063-.984375-2.3554688v-13.3945312c0-.9023438.328125-1.6992188.984375-2.3554688s1.4414063-.984375 2.3554688-.984375h30.1523437v-3.3398437c0-.9023438.328125-1.6992188.984375-2.3554688s1.4414063-.984375 2.3554688-.984375h6.7031246c.902344 0 1.699219.328125 2.355469.984375s.984375 1.453125.984375 2.3554688v3.3398437h26.789063c1.40625 0 2.589843.4804688 3.550781 1.4648438zm-51.1406246 48.0937504h13.3945316v26.789062c0 .902344-.328125 1.699219-.984375 2.355469s-1.453125.984375-2.355469.984375h-6.7031251c-.9023438 0-1.6992188-.328125-2.3554688-.984375s-.984375-1.453125-.984375-2.355469z" fill="#ff9618" fill-rule="nonzero"/></g></svg>