<svg height="200" viewBox="0 0 200 200" width="200" xmlns="http://www.w3.org/2000/svg"><g fill="none" fill-rule="evenodd"><rect fill="#fff" height="198" rx="51" stroke="#fa541c" stroke-width="2" width="198" x="1" y="1"/><g fill-rule="nonzero"><path d="m40 40h119.322034v119.322034h-119.322034z" fill="#000" opacity="0"/><path d="m100 41c32.58275 0 59 26.41725 59 59s-26.41725 59-59 59-59-26.41725-59-59 26.41725-59 59-59zm0 9.8333333c-27.15475 0-49.1666667 22.0119167-49.1666667 49.1666667s22.0119167 49.166667 49.1666667 49.166667 49.166667-22.011917 49.166667-49.166667-22.011917-49.1666667-49.166667-49.1666667zm9.833333 29.5c2.607962 0 5.109109 1.0360089 6.953217 2.8801166 1.844108 1.8441078 2.880117 4.3452546 2.880117 6.9532168v19.6666663c0 2.607962-1.036009 5.109109-2.880117 6.953217s-4.345255 2.880117-6.953217 2.880117h-19.6666663c-2.6079622 0-5.109109-1.036009-6.9532168-2.880117-1.8441077-1.844108-2.8801166-4.345255-2.8801166-6.953217v-19.6666663c0-2.6079622 1.0360089-5.109109 2.8801166-6.9532168 1.8441078-1.8441077 4.3452546-2.8801166 6.9532168-2.8801166z" fill="#fa541c"/></g></g></svg>