<svg height="36" viewBox="0 0 36 36" width="36" xmlns="http://www.w3.org/2000/svg"><g fill="none" transform="matrix(0 1 -1 0 36 0)"><path d="m0 0h36v36h-36z" fill="#000" opacity="0"/><path d="m27.0034341 6.4755058c-1.0848535 0-1.964301-.87944753-1.964301-1.96430105 0-1.08485351.8794475-1.96430104 1.964301-1.96430104s1.964301.87944753 1.964301 1.96430104c0 1.08485352-.8794475 1.96430105-1.964301 1.96430105zm-7.0324976 25.0260949c0 .7944856-.4785866 1.510741-1.2125955 1.8147775-.734009.3040365-1.5788899.1359793-2.1406761-.4258069s-.7298435-1.4066671-.425807-2.1406761 1.0202919-1.2125955 1.8147776-1.2125955c1.0848535 0 1.964301.8794475 1.964301 1.964301zm-12.92540072-26.99039595c0-1.08485351.87944753-1.96430104 1.96430104-1.96430104 1.08485348 0 1.96430108.87944753 1.96430108 1.96430104 0 1.08485352-.8794476 1.96430105-1.96430108 1.96430105-1.08485351 0-1.96430104-.87944753-1.96430104-1.96430105zm24.45629762 0c0-2.31979549-1.7640704-4.25916579-4.073494-4.47828674-2.3094235-.21912095-4.4067516 1.35387512-4.8430341 3.63227559-.4362824 2.27840048.9315733 4.51493178 3.158577 5.16447451v4.49839929l-7.7372468 7.6772682-7.7522416-7.6922628v-4.49839936c2.1465701-.63012971 3.5038882-2.74191873 3.185585-4.95630566-.3183031-2.21438693-2.2154872-3.85836326-4.45263408-3.85836326-2.23714692 0-4.13433093 1.64397633-4.45263409 3.85836326-.31830317 2.21438693 1.03901493 4.32617595 3.18558497 4.95630566v5.51803656l8.9967986 8.9967986v3.8086447c-2.14657.6301298-3.5038881 2.7419188-3.1855849 4.9563057s2.2154872 3.8583633 4.4526341 3.8583633 4.1343309-1.6439764 4.4526341-3.8583633c.3183031-2.2143869-1.0390149-4.3261759-3.185585-4.9563057v-3.7786554l8.9967987-8.9967986v-5.53303119c1.9252597-.55429044 3.2519066-2.31500152 3.2538421-4.31846336z" fill="#00a6ab"/></g></svg>