<svg height="200" viewBox="0 0 200 200" width="200" xmlns="http://www.w3.org/2000/svg"><g fill="none" fill-rule="evenodd"><rect fill="#fff" height="198" rx="51" stroke="#009315" stroke-width="2" width="198" x="1" y="1"/><path d="m60 119c-32.5848571 0-59-26.4067143-59-59s26.4151429-59 59-59c32.5932857 0 59 26.4067143 59 59s-26.4067143 59-59 59zm0-108.1385714v-.0337143c-28.1935714.0084286-49.1385714 22.0828571-49.1385714 49.1722857s22.0491428 49.138571 49.1385714 49.138571 49.138571-22.0407139 49.138571-49.138571-22.0407139-49.1385714-49.138571-49.1385714zm-8.6982857 73.0672857c-1.1817738.8566705-2.7681906.9001798-3.9951429.1095714-1.2984328-.8886492-2.0620168-2.3714596-2.0312857-3.9445714v-45.1181429c0-1.6351428.7754286-3.1438571 2.0312857-3.9445714 1.230623-.7919944 2.8217302-.7450987 4.0035715.118l31.4638571 22.5632857c1.1378571.826 1.8374286 2.2757143 1.8374286 3.8265714 0 1.5508572-.6995715 3.0005715-1.8458572 3.8181429z" fill="#009315" fill-rule="nonzero" transform="translate(40 40)"/></g></svg>