<svg height="24" viewBox="0 0 24 24" width="24" xmlns="http://www.w3.org/2000/svg"><g fill="none" fill-rule="evenodd"><circle cx="12" cy="12" fill="#fff" r="11.75" stroke="#8e9eb3" stroke-width=".5"/><g transform="translate(5 5)"><path d="m0 0h14v14h-14z" fill="#000" fill-rule="nonzero" opacity="0"/><path d="m10.6815625 11.6396875c0 .442173-.358452.800625-.800625.800625h-5.761875c-.4416742-.0012018-.79942316-.3589508-.800625-.800625v-8.4896875h7.363125zm-5.76407751-9.9246875c-.00057952-.04369163.01651461-.08576789.04741212-.11666539.0308975-.03089751.07297376-.04799164.11666539-.04739711h3.845625c.04369163-.00059453.08576789.0164996.11666539.04739711.03089751.0308975.04799164.07297376.04741212.11666539v.4725h-4.17378002zm8.16376501.4725h-3.03625v-.4725c0-.6173508-.5004617-1.1178125-1.1178125-1.1178125h-3.845625c-.61635466.00239829-1.11541421.50145784-1.1178125 1.1178125v.4725h-3.045c-.25380428.01710176-.45093637.22796395-.45093637.48234375s.19713209.46524199.45093637.48234375h1.4371875v8.4875c0 .4676098.18575728.9160676.51640736 1.2467176.33065007.3306501.77910782.5164074 1.24671764.5164074h5.761875c.4676098 0 .9160676-.1857573 1.2467176-.5164074.3306501-.33065.5164074-.7791078.5164074-1.2467176v-8.4896875h1.4371875c.265787 0 .4813327-.21546296.4813327-.48125.0023171-.12835609-.0476149-.2521632-.1383922-.34294052s-.2145844-.14070929-.3429405-.13830948zm-6.08125 8.806875c.12801535 0 .25075585-.0510018.34107088-.1417274.09031503-.0907255.14076101-.2136961.1401841-.3417101v-5.1253125c0-.26578704-.21546794-.48125-.48125498-.48125s-.48125498.21546296-.48125498.48125v5.1253125c-.00057691.128014.04986907.2509846.1401841.3417101.09031503.0907256.21305553.1417274.34107088.1417274m-2.2465625 0c.26699516 0 .4834375-.2164423.4834375-.4834375v-5.1253125c.01213394-.18007778-.07705464-.35191903-.23129722-.44564451-.15424258-.09372549-.34785048-.09372549-.50209306 0-.15424258.09372548-.24343116.26556673-.23129722.44564451v5.1253125c.00683842.2632666.21801709.4754052.48125.4834375m4.493125 0c.26614049-.0012043.48125272-.2172943.48125-.4834375v-5.1253125c.01213394-.18007778-.07705464-.35191903-.23129722-.44564451-.15424258-.09372549-.34785048-.09372549-.50209306 0-.15424258.09372548-.24343116.26556673-.23129722.44564451v5.1253125c0 .2669952.21644234.4834375.4834375.4834375" fill="#667085"/></g></g></svg>