<svg height="56" viewBox="0 0 56 56" width="56" xmlns="http://www.w3.org/2000/svg" xmlns:xlink="http://www.w3.org/1999/xlink"><defs><path id="a" d="m.14659686 27.9987982c0 15.3834461 12.46973584 27.8546049 27.85260194 27.8546049s27.8542043-12.4703576 27.8542043-27.8538037c0-15.3826448-12.470537-27.85300254-27.8542043-27.85300254-15.3820649-.00080115-27.85260194 12.46955654-27.85260194 27.85220134z"/><linearGradient id="b" x1="124.828497%" x2="32.58991%" y1="50%" y2="24.044755%"><stop offset="0" stop-color="#edf6ff"/><stop offset="1" stop-color="#65a4e2"/></linearGradient><mask id="c" fill="#fff"><use fill="#fff" fill-rule="evenodd" xlink:href="#a"/></mask></defs><g fill="none" fill-rule="nonzero"><path d="m0 0h56v56h-56z" fill="#000" opacity="0"/><use fill="#a4bbd2" opacity=".075223" xlink:href="#a"/><path d="m.14659686 48.9127859c0 5.2904566 12.53536604 9.5793607 27.99919454 9.5793607 15.4638286 0 28.0008055-4.2886285 28.0008055-9.5790851 0-5.2901811-12.5361715-9.5788096-28.0008055-9.5788096-15.4630231-.0002756-27.99919454 4.288353-27.99919454 9.578534z" fill="#a5d2ff" mask="url(#c)" opacity=".1"/><g opacity=".610806" transform="matrix(-1 0 0 1 47.157895 9.431579)"><path d="m0 0h37.726316v37.726316h-37.726316z" fill="#000" opacity="0"/><path d="m25.6140163 11.2712961c5.6033948 5.7750618 8.0633779 12.4524067 5.4937187 15.0353567l-.0374155.0369077-.0323851.0310394c-.0099138.0121057-.0211127.0233995-.0323851.0347302-3.8874614 3.9075681-9.7354702 4.7674441-14.8717043 2.6930826l1.3574575 4.7839419c.1753642.6179091-.1807618 1.2615059-.7954547 1.4375557-.103177.0295262-.2099524.0445108-.3172786.0445108l-6.85356271-.0012549c-.29307577.0003499-.57529855-.1114314-.78935947-.3126453l-.0290805-.0282344c-.20947511-.2105586-.33905226-.5013914-.33912569-.8226731 0-.1077706.01487071-.2150613.04424496-.318772l1.64998821-5.824223.7195956-2.5402108-.1426487-.1451211c-5.64646472-5.8473272-5.96807601-14.8076361-.68067471-20.12242182l.03275228-.03030124.01784483-.01930274c.0167433-.01808478.0341476-.03554213.0515886-.0530733 2.5696959-2.58298687 9.2126452-.11028027 14.9579543 5.5220963l-8.4017691 7.3000889-.0302922.027201c-.4856298.450385-.531013 1.2103149-.0955765 1.716652.0194604.0226244.0397287.0445476.0608047.0656957.4804158.4829375 1.2592006.4830852 1.7394695.0003322l.0309531-.0322943.0298149-.0334015 7.2625257-8.4452247z" fill="#edf6ff" stroke="#b5daff" stroke-width=".5"/><path d="m26.6998716 8.67410525c-.2499301-.38306753-.2068185-.90135687.1293712-1.23754653.385737-.38577343 1.0112386-.38562716 1.3971218.0002194.3858833.38588312.385993 1.01142114.000256 1.397158-.3361897.33615309-.8544426.37926465-1.2375103.12937122l-9.1011837 10.52905496 7.1635036-8.2871811c5.5802598 5.7216233 8.0300863 12.3371805 5.4710365 14.8962296-2.6037336 2.6036964-9.4066578.0222322-15.1948331-5.765905-5.78810209-5.7881372-8.36960347-12.59105966-5.76586983-15.19479263 2.55908633-2.55908563 9.17460863-.10925981 14.89619683 5.47099853l-8.3670804 7.2325388 10.6089548-9.17014525z" fill="url(#b)" opacity=".395326"/><path d="m28.3039007 7.3592087c.3806618.38062715.38077.99764495.0002885 1.37812783-.3316093.33157448-.8428012.37409883-1.2206497.12760911l-9.0453161 10.46445156c-.0191133.0221281-.0390239.0435547-.0596926.0642374-.4717696.4717713-1.2367721.471627-1.7086859-.0003247-.0206795-.020671-.0406022-.0420855-.0597287-.0642013-.436459-.504918-.3811306-1.2679035.1236412-1.7041838l10.464412-9.04524214c-.2464888-.37784991-.2039646-.88907983.1276447-1.22069037.3804815-.38051896.9974609-.38037468 1.3780866.00021641z" fill="#fff"/><path d="m14.8118959 24.8015218 2.5330938 9.0672977c.1746167.6250643-.1803603 1.2762709-.7929637 1.4544873-.1028417.0299248-.2092597.0451143-.3161977.0451143h-6.82987807c-.63693189 0-1.15331865-.5269557-1.15331865-1.1769673 0-.1090511.01485321-.2176167.04412061-.3225223l2.51966741-9.023864c.2549923-.91334 1.067053-1.5477409 1.9976101-1.5606627.9253256-.0128097 1.7441544.6089681 1.9978662 1.517117z" fill="#cddeef"/><g fill="#65a4e2"><path d="m11.7894737 25.3473684c0 .488336.3958745.8842105.8842105.8842105s.8842105-.3958745.8842105-.8842105-.3958745-.8842105-.8842105-.8842105-.8842105.3958745-.8842105.8842105z"/><path d="m33.6 7.95789474c0 3.06186836-2.4573238 5.54980066-5.5074085 5.59927036l-.0925915.0007296v-.6588299c2.7016443 0 4.8968808-2.1682033 4.9405134-4.85945019l.0006566-.08171987zm-1.4957655.07296417c0 2.24401299-1.8009746 4.06742409-4.0363778 4.10368729l-.0678567.0005472v-.6566775c1.8848104 0 3.4163283-1.51251074 3.4470827-3.38998826l.0004743-.05756873zm-1.6781759-.07296417c0 1.34279609-1.0747622 2.43459546-2.411028 2.46202996l-.0515127.0005108v-.65667757c.981514 0 1.7801433-.78305147 1.805243-1.75850945l.0006202-.04735374zm-2.4260586-4.03127036v.65667752c-1.8848104 0-3.4163283 1.51251075-3.4470827 3.38998828l-.0004743.05756873h-.6566775c0-2.26670489 1.8375296-4.10423453 4.1042345-4.10423453zm-.0364821 1.56872964v.65667752c-.981514 0-1.7801433.78305147-1.805243 1.75850945l-.0006202.04735375h-.6566775c0-1.36005212 1.1024886-2.46254072 2.4625407-2.46254072zm.0364821-3.13745928v.65882996c-2.7016443 0-4.8968808 2.16820326-4.9405134 4.85945017l-.0006566.08171987h-.65883c0-3.09280521 2.5071948-5.6 5.6-5.6z"/></g></g></g></svg>