<svg height="56" viewBox="0 0 56 56" width="56" xmlns="http://www.w3.org/2000/svg"><g fill="none" fill-rule="evenodd"><path d="m0 0h56v56h-56z" fill="#000" fill-rule="nonzero" opacity="0"/><g fill="#f6fafe"><path d="m26.6073458 11.0696808c0 .7484817-.6122394 1.354424-1.3651415 1.354424h-5.4621429c-.3621423.0002444-.7095468-.1423362-.9657722-.3963696-.2559872-.2541236-.3999329-.598687-.4002392-.9580544 0-.7482657.6116412-1.35539509 1.3660658-1.35539509h5.4621428c.7528478-.00005397 1.3650872.60712939 1.3650872 1.35539509z"/><path d="m34.0415953 11.0696808c0 .7484817-.4303619 1.3544237-.9614224 1.3544237h-3.8423728c-.5316587 0-.9614224-.6064817-.9614224-1.3544237 0-.7482657.4297093-1.35539509.9614224-1.35539509h3.8423728c.5310605-.00005397.9614224.60712939.9614224 1.35539509z"/><path d="m42.3861023 16.5664441c0 .4195696-.1678243.8219716-.4667606 1.1186015s-.7043859.4631648-1.1270735.4629359h-15.7787022c-.8796454 0-1.5928553-.707949-1.5928553-1.5814834 0-.8731027.7132642-1.5811056 1.5928553-1.5811056h15.7787565c.4226325-.0002045.8280314.1662765 1.126988.4628088.2988136.2965672.4667918.6988036.4667918 1.1182428z"/><path d="m46.6345322 22.2137349c0 .83203-.6793355 1.5066782-1.5178207 1.5066782h-23.8199712c-.8382133 0-1.5175488-.6743243-1.5175488-1.5063544 0-.8317062.6793899-1.5063004 1.5175488-1.5063004h23.8194275c.8381589 0 1.5178207.6740544 1.5183644 1.5059766z"/><path d="m48 27.5608882c0 .4195044-.1677615.8218524-.4665199 1.1185666-.2987245.2967511-.7040374.4634586-1.1266617.4634023h-4.4008374c-.8802436 0-1.5935079-.7082726-1.5935079-1.5816991 0-.8735344.71321-1.581807 1.5935079-1.581807h4.4008374c.4224777 0 .8277193.1666651 1.1266617.4630785.2986559.2967381.4665199.6990093.4665199 1.1184587z"/><path d="m39.199739 27.5608882c0 .8739122-1.059783 1.5819689-2.3700623 1.5819689h-30.4613c-1.30794117 0-2.3683767-.7073551-2.3683767-1.5819689 0-.8735884 1.06038115-1.5815372 2.3683767-1.5815372h30.4613c1.3102793.000054 2.3700623.7080027 2.3700623 1.5815372z"/><path d="m29.7599231 33.8616572c0 .4940025-.1919091.9677973-.5335203 1.3173068-.3417988.349323-.8053864.5455738-1.2887739.5455738h-26.11534143c-.65092184-.0000718-1.25238633-.3549433-1.57792499-.9309954-.32581664-.5760846-.32581664-1.2861287 0-1.8622133.32538175-.5762561.92690874-.9312917 1.57792499-.9313291h26.11534143c.483243-.0000781.9467192.1960539 1.2884474.5452402.3418471.3490119.5338468.822596.5338468 1.316417zm23.382934 6.5786376c-.0003264 1.019079-.8084151 1.8450858-1.8056437 1.8454195h-21.7453179c-.9790546-.0260803-1.7591206-.8447468-1.7591206-1.8454195 0-1.0007283.780066-1.819228 1.7591206-1.8454196h21.7447738c.9971741.0005561 1.8055893.8263961 1.8061878 1.8454196z"/><path d="m49.830269 46.0001192c0 .3791846-.137844.7428249-.3832382 1.0108052-.2454938.2676242-.57809.4178297-.9247844.4176469h-24.3585554c-.7215885 0-1.3065481-.639544-1.3065481-1.4284521 0-.788908.5849596-1.4286906 1.3065481-1.4286906h24.35861c.7224076 0 1.307968.6394244 1.307968 1.4286906zm5.0268739 0c0 .7885499-.5846866 1.4280937-1.3062752 1.4284519h-1.0432835c-.7219162 0-1.3068759-.6395438-1.3068759-1.4284519 0-.788908.5849597-1.4286906 1.3068759-1.4286906h1.0432289c.7207694 0 1.3063298.6394244 1.3063298 1.4286906z"/></g><g transform="translate(14.508929 14.857143)"><path d="m4.01785714 3.9642857h20.08928576c.6026785 0 1.0044642.4017857 1.0044642 1.0044643v15.0669643h-22.09821423v-15.0669643c0-.60267857.4017857-1.0044643 1.00446427-1.0044643z" fill="#e2f1ff" fill-rule="nonzero"/><path d="m4.919643 0h18.285714v1.714286h-18.285714z" fill="#e2f1ff"/><path d="m1.50669643 10.9955357h6.328125l1.90848214 4.4196429h8.53794643l2.3102679-4.4196429h6.0267857c.8035714 0 1.5066964.703125 1.5066964 1.5066964v12.0535715c0 .8035714-.703125 1.5066964-1.5066964 1.5066964h-25.11160717c-.80357143 0-1.50669643-.703125-1.50669643-1.5066964v-12.0535715c.10044643-.8035714.703125-1.5066964 1.50669643-1.5066964z" fill="#fff" fill-rule="nonzero" stroke="#a5d2ff" stroke-width=".571429"/><path d="m4.919643 20h18.285714v1.714286h-18.285714z" fill="#edf6ff"/></g><path d="m25.2125714 24.5714286v-1.7897143h.0137143l1.224 1.7897143h.3908572v-2.448h-.4045715v1.7657143h-.0137143l-1.2102857-1.7657143h-.4011428v2.448zm3.1268572.048c.3222857 0 .5725714-.0822857.7508571-.2468572.1782857-.1691428.2674286-.4125714.2674286-.7302857v-1.5188571h-.4011429v1.5257143c0 .208-.0491428.3645714-.1474285.4697142-.1005715.1005715-.2571429.1508572-.4697143.1508572-.2171429 0-.3737143-.0502857-.4697143-.1508572-.0982857-.1005714-.1474286-.2571428-.1474286-.4697142v-1.5257143h-.4011428v1.5188571c0 .3177143.0902857.5622857.2708571.7337143.1737143.1622857.4228571.2434286.7474286.2434286zm3.2194285-.048v-.3428572h-1.3234285v-2.1051428h-.3977143v2.448zm2.0297143 0v-.3428572h-1.3234285v-2.1051428h-.3977143v2.448z" fill="#65a4e2" fill-rule="nonzero"/></g></svg>