<svg height="24" viewBox="0 0 24 24" width="24" xmlns="http://www.w3.org/2000/svg"><g fill="none" transform="translate(2 3)"><path d="m11.6752591.67379233 9.1408992 15.40108347c.5223475.8983898-.1305869 1.9251242-1.1752592 1.9251242h-18.28179824c-1.04467222 0-1.69760671-1.0267118-1.17525912-1.9251242l9.14089914-15.40108347c.52234759-.89838977 1.82817062-.89838977 2.35051822 0z" fill="#fff" stroke="#fa541c" stroke-width="2"/><path d="m8 8.75000824h1.25001648v1.25000276h-1.25001648zm3.7500055 5.00001096h1.2499945v1.2499808h-5v-1.2499808h1.25001648v-5.00001096h2.49996702v5.00001096zm-2.50001099-7.50001645c0 .69035745.5596416 1.24999725 1.24999449 1.24999725.6903529 0 1.2499945-.5596398 1.2499945-1.24999725 0-.69035746-.5596416-1.25000275-1.2499945-1.25000275-.69035289 0-1.24999449.55964529-1.24999449 1.25000275z" fill="#fa541c"/></g></svg>