<svg height="6" viewBox="0 0 6 6" width="6" xmlns="http://www.w3.org/2000/svg"><path d="m3.40214405 2.62198501c.30102648-.145169.5990715-.2964409.89395043-.453722.28198437-.15149066.50997172-.26473366.67796241-.33447938.16799068-.06899574.29998337-.10649343.40197771-.10649342.16799067 0 .31198269.05624653.4379757.17623912.11999335.1199926.1859897.26473366.1859897.4409728 0 .10124375-.02999834.20773719-.08999501.31498057-.05999667.10724337-.12599301.17698907-.19198936.20848715-.61796572.25798408-1.30792747.44697242-2.05188621.56021544.13799235.12599222.29998337.3029813.49797239.5234677s.29998337.33372942.31198269.35247825c.07199601.10724338.17399036.23998519.30598303.39747549.13199268.15749028.22198769.27748289.26998503.36522746.04799735.08849454.07799567.19498796.07799567.32173015.00075423.15833651-.06190276.3103868-.17399034.42222397-.11710799.12226367-.2807744.18882092-.44997504.1829887-.17999002 0-.38997838-.15149066-.61796575-.44772238-.22798736-.2902321-.52797071-.82494911-.88795075-1.60040127-.3659797.69295726-.61196606 1.15942849-.73195941 1.37991487-.12599302.2204864-.24598637.38997595-.35998004.50396891-.10295546.10879968-.2461871.17037806-.39597804.17023951-.16972282.00476083-.3326458-.06679273-.44397537-.19498799-.10800163-.11210501-.17007894-.26060799-.17399036-.41622432 0-.13874143.02399867-.23998519.07199601-.30898093.44397539-.62996113.90594975-1.18492689 1.38592314-1.64464854-.36287217-.05854089-.72316153-.13209951-1.07994011-.2204864-.34704289-.0927528-.68610644-.21312964-1.01394376-.35997779-.05999667-.0307481-.11399368-.1004938-.1679907-.20773719-.05875979-.0876115-.09009027-.19074032-.08999501-.29623172-.00570922-.1671602.0622935-.32839142.1859897-.4409728.11173012-.11480216.26579519-.17854348.42597637-.17623913.11399367 0 .25798568.03749768.43197604.10724338.17399036.07499538.38997838.17623913.65996341.32098021.26998502.13874143.56996839.29623172.91194943.46647121-.05999667-.32098019-.11399367-.68695763-.15599136-1.09643235-.04199766-.40947474-.05999666-.69295725-.05999666-.84444791 0-.18898835.053997-.34647863.16799068-.47922044.10488358-.13466255.26733287-.21171422.4379757-.20773719.17399036 0 .31798237.06899574.43197605.20173756.11399367.13874144.16799067.31498057.16799069.53546697 0 .06299612-.01199934.18298872-.02399868.3599778-.01199934.18223875-.04199766.39672553-.07199601.64870996-.035998.25798408-.071996.54746624-.10799401.87594597z" fill="#ff3838" fill-rule="evenodd"/></svg>