<svg height="16" viewBox="0 0 16 16" width="16" xmlns="http://www.w3.org/2000/svg"><g fill="none"><path d="m0 0h16v16h-16z" fill="#000" opacity="0"/><path d="m13.9265926 11.0003504c0 .2983184.2406741.5387956.5386863.5387956.2936297.0031693.534669-.237704.5383211-.5387956v-7.84638695c0-1.18851965-.9652528-2.15399377-2.1536495-2.15399377h-9.692701c-1.18839672 0-2.1536495.96507795-2.1536495 2.15399377v9.69237775c0 1.1881234.96525278 2.1536285 2.1536495 2.1536285h2.69233579c.29362967.0031384.53466896-.2377349.53832107-.5388265-.00401732-.3006955-.2446914-.5411726-.53832107-.5376071h-2.69233579c-.59492878 0-1.07664214-.4813504-1.07664214-1.0771949v-9.69237775c0-.59544835.48098294-1.07719498 1.07664214-1.07719498h9.692701c.595294 0 1.0766421.48174663 1.0766421 1.07759115zm-9.4090447-7.12536817c.84069969 0 1.26382282 1.01297408.68206814 1.61247774l1.36049139 2.82557502c.13881694-.00330012.27661567.0244762.40331399.08129669l1.39836646-1.23371293c-.18509656-.61297387.27526774-1.22547233.90995242-1.22547233.7544903 0 1.2056632.8376887.797912 1.46682683l1.2915556 2.02924779c.5815962-.07923654 1.0801525.3732041 1.0801525.94101316 0 .5251336-.4257049.9508385-.9508385.9508385-.7548073 0-1.2055047-.8378472-.7980704-1.46666839l-1.29155564-2.02940626c-.17502159.0251218-.35357872.00000619-.51487903-.0724222l-1.39820799 1.23371293c.18462114.61170609-.27415843 1.22563082-.9101109 1.22563082-.80852965 0-1.24100269-.9443411-.73182868-1.55779039l-1.38806571-2.88262533c-.51420342-.02960639-.91116581-.46355736-.8949655-.97835757.0162003-.51480021.43966233-.92293316.95470985-.92016408z" fill="#526579" transform="matrix(1 0 0 -1 0 15.99997)"/></g></svg>