<svg height="24" viewBox="0 0 24 24" width="24" xmlns="http://www.w3.org/2000/svg"><g fill="none" fill-rule="evenodd"><path d="m0 0h24v24h-24z" fill="#000" opacity="0"/><path d="m19.193645 5.05368589c3.8363433 3.97294042 3.7256095 10.30361571-.2473309 14.13995911-3.9729404 3.8363433-10.30361574 3.7256095-14.13995909-.2473309-3.83634336-3.9729404-3.72560955-10.30361574.24733088-14.13995909 3.97294042-3.83634336 10.30361571-3.72560955 14.13995911.24733088zm-7.528645 1.94631411c-.345178 0-.625.32311133-.625.72168936l-.001 3.31731064-3.31731064.001c-.39857803 0-.72168936.279822-.72168936.625s.32311133.625.72168936.625l3.31731064-.001.001 3.3193106c0 .3985781.279822.7216894.625.7216894s.625-.3231113.625-.7216894l-.001-3.3193106 3.3193106.001c.3985781 0 .7216894-.279822.7216894-.625s-.3231113-.625-.7216894-.625l-3.3193106-.001.001-3.31731064c0-.39857803-.279822-.72168936-.625-.72168936z" fill="#cdd1e3" fill-rule="nonzero"/></g></svg>