<svg height="24" viewBox="0 0 24 24" width="24" xmlns="http://www.w3.org/2000/svg"><g fill="none" fill-rule="evenodd"><path d="m0 0h24v24h-24z" fill="#000" fill-rule="nonzero" opacity="0"/><path d="m4 0h12c2.209139 0 4 1.790861 4 4v12c0 2.209139-1.790861 4-4 4h-12c-2.209139 0-4-1.790861-4-4v-12c0-2.209139 1.790861-4 4-4zm.6 1h10.8c1.9882251 0 3.6 1.6117749 3.6 3.6v10.8c0 1.9882251-1.6117749 3.6-3.6 3.6h-10.8c-1.9882251 0-3.6-1.6117749-3.6-3.6v-10.8c0-1.9882251 1.6117749-3.6 3.6-3.6zm2.94513889 14.8923611h-1.71875c-.9453125 0-1.71875-.7734375-1.71875-1.71875v-1.71875c0-.3151042.2578125-.5729167.57291667-.5729167.31510416 0 .57291666.2578125.57291666.5729167v1.71875c0 .3151042.2578125.5729167.57291667.5729167h1.71875c.31510417 0 .57291667.2578125.57291667.5729166 0 .3151042-.2578125.5729167-.57291667.5729167zm6.62847221 0h-1.71875c-.3151042 0-.5729167-.2578125-.5729167-.5729167 0-.3151041.2578125-.5729166.5729167-.5729166h1.71875c.3151042 0 .5729167-.2578125.5729167-.5729167v-1.71875c0-.3151042.2578125-.5729167.5729166-.5729167.3151042 0 .5729167.2578125.5729167.5729167v1.71875c0 .9453125-.7734375 1.71875-1.71875 1.71875zm1.1458333-7.77430554c-.3151041 0-.5729166-.2578125-.5729166-.57291667v-1.71875c0-.31510417-.2578125-.57291667-.5729167-.57291667h-1.71875c-.3151042 0-.5729167-.2578125-.5729167-.57291666 0-.31510417.2578125-.57291667.5729167-.57291667h1.71875c.9453125 0 1.71875.7734375 1.71875 1.71875v1.71875c0 .31510417-.2578125.57291667-.5729167.57291667zm-10.63888884 0c-.31510417 0-.57291667-.2578125-.57291667-.57291667v-1.71875c0-.9453125.7734375-1.71875 1.71875-1.71875h1.71875c.31510417 0 .57291667.2578125.57291667.57291667 0 .31510416-.2578125.57291666-.57291667.57291666h-1.71875c-.31510417 0-.57291667.2578125-.57291667.57291667v1.71875c0 .31510417-.2578125.57291667-.57291666.57291667z" fill="#526579" transform="translate(2 2)"/></g></svg>