<svg height="24" viewBox="0 0 24 24" width="24" xmlns="http://www.w3.org/2000/svg"><g fill="none"><path d="m0 0h24v24h-24z" fill="#000" opacity="0"/><path d="m13.18125 9.64125c0 .32515765.2635924.58875.58875.58875s.58875-.26359235.58875-.58875-.2635924-.58875-.58875-.58875-.58875.26359235-.58875.58875zm-5.30625-4.125c-.32466146.00206795-.58637115.26656896-.58500011.59123409.00138184.32466512.26532484.58693759.58999216.586254.32466731-.00068627.58750795-.26407005.58750795-.58873809 0-.15679811-.06254016-.3071201-.17376459-.41764057-.11122443-.11052048-.26194048-.17210814-.41873541-.17110943zm2.355 8.25375c.2399793.0015189.4571745-.1418721.550065-.3631496s.0431285-.4767349-.1260263-.6469672c-.1691548-.1702322-.4242912-.2216151-.646154-.1301314-.22186279.0914836-.3666347.3077641-.3666347.5477482 0 .3257698.2629867.5904382.58875.5925zm9.435-11.83125h-15.33c-.97608141 0-1.76793203.79017078-1.77 1.76625v16.59c.00206797.9760792.79391859 1.76625 1.77 1.76625h12.375v-4.125c0-.3251576.2635924-.58875.58875-.58875h4.125v-13.6425c-.0020391-.97170455-.7870629-1.76007604-1.75875-1.76625zm-8.25 17.76375h-4.72125c-.32515765 0-.58875-.2635924-.58875-.58875s.26359235-.58875.58875-.58875h4.7175c.3251576 0 .58875.2635924.58875.58875s-.2635924.58875-.58875.58875zm-5.31001196-2.9475c0-.3251576.26360431-.58875.58876196-.58875h2.35875c.30798617.0245604.54540054.2816611.54540054.590625s-.23741437.5660646-.54540054.590625h-2.35875c-.15679811 0-.3071201-.0625402-.41764057-.1737646-.11052048-.1112244-.17210814-.2619405-.17112139-.4187354zm2.35876196-4.16625h.10875c.24743082-.7044753.91271074-1.1759326 1.659375-1.1759326.7466643 0 1.4119442.4714573 1.659375 1.1759326h3.99l-.1725-.1725c-.1487118-.1493817-.206433-.3667528-.1514206-.5702319.0550124-.203479.2144008-.3621526.418125-.41625s.4208338.0046002.5695456.1539819l1.1775 1.16625c.2302735.2311932.2302735.6050568 0 .83625l-1.1775 1.18875c-.1487118.1493817-.3658214.2080793-.5695456.1539819s-.3631126-.212771-.418125-.41625c-.0550124-.2034791.0027088-.4208502.1514206-.5702319l.1725-.1725h-3.99c-.2474308.7044753-.9127107 1.1759326-1.659375 1.1759326-.74666426 0-1.41194418-.4714573-1.659375-1.1759326h-.10875c-1.30270163 0-2.35874995-1.0560484-2.35874995-2.35875s1.05604832-2.35874997 2.35874995-2.35875h3.645c.2438723-.70821605.9103465-1.18359856 1.659375-1.18359856s1.4155027.47538251 1.659375 1.18359856h.10875c.4372195.0246639.8522062-.19457404 1.0782481-.56963975.2260419-.3750657.2260419-.8444048 0-1.2194705-.2260419-.37506571-.6410286-.59430365-1.0782481-.56963975h-6c-.28682592.8132037-1.11792982 1.30137057-1.96787062 1.15587141-.8499408-.14549915-1.4713428-.88231673-1.4713428-1.74462141s.621402-1.59912226 1.4713428-1.74462141c.8499408-.14549916 1.6810447.34266771 1.96787062 1.15587141h6c.8644547-.03448863 1.678421.40703374 2.1209123 1.15045342.4424914.74341968.4424914 1.66942348 0 2.41284316-.4424913.74341968-1.2564576 1.18494202-2.1209123 1.15045342h-.10875c-.2438723.7082161-.9103465 1.1835986-1.659375 1.1835986s-1.4155027-.4753825-1.659375-1.1835986h-3.645c-.43721953-.0246639-.85220617.194574-1.07824806.5696397-.22604189.3750658-.22604189.8444048 0 1.2194706.22604189.3750657.64102853.5943036 1.07824806.5696397zm9.43125 9.1275 3.19125-3.19125h-3.19125z" fill="#526579"/></g></svg>