<svg height="24" viewBox="0 0 24 24" width="24" xmlns="http://www.w3.org/2000/svg"><g fill="none"><path d="m0 0h24v24h-24z" fill="#000" opacity="0"/><path d="m19.16625 7.69476563h-9.7378125c-1.39875 0-2.536875 1.13789062-2.536875 2.53687497v9.736875c0 1.39875 1.13789063 2.536875 2.536875 2.536875h9.7375781c1.3980469 0 2.5359375-1.1378906 2.5359375-2.536875v-9.736875c0-1.39898435-1.1378906-2.53687497-2.5357031-2.53687497zm.7122656 12.27374997c0 .3935156-.3196875.7132031-.7122656.7132031h-9.7378125c-.39351562 0-.71320312-.3196875-.71320312-.7132031v-9.736875c0-.3935156.3196875-.7132031.71320312-.7132031h9.7375781c.3925782 0 .7122657.3196875.7122657.7132031v9.736875zm-14.04468747-11.33343748c-.42820313-.2653125-.99023438-.13265625-1.25554688.29554688l-.425625.68742187c-.02039062-.19851562-.03117187-.40078125-.03117187-.60375 0-3.14062499 2.555625-5.69601562 5.69695312-5.69601562 1.04625 0 2.0692969.2859375 2.9571094.82710937.4310156.26085938.991875.1246875 1.2536719-.30445312.2617968-.43007812.125625-.9909375-.3044532-1.25367188-1.1744531-.71507812-2.5251562-1.09265625-3.9063281-1.09265625-4.14679687 0-7.520625 3.37289063-7.520625 7.5196875 0 1.12828123.24398438 2.21273433.72398438 3.22335933.1434375.3009376.43992187.5003907.77296875.5182032.016875.0009375.03375.001875.05085937.001875.31586657 0 .60925432-.1634043.77554688-.4319531l1.50820312-2.4351563c.26460938-.4284375.13265625-.99023438-.29554687-1.25554688z" fill="#526579" stroke="#fff" stroke-width=".6"/></g></svg>