<svg height="24" viewBox="0 0 24 24" width="24" xmlns="http://www.w3.org/2000/svg"><g fill="none"><path d="m0 0h24v24h-24z" fill="#000" opacity="0"/><path d="m6.99497978 21.6589475h-2.19959515c-1.20977734 0-2.19959516-.9898178-2.19959516-2.1995952v-2.1995951c0-.4032591.32993928-.7331984.73319839-.7331984s.73319838.3299393.73319838.7331984v2.1995951c0 .4032591.32993928.7331984.73319839.7331984h2.19959515c.40325911 0 .73319839.3299393.73319839.7331984s-.32993928.7331984-.73319839.7331984zm12.46437252 0h-2.1995951c-.4032591 0-.7331984-.3299393-.7331984-.7331984s.3299393-.7331984.7331984-.7331984h2.1995951c.4032591 0 .7331984-.3299393.7331984-.7331984v-2.1995951c0-.4032591.3299393-.7331984.7331984-.7331984s.7331984.3299393.7331984.7331984v2.1995951c0 1.2097774-.9898178 2.1995952-2.1995952 2.1995952zm1.4663968-13.93076933c-.4032591 0-.7331984-.32993928-.7331984-.73319839v-2.19959515c0-.40325911-.3299393-.73319839-.7331984-.73319839h-2.1995951c-.4032591 0-.7331984-.32993927-.7331984-.73319838s.3299393-.73319839.7331984-.73319839h2.1995951c1.2097774 0 2.1995952.98981782 2.1995952 2.19959516v2.19959515c0 .40325911-.3299393.73319839-.7331984.73319839zm-17.59676124 0c-.40325911 0-.73319839-.32993928-.73319839-.73319839v-2.19959515c0-1.20977734.98981782-2.19959516 2.19959516-2.19959516h2.19959515c.40325911 0 .73319839.32993928.73319839.73319839s-.32993928.73319838-.73319839.73319838h-2.19959515c-.40325911 0-.73319839.32993928-.73319839.73319839v2.19959515c0 .40325911-.32993927.73319839-.73319838.73319839zm12.46437254 10.26477743h-7.33198385c-1.20977733 0-2.19959515-.9898179-2.19959515-2.1995952v-7.33198385c0-1.20977733.98981782-2.19959515 2.19959515-2.19959515h7.33198385c1.2097773 0 2.1995952.98981782 2.1995952 2.19959515v7.33198385c0 1.2097773-.9898179 2.1995952-2.1995952 2.1995952zm-7.33198385-10.26477743c-.40325911 0-.73319838.32993927-.73319838.73319838v7.33198385c0 .4032591.32993927.7331984.73319838.7331984h7.33198385c.4032591 0 .7331984-.3299393.7331984-.7331984v-7.33198385c0-.40325911-.3299393-.73319838-.7331984-.73319838z" fill="#526579" stroke="#fff" stroke-width=".2"/></g></svg>