<svg height="24" viewBox="0 0 24 24" width="24" xmlns="http://www.w3.org/2000/svg"><g fill="none" fill-rule="evenodd"><path d="m0 0h24v24h-24z" fill="#000" fill-rule="nonzero" opacity="0"/><g fill="#526579"><path d="m10.0397954 19.9028027c-.20400376-.1295058-.31620746-.3657667-.28847558-.6074264v-4.1351047l-4.7914044 4.8239808c-.24279051.2444412-.63776986.2457794-.88221109.0029889-.00112428-.0011167-.0022443-.0022377-.00336004-.0033629-.24498496-.2470676-.24482126-.6454894.00036666-.8923556l4.79966917-4.8325229h-4.17572748c-.23947248.0280718-.47367283-.0849817-.60236656-.2907752-.12838144-.2056923-.12838144-.4675204 0-.6732127.12869373-.2057935.36289408-.318847.60236656-.2907752h5.66241936c.167481.001535.327359.0712684.4427058.1936308.1252697.10993.1956346.2703966.1920274.4379172v5.6595915c.0278142.2416202-.0843089.4778892-.2882583.6074264-.309119.0863976-.5317028.0863976-.6677515 0z" fill-rule="nonzero"/><path d="m19.4593523 21.6589475h-2.1995951c-.4032591 0-.7331984-.3299393-.7331984-.7331984s.3299393-.7331984.7331984-.7331984h2.1995951c.4032591 0 .7331984-.3299393.7331984-.7331984v-2.1995951c0-.4032591.3299393-.7331984.7331984-.7331984s.7331984.3299393.7331984.7331984v2.1995951c0 1.2097774-.9898178 2.1995952-2.1995952 2.1995952z"/><path d="m3.32898786 7.72817817c-.40325911 0-.73319839-.32993928-.73319839-.73319839v-2.19959515c0-1.20977734.98981782-2.19959516 2.19959516-2.19959516h2.19959515c.40325911 0 .73319839.32993928.73319839.73319839s-.32993928.73319838-.73319839.73319838h-2.19959515c-.40325911 0-.73319839.32993928-.73319839.73319839v2.19959515c0 .40325911-.32993927.73319839-.73319838.73319839z"/><path d="m13.7246042 11c-.170899-.0014782-.3338998-.0729576-.4517416-.1980984-.1310194-.1106895-.2060929-.2749019-.2045915-.4475142v-5.78339787h-.0682711c.0374604-.32538336.3105446-.57098953.6350538-.57098953s.5973718.24560617.6348322.57098953v4.22595l4.8770162-4.90842111c.2478365-.24943238.6509525-.25072612.9003849-.00288965.0012313.00122338.0024575.00245178.0036787.00368518.2500831.25258094.2498906.65951184-.0004313.91185609l-4.8771653 4.91656854h4.261178c.3222926.03787175.5654528.31350642.5654528.64113072s-.2431602.603483-.5654528.6411307z" fill-rule="nonzero"/></g></g></svg>