<svg height="24" viewBox="0 0 24 24" width="24" xmlns="http://www.w3.org/2000/svg"><path d="m21 1c1.1 0 2 .9 2 2v18c0 1.1-.9 2-2 2h-18c-1.1 0-2-.9-2-2v-18c0-1.1.9-2 2-2zm-2 9.1106921v-3.28859004c0-.45403735-.3686798-.82210206-.8234759-.82210206h-12.35304824c-.45479608 0-.82347586.36806471-.82347586.82210206v3.28859004c0 .4540373.36867978.822102.82347586.822102h5.47652414l.0030587 3.7550779v2.0397147l-.7156939-.9049848c-.2818353-.356432-.79980758-.41714-1.15647113-.135775-.35702767.281365-.41783707.7984732-.13600187 1.1545418l2.2510404 2.8458217c.1560319.197555.3941444.3128096.6461454.3128096.0069184 0 .0140189 0 .0209374-.0003635.2594413-.0063616.5003121-.1345027.650697-.3457082l1.9446265-2.7325851c.2634468-.3700641.176056-.8831735-.1946265-1.1465443-.3706825-.2620984-.8850135-.1753987-1.1484602.1943018l-.5150593.7237698v-2.0049985l.0498075-3.687872 5.1763421-.0672059c.4547961 0 .8236579-.3680647.8236579-.822102zm-12.35286621-.82228387v-1.64438587h10.70591451v1.64438587z" fill="#fff"/></svg>