<svg fill="none" height="24" viewBox="0 0 24 24" width="24" xmlns="http://www.w3.org/2000/svg" xmlns:xlink="http://www.w3.org/1999/xlink"><clipPath id="a"><path d="m0 0h24v24h-24z"/></clipPath><g clip-path="url(#a)" fill="#526579"><path d="m2 12c0 .8284.67157 1.5 1.5 1.5s1.5-.6716 1.5-1.5-.67157-1.5-1.5-1.5-1.5.6716-1.5 1.5z"/><path d="m6.5 12c0 .8284.67157 1.5 1.5 1.5s1.5-.6716 1.5-1.5-.67157-1.5-1.5-1.5-1.5.6716-1.5 1.5z"/><path d="m14 12c0 .8284.6716 1.5 1.5 1.5s1.5-.6716 1.5-1.5-.6716-1.5-1.5-1.5-1.5.6716-1.5 1.5z"/><path clip-rule="evenodd" d="m16.2929 6.29289c.3905-.39052 1.0237-.39052 1.4142 0l5 5.00001c.3905.3905.3905 1.0237 0 1.4142l-5 5c-.3905.3905-1.0237.3905-1.4142 0s-.3905-1.0237 0-1.4142l4.2929-4.2929-4.2929-4.29289c-.3905-.39053-.3905-1.02369 0-1.41422z" fill-rule="evenodd"/></g></svg>