<svg fill="none" height="24" viewBox="0 0 24 24" width="24" xmlns="http://www.w3.org/2000/svg" xmlns:xlink="http://www.w3.org/1999/xlink"><clipPath id="a"><path d="m0 0h24v24h-24z"/></clipPath><g clip-path="url(#a)" fill="#526579"><path clip-rule="evenodd" d="m12 4c-4.41827 0-8 3.58173-8 8 0 4.4183 3.58173 8 8 8 2.2094 0 4.2081-.8943 5.6568-2.3431.3906-.3906 1.0237-.3906 1.4142-.0001.3906.3906.3906 1.0237.0001 1.4142-1.8086 1.8086-4.3099 2.929-7.0711 2.929-5.52283 0-10-4.4772-10-10 0-5.52283 4.47717-10 10-10 2.7612 0 5.2625 1.12038 7.0711 2.92895.3905.39053.3905 1.0237-.0001 1.41422-.3905.39052-1.0236.39051-1.4142-.00002-1.4487-1.44881-3.4474-2.34315-5.6568-2.34315z" fill-rule="evenodd"/><path d="m21.6682 8.48094c.0222.18502-.128.34524-.314.33519l-5.1828-.27987c-.2592-.014-.3795-.32818-.196-.5117l4.5993-4.59924c.177-.17705.4803-.0721.51.17651z"/></g></svg>