<svg fill="none" height="24" viewBox="0 0 24 24" width="24" xmlns="http://www.w3.org/2000/svg"><g fill="#526579"><g clip-rule="evenodd" fill-rule="evenodd"><path d="m3 3c0-1.10457.89543-2 2-2h14c1.1046 0 2 .89544 2 2v9c0 .5523-.4477 1-1 1s-1-.4477-1-1v-9h-14v18h7c.5523 0 1 .4477 1 1s-.4477 1-1 1h-7c-1.10459 0-2-.8955-2-2z"/><path d="m7 8c0-.55228.44772-1 1-1h8c.5523 0 1 .44772 1 1s-.4477 1-1 1h-8c-.55228 0-1-.44772-1-1z"/><path d="m7 12c0-.5523.44772-1 1-1h4c.5523 0 1 .4477 1 1s-.4477 1-1 1h-4c-.55228 0-1-.4477-1-1z"/><path d="m22.5773 17.5001c.3573.6188.3573 1.3812 0 2l-1.6726 2.8972c-.3573.6188-1.0175 1-1.7321 1h-3.3453c-.7145 0-1.3748-.3812-1.732-1l-1.6727-2.8972c-.3572-.6188-.3572-1.3812 0-2l1.6727-2.8971c.3572-.6188 1.0175-1 1.732-1h3.3453c.7146 0 1.3748.3812 1.7321 1zm-1.732 1-1.6727-2.8971h-3.3453l-1.6726 2.8971 1.6726 2.8972h3.3453z"/></g><path d="m17.75 19.75c.6904 0 1.25-.5596 1.25-1.25 0-.6903-.5596-1.25-1.25-1.25-.6903 0-1.25.5597-1.25 1.25 0 .6904.5597 1.25 1.25 1.25z"/></g></svg>