<svg fill="none" height="24" viewBox="0 0 24 24" width="24" xmlns="http://www.w3.org/2000/svg"><g fill="#526579"><path clip-rule="evenodd" d="m2 14.5c0-.5523.44772-1 1-1h18c.5523 0 1 .4477 1 1v6.2c0 .9941-.8059 1.8-1.8 1.8h-16.4c-.99411 0-1.8-.8059-1.8-1.8zm2 1v5h16v-5z" fill-rule="evenodd"/><path d="m17.75 19c.6904 0 1.25-.5596 1.25-1.25 0-.6903-.5596-1.25-1.25-1.25-.6903 0-1.25.5597-1.25 1.25 0 .6904.5597 1.25 1.25 1.25z"/><g clip-rule="evenodd" fill-rule="evenodd"><path d="m6.26179 3.5c-.09614 0-.17868.0684-.19652.16287l-2.08264 11.02313-1.96523-.3713 2.08263-11.02313c.19633-1.03914 1.10423-1.79157 2.16176-1.79157h11.50081c1.0593 0 1.9682.75489 2.1626 1.79618l2.0578 11.02062-1.966.3671-2.0578-11.02061c-.0177-.09466-.1003-.16329-.1966-.16329z"/><path d="m5 17.75c0-.5523.44772-1 1-1h7c.5523 0 1 .4477 1 1s-.4477 1-1 1h-7c-.55228 0-1-.4477-1-1z"/></g></g></svg>