<svg fill="none" height="24" viewBox="0 0 24 24" width="24" xmlns="http://www.w3.org/2000/svg"><g clip-rule="evenodd" fill="#526579" fill-rule="evenodd"><path d="m5.5 5c0-.55228.44772-1 1-1h14c.5523 0 1 .44772 1 1v17c0 .5523-.4477 1-1 1h-14c-.55228 0-1-.4477-1-1zm2 1v15h12v-15z"/><path d="m2.5 2.5c0-.82842.67158-1.5 1.5-1.5h13.5c.5523 0 1 .44772 1 1v3c0 .55228-.4477 1-1 1s-1-.44772-1-1v-2h-12v15h2c.55229 0 1 .4477 1 1s-.44771 1-1 1h-3c-.55228 0-1-.4477-1-1z"/><path d="m9.5 11c0-.5523.44772-1 1-1h6c.5523 0 1 .4477 1 1s-.4477 1-1 1h-6c-.55228 0-1-.4477-1-1z"/><path d="m9.5 15c0-.5523.44772-1 1-1h6c.5523 0 1 .4477 1 1s-.4477 1-1 1h-6c-.55228 0-1-.4477-1-1z"/></g></svg>