<svg height="64" viewBox="0 0 64 64" width="64" xmlns="http://www.w3.org/2000/svg"><g fill="none" fill-rule="evenodd"><circle cx="32" cy="32" fill="#eff4f9" r="32"/><g fill-rule="nonzero" opacity=".503634" transform="translate(8 8)"><path d="m0 0h48v48h-48z" fill="#000" opacity="0"/><path d="m8.15542861 15.1251865 14.70171429 8.4579462v18.4168673l-14.2811429-8.218527c-.35606065-.2048464-.576-.5861183-.576-.9991151v-17.0816443c.00070336-.2022643.05431266-.4007709.15542861-.5755271zm31.84457139.5755271v17.0816443c0 .4129968-.2199393.7942687-.576.9991151l-14.2811429 8.218527v-18.4168673l14.7017143-8.4602483c.1015043.1754313.1551275.3747836.1554286.5778292zm-15.4331429-9.54914569 13.1291429 7.55551979-13.696 7.8801171-13.696-7.8801171 13.1291429-7.55551979c.3512704-.20209055.7824438-.20209055 1.1337142 0z" fill="#7b8c9c"/></g></g></svg>