<svg height="65" viewBox="0 0 64 65" width="64" xmlns="http://www.w3.org/2000/svg"><g fill="none" fill-rule="evenodd"><circle cx="32" cy="33" fill="#eff4f9" r="32"/><g fill-rule="nonzero" opacity=".498297" transform="translate(8 9)"><path d="m0 0h48v48h-48z" fill="#000" opacity="0"/><path d="m30.7286396 5.62974595c-6.488331 0-11.7751193 5.28678825-11.7751193 11.77511925 0 .7743276.0801029 1.5486551.2403086 2.3229827l.1068038.56072-13.83109246 13.8310924v8.2772947h9.66574416v-4.8061711h4.5124606v-4.5124607h4.4590588v-4.5391616h1.5219542v-.4272152l1.3884494.4539162c1.1748419.4005142 2.4297865.5874209 3.6580303.5874209 6.488331 0 11.7751192-5.2867883 11.7751192-11.7751193.0534019-6.46163-5.2333863-11.74841825-11.7217173-11.74841825zm4.4056568 9.85265075c0 1.3617485-1.1214399 2.4831885-2.4831884 2.4831885s-2.4831884-1.12144-2.4831884-2.4831885c0-1.3617484 1.1214399-2.4831884 2.4831884-2.4831884s2.4831884 1.094739 2.4831884 2.4831884z" fill="#7b8c9c"/></g></g></svg>