<svg height="16" viewBox="0 0 16 16" width="16" xmlns="http://www.w3.org/2000/svg"><g fill="none"><path d="m0 0h16v16h-16z" fill="#000" opacity="0"/><path d="m15.4282386 1h-14.86295352c-.20195691 0-.38857279.10774272-.48955124.28264253s-.10097845.39038527 0 .56528508.28759433.28264253.48955124.28264253h.57160345v12.85412756c-.00072654.0891153.03450343.1747606.09772439.2375713.06311214.0634891.14889301.0992563.23841382.0994093.02943471 0 .05874507-.0038183.08719375-.0113731l5.89084329-1.6874307c.27265251-.0699654.55830403-.0719903.831921-.0058971l6.15537312 1.6920642c.1803985.0416924.3610796-.0682875.4069041-.2476808.0065585-.0258822.0098138-.0524906.0096882-.0791905v-12.85160016h.5716035c.2019569 0 .3885728-.10774272.4895512-.28264253.1009785-.17489981.1009785-.39038527 0-.56528508-.1009784-.17489981-.2875943-.28264253-.4895512-.28264253zm-2.044209 12.916469c-.0309358 0-.0617629-.003661-.0918272-.0109519l-5.0269091-1.4123702c-.26526509-.0643346-.54228026-.062454-.80664747.0054759l-4.74890004 1.3925726c-.10847133.0292476-.22430499.0097113-.31718305-.0534957l-.01727026-.0134792c-.09454879-.0719447-.14990137-.1840532-.14953697-.3028614v-11.39078896h11.54158959v11.40342576c-.0025099.2105132-.1727973.3804262-.3833155.3824731zm-8.82299627-6.07576148 2.02651748 2.100232c.16878652.17344308.40035485.27153688.6423694.27211188h.00210613c.02348498.0003377.04697036-.0006467.07034471-.0029486.23278434-.0175852.4490277-.1269949.60108926-.30412501l3.54630029-4.07030523c.099793-.11621686.1488041-.26760329.1360567-.42025487-.0127474-.15265157-.0861879-.29381253-.2038741-.39186853-.2398508-.20240857-.5967659-.1791598-.8083323.05265323l-3.35337888 3.85126779-1.81421967-1.88203702c-.10650465-.11158371-.25271508-.17666703-.40690415-.18112712-.23509913-.00891372-.45207148.12578448-.54837839.34043776-.09630691.21465329-.05266402.4662798.11030352.63596372z" fill="#e02020"/></g></svg>