<svg height="16" viewBox="0 0 16 16" width="16" xmlns="http://www.w3.org/2000/svg"><g fill="none" fill-rule="evenodd" transform="translate(-1008 -679)"><path d="m0 0h1920v1080h-1920z" fill="#eff4f9" transform="matrix(-1 0 0 1 1920 0)"/><path d="m160 140h1600v918h-1600z" fill="#fff"/><g fill-rule="nonzero" transform="translate(1008 679)"><path d="m0 0h16v16h-16z" fill="#000" opacity="0"/><path d="m12.1633077 5.2830894c.1427477-.17129186.1427477-.39968545 0-.57097731-.1427477-.17129185-.3996721-.14273429-.5709639 0-.1427477.14274767-.1427477.39968545 0 .54243313.1427343.19983603.3996721.19983603.5709639.02854418zm1.199043 2.76921384c-.3140261 0-.5709639.25693778-.5709639.5709773 0 .31403953.2569378.54241974.5709639.54241974s.5709773-.25693778.5709773-.54241974c0-.34258371-.2569378-.5709773-.5709773-.5709773zm-1.9412988 3.59712896c-.2854953.2854953-.2569377.7422691.0285442.9992069.285482.2569378.7422692.2569378.999207-.0285442.2569377-.2854819.2569377-.7422691-.0285576-.9992069-.285482-.285482-.7137116-.2569378-.9991936.0285442zm-3.14035507 1.1704988c-.48533137 0-.88500344.3996854-.88500344.8850034s.39967207.8564593.88500344.8564593c.48533138 0 .88500345-.3996721.88500345-.8850035s-.39967207-.8564592-.88500345-.8564592zm-4.33939808-1.3417907c-.39967207.3996855-.39967207 1.0563087 0 1.4559808.39967207.399672 1.05630869.3996854 1.45598076 0 .39968545-.3996721.39968545-1.0562953 0-1.4559808-.39967207-.4282296-1.02775112-.4282296-1.45598076 0zm.4567872-2.85485976c0-.65662323-.54243313-1.19904297-1.19904298-1.19904297-.65662323 0-1.19904297.54241974-1.19904297 1.19904297s.54241974 1.19904298 1.19904297 1.19904298c.65660985-.02854419 1.19904298-.54241975 1.19904298-1.19904298 0-.02854418 0-.02854418 0 0zm-.68516741-4.5677783c-.51387557.51387556-.51387557 1.37033483 0 1.88421039.51387556.51387556 1.37033482.51387556 1.91275457 0 .51387556-.51387556.51387556-1.37033483 0-1.91276795-.51387557-.51387556-1.37033483-.51387556-1.91275457.02855756zm4.56777829-2.05550224c-.82791508 0-1.5130825.68516741-1.5130825 1.51306912 0 .8279017.68516742 1.5130825 1.5130825 1.5130825.82791509 0 1.5130825-.68516742 1.5130825-1.5130825 0-.82791509-.68516741-1.51306912-1.5130825-1.51306912z" fill="#7b8c9c"/></g></g></svg>