<svg height="54" viewBox="0 0 54 54" width="54" xmlns="http://www.w3.org/2000/svg"><g fill="none" fill-rule="evenodd"><circle cx="27" cy="27" fill="#eefaff" r="27"/><g fill-rule="nonzero" transform="translate(7 7)"><path d="m0 0h40v40h-40z" fill="#fff" opacity="0"/><path d="m8.12 20.7104688h.1zm23.44 9.4095312h3.76c.8 0 1.52.64 1.52 1.52v3.76c0 .8-.64 1.52-1.52 1.52h-3.76c-.8 0-1.52-.64-1.52-1.52v-1.52h-.72c-2.08 0-3.76-1.68-3.76-3.76v-6h-3.76v7.52c0 .8-.64 1.52-1.52 1.52h-15.76c-.8 0-1.52-.64-1.52-1.52v-15.84c0-.8.64-1.52 1.52-1.52h7.52v-6.72h-7.52c-.88 0-1.52-.64-1.52-1.52v-1.52c0-.8.64-1.52 1.52-1.52h30.8c.8 0 1.52.64 1.52 1.52v1.52c0 .8-.64 1.52-1.52 1.52h-22.56v6.8h7.52c.8 0 1.52.64 1.52 1.52v7.44h3.76v-6c0-2.08 1.68-3.76 3.76-3.76h.72v-1.52c0-.8.64-1.52 1.52-1.52h3.76c.8 0 1.52.64 1.52 1.52v3.76c0 .8-.64 1.52-1.52 1.52h-3.76c-.8 0-1.52-.64-1.52-1.52v-1.52h-.72c-1.68 0-3.04 1.36-3.04 3.04v6h3.76v-1.52c0-.8.64-1.52 1.52-1.52h3.76c.8 0 1.52.64 1.52 1.52v3.76c0 .8-.64 1.52-1.52 1.52h-3.76c-.8 0-1.52-.64-1.52-1.52v-1.44h-3.76v6c0 1.68 1.36 3.04 3.04 3.04h.72v-1.52c0-.88.72-1.52 1.52-1.52z" fill="#4988fd"/></g></g></svg>