<svg height="245" viewBox="0 0 391 245" width="391" xmlns="http://www.w3.org/2000/svg" xmlns:xlink="http://www.w3.org/1999/xlink"><mask id="a" fill="#fff"><path d="m0 0h120.544696v125.591481h-120.544696z" fill="#fff" fill-rule="evenodd"/></mask><g fill="none" fill-rule="evenodd"><g fill-rule="nonzero"><path d="m18.7208445 216.431254c49.1191051 53.278409 228.0348905 10.252703 275.7095495-12.047905 83.037365-38.841598 40.838104 59.548297 83.551747 8.052581 31.635262-38.138592 3.691804-136.3939287-63.011137-181.9392656-58.087743-39.6627404-123.131401-39.22796084-199.810825-6.8693232-81.66618 34.463784-149.3007344 135.4672378-96.4393345 192.8039128z" fill="#deecfd" opacity=".200622"/><path d="m145 140.324742c-2.485714 0-4.142857 1.65088-4.142857 4.127199v17.334233c0 1.650879-1.657143 3.301758-2.485714 3.301758h-30.657143v-123.815949c0-1.6508792-.828572-3.3017587-2.485715-4.1271982-5.7999996-1.6508793-10.7714281-4.1271983-15.7428567-5.7780777-11.5999999-4.952638-23.2000001-9.0798362-34.8-13.2070345l-2.4857143-.8254397c-9.1142856-3.3017587-16.5714285-6.6035172-24.0285714-9.07983622h109.3714284c1.657143 0 3.314286 1.65087926 3.314286 3.30175852v33.8430263c0 2.4763189 1.657143 4.1271982 4.142857 4.1271982 2.485715 0 4.142857-1.6508793 4.142857-4.1271982v-33.8430263c0-6.60351723-4.971428-11.5561552-11.6-11.5561552h-133.39999992-.8285713c-.82857149 0-1.65714299.82543973-2.48571429 1.65087926v.82543973c-.82857149.82543972-.82857149.82543972-.82857149 1.65087925v146.92825976c0 6.603517 4.97142857 12.381595 10.7714286 14.857914l83.6857143 31.366707c7.4571431 2.476319 13.2571431-1.650879 13.2571431-9.079836v-14.857914h30.657143c5.8 0 10.771428-4.952638 10.771428-11.556155v-17.334233c0-2.476319-1.657143-4.127198-4.142857-4.127199zm-45.5714286 47.875501c0 1.650879-.8285715 1.650879-2.4857143 1.650879l-83.6857142-31.366707c-2.4857143-1.650879-4.97142855-4.952638-4.97142855-7.428957v-141.15018206c9.11428565 3.30175876 23.20000005 8.25439666 40.59999985 14.85791396l2.4857143.8254397c15.7428572 5.7780777 32.3142857 12.3815949 48.0571429 18.1596724zm-16.5714285-93.2746818v24.7631898c0 2.476319-1.6571428 4.127198-4.1428573 4.127198-2.4857144 0-4.142857-1.650879-4.142857-4.127198v-24.7631898c0-2.476319 1.6571428-4.1271985 4.142857-4.1271985 2.4857143 0 4.1428573 1.6508793 4.1428573 4.1271985zm82.8571431-11.5561554v-4.952638c0-11.5561552-9.114286-20.6359914-20.714286-20.6359914s-20.714286 9.0798362-20.714286 20.6359914v4.952638c-4.971428 1.6508792-8.285714 6.6035172-8.285714 11.5561554v24.7631898c0 6.603517 5.8 12.381595 12.428571 12.381595h33.142858c6.628571 0 12.428571-5.778078 12.428571-12.381595v-24.7631898c0-5.7780777-3.314286-9.905276-8.285714-11.5561554zm-33.142857-4.952638c0-6.6035172 5.8-12.3815949 12.428571-12.3815949s12.428571 5.7780777 12.428571 12.3815949v4.1271984h-24.857142zm33.142857 41.2719832c0 2.476319-1.657143 4.127198-4.142857 4.127198h-33.142858c-2.485714 0-4.142857-1.650879-4.142857-4.127198v-24.7631898c0-2.476319 1.657143-4.1271985 4.142857-4.1271985h33.142858c2.485714 0 4.142857 1.6508793 4.142857 4.1271985z" fill="#d9ebff" transform="translate(109 29)"/><g fill="#6fb3ff" transform="translate(38.528 67.328)"><path d="m24.024 75.6 19.32-30.912c3.528-6.72 6.888-13.608 9.912-20.16h.672c-.336 7.224-1.008 18.48-1.008 25.704v25.368zm66.696 0h-14.784v-73.248h-29.568l-46.368 75.264v16.8h52.92v32.256h23.016v-32.256h14.784z"/><path d="m274.408 129.024c23.688 0 43.68-13.272 43.68-36.12 0-16.296-10.752-26.712-24.864-30.576v-.84c13.272-5.208 20.832-14.952 20.832-28.392 0-21.336-16.296-33.096-40.32-33.096-14.616 0-26.544 5.88-37.296 15.288l12.6 15.12c7.392-6.72 14.616-10.92 23.52-11.088 10.584.168 16.632 5.88 16.632 15.624 0 11.088-7.392 18.984-30.24 18.984v17.808c27.048 0 34.272 7.56 34.272 19.824 0 11.088-8.568 17.304-21.168 17.304-11.256 0-20.328-5.544-27.72-12.768l-11.592 15.624c8.736 9.912 22.008 17.304 41.664 17.304z"/></g></g><path d="m41.2653043 106.703538c-12.8250434-.259436-17.6047826-18.6348264-17.6047826-43.2735215 0-24.638695 4.189087-45.2470482 17.6363479-45.2470482 12.8283913 0 18.9816956 16.6402376 18.9816956 43.9781128 0 26.13691-5.0705217 44.8243889-19.0132609 44.5424569m73.0619997-44.8837435h-42.565217c-.3070435 0-.6064348.0296771-.9010435.0727568-2.7509565-.641887-4.8022174-3.1055651-4.8022174-6.0546073 0-3.4363211 2.7834782-6.2226179 6.2173913-6.2226179h10.3065217c-.0086087-.0813727-.0196087-.1598734-.0282174-.2407675h4.5119131c3.4334348 0 6.2173913-2.7858182 6.2173913-6.2226179 0-3.4363211-2.7839565-6.2226179-6.2173913-6.2226179h-12.2841305c-2.6074782-.7395342-4.5200434-3.1347635-4.5200434-5.9818505 0-3.4363211 2.7834782-6.2226179 6.2173913-6.2226179h.0674348c-.0358696-.0813727-.073174-.1598735-.108087-.2407675h37.888304c3.433435 0 6.217392-2.7858182 6.217392-6.2226179 0-3.4363211-2.783957-6.222618-6.217392-6.222618h-45.5849562c-6.7726521-7.76965644-15.8160869-12.038851-26.9131739-12.038851-27.8859565 0-41.8291739 28.3263141-41.8291739 63.0073572 0 34.681043 15.2273478 62.5842188 41.8291739 62.5842188 3.5486957 0 6.8855218-.462867 10.0071304-1.346h31.9698261c3.4339131 0 6.2173913-2.785818 6.2173913-6.222618 0-3.436321-2.7834782-6.222618-6.2173913-6.222618h-13.9216956c.0196087-.02489.0401739-.049302.0597826-.074671-2.8666957-.553334-5.0336957-3.075888-5.0336957-6.106782 0-3.436321 2.7839566-6.2226175 6.2173913-6.2226175h5.8453044c.0325217-.079458.0636087-.1613094.0956522-.2407674h26.7366954c3.433435 0 6.217392-2.7858182 6.217392-6.222618 0-3.436321-2.783957-6.2226179-6.217392-6.2226179h-27.4033911c-2.6074782-.7395342-4.5200435-3.1347634-4.5200435-5.9818505 0-3.4363211 2.7834783-6.2226179 6.2173913-6.2226179h4.6219131c.0071739-.079458.0119565-.1613094.0191304-.2407675h31.5867388c3.433435 0 6.217392-2.7858181 6.217392-6.2226179 0-3.4363211-2.783957-6.2226179-6.217392-6.2226179" fill="#6fb3ff" mask="url(#a)" transform="translate(139.334113 69.296867)"/></g></svg>