<svg height="245" viewBox="0 0 391 245" width="391" xmlns="http://www.w3.org/2000/svg" xmlns:xlink="http://www.w3.org/1999/xlink"><mask id="a" fill="#fff"><path d="m.33411304.29686674h120.54469596v125.59148026h-120.54469596z" fill="#fff" fill-rule="evenodd"/></mask><g fill="none" fill-rule="evenodd"><g fill-rule="nonzero"><path d="m18.7208445 216.431254c49.1191051 53.278409 228.0348905 10.252703 275.7095495-12.047905 83.037365-38.841598 40.838104 59.548297 83.551747 8.052581 31.635262-38.138592 3.691804-136.3939287-63.011137-181.9392656-58.087743-39.6627404-123.131401-39.22796084-199.810825-6.8693232-81.66618 34.463784-149.3007344 135.4672378-96.4393345 192.8039128z" fill="#deecfd" opacity=".20062156744"/><path d="m74 0h242v242h-242z" fill="#000" opacity="0"/><g fill="#e7f2ff"><path d="m190.081985 46.2539821c0 3.2695241-2.665792 5.9164065-5.944054 5.9164065h-23.78308c-1.576828.0010679-3.089485-.6217542-4.205133-1.7314251-1.114611-1.1100647-1.741375-2.6151896-1.742709-4.1849814 0-3.268581 2.663188-5.9206488 5.948079-5.9206488h23.78308c3.278025-.0002357 5.943817 2.6520678 5.943817 5.9206488zm32.369961 0c0 3.2695241-1.873867 5.9164052-4.186193 5.9164052h-16.730332c-2.31493 0-4.186193-2.6492387-4.186193-5.9164052 0-3.268581 1.871026-5.9206488 4.186193-5.9206488h16.730332c2.312326-.0002357 4.186193 2.6520678 4.186193 5.9206488zm36.333374 24.0110094c0 1.8327677-.730734 3.5905434-2.032353 4.8862848-1.301618 1.2957413-3.067014 2.0232007-4.907466 2.0222008h-68.703099c-3.830123 0-6.935558-3.0924691-6.935558-6.9082498 0-3.8138947 3.105672-6.9065993 6.935558-6.9065993h68.703336c1.840212-.0008934 3.605386.7263305 4.907093 2.0216455 1.301085 1.2954675 2.032489 3.0525202 2.032489 4.884718zm18.498372 24.6685449c0 3.634481-2.95794 6.5814846-6.608844 6.5814846h-103.716124c-3.649721 0-6.607661-2.945589-6.607661-6.5800701 0-3.6330664 2.958177-6.5798346 6.607661-6.5798346h103.713757c3.649483 0 6.608844 2.9444106 6.611211 6.5784201zm5.945475 23.3574816c0 1.832483-.730462 3.590023-2.031306 4.886133-1.300696 1.296271-3.065496 2.024484-4.905673 2.024238h-19.161979c-3.832727 0-6.938399-3.093883-6.938399-6.909192 0-3.815781 3.105435-6.909663 6.938399-6.909663h19.161979c1.839539 0 3.604028.728027 4.905673 2.022823 1.300398 1.296214 2.031306 3.053419 2.031306 4.885661zm-38.317803 0c0 3.817431-4.614472 6.910371-10.319647 6.910371h-132.633577c-5.6949936 0-10.3123067-3.089875-10.3123067-6.910371 0-3.816016 4.6170763-6.908484 10.3123067-6.908484h132.633577c5.705175.000235 10.319647 3.092703 10.319647 6.908484z"/><path d="m203.402443 147.394563c0 2.098558-.834461 4.111272-2.319859 5.596013-1.486213 1.483949-3.50199 2.317636-5.603861 2.317636h-113.5550314c-2.830346-.000305-5.4456408-1.507824-6.8611518-3.954935-1.4167197-2.447248-1.4167197-5.463565 0-7.910814 1.4148287-2.447976 4.0303953-3.956193 6.8611518-3.956352h113.5550314c2.101242-.000332 4.116535.832851 5.602442 2.316219 1.486423 1.482627 2.321278 3.494446 2.321278 5.592233zm101.673946 27.946519c-.00142 4.329121-3.51516 7.838056-7.851321 7.839474h-94.553244c-4.257137-.110792-7.649029-3.588545-7.649029-7.839474 0-4.251164 3.391892-7.728209 7.649029-7.839473h94.550878c4.335924.002363 7.851084 3.510589 7.853687 7.839473z"/><path d="m289.178486 201.667298c0 2.007308-.597234 3.932329-1.660449 5.35095-1.063647 1.416735-2.504681 2.211886-4.006797 2.210918h-105.537882c-3.126414 0-5.660858-3.385586-5.660858-7.561868s2.534444-7.563131 5.660858-7.563131h105.538118c3.129963 0 5.66701 3.384953 5.66701 7.563131zm21.779847 0c0 4.174386-2.533261 7.559971-5.659675 7.561867h-4.520216c-3.127834 0-5.662278-3.385585-5.662278-7.561867s2.534444-7.563131 5.662278-7.563131h4.51998c3.122865 0 5.659911 3.384953 5.659911 7.563131z"/></g></g><g fill="#6fb3ff" transform="translate(40 69)"><path d="m0 76.8693735v16.5224101h50.8258483v32.6082164h22.6822995v-32.6082164h14.4918522v-18.9134269h-14.7020099l.4203155-73.26173221-29.1933866-.21662449zm23.1026151-2.6081205 28.5629133-50.8703321-.8396801 51.3050188z"/><path d="m224 76.8693735v16.5224101h50.825848v32.6082164h22.6823v-32.6082164h14.491852v-18.9134269h-14.70201l.420316-73.26173221-29.193387-.21662449zm23.102615-2.6081205 28.563389-50.8703321-.840156 51.3050188z"/><path d="m41.5994174 107.000404c-12.8250435-.259435-17.6047826-18.6348257-17.6047826-43.2735207s4.1890869-45.2470483 17.6363478-45.2470483c12.8283913 0 18.9816957 16.6402377 18.9816957 43.9781129 0 26.1369099-5.0705218 44.8243891-19.0132609 44.5424561m73.0619996-44.8837428h-42.565217c-.3070435 0-.6064348.0296771-.9010435.0727568-2.7509565-.641887-4.8022174-3.105565-4.8022174-6.0546073 0-3.436321 2.7834783-6.2226179 6.2173913-6.2226179h10.3065218c-.0086087-.0813727-.0196087-.1598734-.0282174-.2407674h4.511913c3.4334348 0 6.2173913-2.7858182 6.2173913-6.222618 0-3.436321-2.7839565-6.2226179-6.2173913-6.2226179h-12.2841304c-2.6074783-.7395342-4.5200435-3.1347634-4.5200435-5.9818505 0-3.4363211 2.7834783-6.2226179 6.2173913-6.2226179h.0674348c-.0358696-.0813727-.0731739-.1598734-.108087-.2407675h37.888304c3.433435 0 6.217392-2.7858181 6.217392-6.2226179 0-3.4363211-2.783957-6.2226179-6.217392-6.2226179h-45.5849561c-6.7726522-7.7696565-15.816087-12.03885106-26.9131739-12.03885106-27.8859566 0-41.82917396 28.32631416-41.82917396 63.00735716 0 34.6810431 15.22734786 62.5842191 41.82917396 62.5842191 3.5486956 0 6.8855217-.462867 10.0071304-1.346h31.9698261c3.433913 0 6.2173913-2.785818 6.2173913-6.222618 0-3.436321-2.7834783-6.222618-6.2173913-6.222618h-13.9216957c.0196087-.02489.0401739-.049302.0597826-.074671-2.8666956-.553335-5.0336956-3.075888-5.0336956-6.106782 0-3.436321 2.7839565-6.2226177 6.2173913-6.2226177h5.8453043c.0325218-.0794581.0636087-.1613094.0956522-.2407675h26.7366954c3.433435 0 6.217392-2.7858182 6.217392-6.2226179 0-3.4363211-2.783957-6.2226179-6.217392-6.2226179h-27.403391c-2.6074783-.7395343-4.5200435-3.1347635-4.5200435-5.9818505 0-3.4363211 2.7834782-6.222618 6.2173913-6.222618h4.621913c.0071739-.079458.0119565-.1613094.0191305-.2407674h31.5867387c3.433435 0 6.217392-2.7858182 6.217392-6.2226179 0-3.4363211-2.783957-6.222618-6.217392-6.222618" mask="url(#a)" transform="translate(99)"/></g></g></svg>