<svg height="245" viewBox="0 0 391 245" width="391" xmlns="http://www.w3.org/2000/svg" xmlns:xlink="http://www.w3.org/1999/xlink"><mask id="a" fill="#fff"><path d="m0 .63081188h219.32313v109.07546412h-219.32313z" fill="#fff" fill-rule="evenodd"/></mask><mask id="b" fill="#fff"><path d="m.33314917.328299h121.67678683v108.352342h-121.67678683z" fill="#fff" fill-rule="evenodd"/></mask><g fill="none" fill-rule="evenodd"><g fill-rule="nonzero" transform="translate(0 -2)"><path d="m18.7208445 216.431254c49.1191051 53.278409 228.0348905 10.252703 275.7095495-12.047905 83.037365-38.841598 40.838104 59.548297 83.551747 8.052581 31.635262-38.138592 3.691804-136.3939287-63.011137-181.9392656-58.087743-39.6627404-123.131401-39.22796084-199.810825-6.8693232-81.66618 34.463784-149.3007344 135.4672378-96.4393345 192.8039128z" fill="#deecfd" opacity=".200622"/><path d="m74 0h242v242h-242z" fill="#000" opacity="0"/><g fill="#e7f2ff"><path d="m190.081985 46.2539821c0 3.2695241-2.665792 5.9164065-5.944054 5.9164065h-23.78308c-1.576828.0010679-3.089485-.6217542-4.205133-1.7314251-1.114611-1.1100647-1.741375-2.6151896-1.742709-4.1849814 0-3.268581 2.663188-5.9206488 5.948079-5.9206488h23.78308c3.278025-.0002357 5.943817 2.6520678 5.943817 5.9206488zm32.369961 0c0 3.2695241-1.873867 5.9164052-4.186193 5.9164052h-16.730332c-2.31493 0-4.186193-2.6492387-4.186193-5.9164052 0-3.268581 1.871026-5.9206488 4.186193-5.9206488h16.730332c2.312326-.0002357 4.186193 2.6520678 4.186193 5.9206488zm36.333374 24.0110094c0 1.8327677-.730734 3.5905434-2.032353 4.8862848-1.301618 1.2957413-3.067014 2.0232007-4.907466 2.0222008h-68.703099c-3.830123 0-6.935558-3.0924691-6.935558-6.9082498 0-3.8138947 3.105672-6.9065993 6.935558-6.9065993h68.703336c1.840212-.0008934 3.605386.7263305 4.907093 2.0216455 1.301085 1.2954675 2.032489 3.0525202 2.032489 4.884718zm18.498372 24.6685449c0 3.634481-2.95794 6.5814846-6.608844 6.5814846h-103.716124c-3.649721 0-6.607661-2.945589-6.607661-6.5800701 0-3.6330664 2.958177-6.5798346 6.607661-6.5798346h103.713757c3.649483 0 6.608844 2.9444106 6.611211 6.5784201zm5.945475 23.3574816c0 1.832483-.730462 3.590023-2.031306 4.886133-1.300696 1.296271-3.065496 2.024484-4.905673 2.024238h-19.161979c-3.832727 0-6.938399-3.093883-6.938399-6.909192 0-3.815781 3.105435-6.909663 6.938399-6.909663h19.161979c1.839539 0 3.604028.728027 4.905673 2.022823 1.300398 1.296214 2.031306 3.053419 2.031306 4.885661zm-38.317803 0c0 3.817431-4.614472 6.910371-10.319647 6.910371h-132.633577c-5.6949936 0-10.3123067-3.089875-10.3123067-6.910371 0-3.816016 4.6170763-6.908484 10.3123067-6.908484h132.633577c5.705175.000235 10.319647 3.092703 10.319647 6.908484z"/><path d="m203.402443 147.394563c0 2.098558-.834461 4.111272-2.319859 5.596013-1.486213 1.483949-3.50199 2.317636-5.603861 2.317636h-113.5550314c-2.830346-.000305-5.4456408-1.507824-6.8611518-3.954935-1.4167197-2.447248-1.4167197-5.463565 0-7.910814 1.4148287-2.447976 4.0303953-3.956193 6.8611518-3.956352h113.5550314c2.101242-.000332 4.116535.832851 5.602442 2.316219 1.486423 1.482627 2.321278 3.494446 2.321278 5.592233zm101.673946 27.946519c-.00142 4.329121-3.51516 7.838056-7.851321 7.839474h-94.553244c-4.257137-.110792-7.649029-3.588545-7.649029-7.839474 0-4.251164 3.391892-7.728209 7.649029-7.839473h94.550878c4.335924.002363 7.851084 3.510589 7.853687 7.839473z"/><path d="m289.178486 201.667298c0 2.007308-.597234 3.932329-1.660449 5.35095-1.063647 1.416735-2.504681 2.211886-4.006797 2.210918h-105.537882c-3.126414 0-5.660858-3.385586-5.660858-7.561868s2.534444-7.563131 5.660858-7.563131h105.538118c3.129963 0 5.66701 3.384953 5.66701 7.563131zm21.779847 0c0 4.174386-2.533261 7.559971-5.659675 7.561867h-4.520216c-3.127834 0-5.662278-3.385585-5.662278-7.561867s2.534444-7.563131 5.662278-7.563131h4.51998c3.122865 0 5.659911 3.384953 5.659911 7.563131z"/></g></g><g transform="translate(17 82.5)"><path d="m113.998073 77.5314422h-12.8529c-1.9560857 0-3.5561434-1.590743-3.5561434-3.5346035s1.6000577-3.5346035 3.5561434-3.5346035h12.8529c1.956086 0 3.556834 1.590743 3.556834 3.5346035s-1.600748 3.5346035-3.556834 3.5346035m51.742789-76.48868274c-.092457-.00685665-.180775-.02811227-.274612-.02811227h-49.443093c-1.956086 0-3.556834 1.590743-3.556834 3.53528917 0 1.94386052 1.600748 3.53391785 3.556834 3.53391785h21.652182 8.665427c1.956086 0 3.556833 1.59074299 3.556833 3.53528919 0 1.9438605-1.600747 3.5339178-3.556833 3.5339178h-18.497606-22.514653c-1.956087 0-3.556834 1.590743-3.556834 3.5346035 0 1.9445462 1.600747 3.5346035 3.556834 3.5346035h15.961248c-7.111598 9.1721419-11.341849 20.6638887-11.341849 33.1388792 0 2.8400248.220792 5.6286247.643748 8.3507151h-8.84689c-3.3850296-16.329114-18.0173813-28.7087971-35.4172324-28.7087971h-19.9955463v-7.8714352h44.3862489c3.0359007 0 5.5198195-2.4683943 5.5198195-5.4853206v-15.53031419c0-3.01692636-2.4839188-5.48532067-5.5198195-5.48532067h-84.28074466c-1.89743797 0-3.44988721 1.54274644-3.44988721 3.42832542s1.55244924 3.42832542 3.44988721 3.42832542h27.14371256c1.2626588 0 2.2976249 1.02849763 2.2976249 2.28326473v2.28326469c0 1.2616238-1.0349661 2.2901214-2.2976249 2.2901214h-20.5130293c-1.897438 0-3.44988725 1.5427465-3.44988725 3.4283254 0 1.885579 1.55244925 3.4283255 3.44988725 3.4283255h3.9880696c1.1177634.0205699 2.0354334.9325045 2.0354334 2.0569952v3.8740077h.2414921v7.8714352h-.2414921v19.795151c0 1.1244907-.91767 2.0364253-2.0354334 2.0569952h-7.29996136c-1.89743797 0-3.44988721 1.5427465-3.44988721 3.4283254 0 1.885579 1.55244924 3.4283255 3.44988721 3.4283255h72.81331956c1.897438 0 3.4498872 1.5427464 3.4498872 3.4283254s-1.5524492 3.4283254-3.4498872 3.4283254h-14.2618338c-1.8974379 0-3.4498872 1.5427464-3.4498872 3.4283254s1.5524493 3.4283254 3.4498872 3.4283254h8.3970255c1.897438 0 3.4498872 1.5427465 3.4498872 3.4283255 0 1.8855789-1.5524492 3.4283254-3.4498872 3.4283254h-73.25490509c-1.89743796 0-3.44988721 1.5427464-3.44988721 3.4283254s1.55244925 3.4283254 3.44988721 3.4283254h48.18802459c1.2143603.5348188 2.0630326 1.7347327 2.0630326 3.1334894 0 1.6455962-1.1867612 3.0306397-2.75301 3.3529023h-29.5586337c-1.1384628 0-2.0699323.9256479-2.0699323 2.0569953v.9667882c0 .575958-.2276926 1.117634-.5933806 1.515319-.2897905.32912-.6768679.575959-1.1108637.685665h-2.8979052c-.1586949 0-.3104899.006857-.4553852.034284-.3311891.04114-.641679.130276-.9383693.260552-1.2074605.534819-2.0561328 1.74159-2.0561328 3.13349 0 1.885579 1.5524493 3.428325 3.4498873 3.428325h51.6103127c16.21033 0 30.006429-10.7471142 34.5554504-25.424461h17.460569c9.681074 15.2704471 26.788374 25.424461 46.292657 25.424461 30.202382 0 54.686922-24.3315109 54.686922-54.3451286 0-29.6461012-23.891159-53.73145863-53.582268-54.31838794" fill="#6fb3ff" mask="url(#a)" transform="translate(0 .512647)"/><path d="m122.010143 54.5048119c0-29.9208008-24.4612687-54.1765129-54.6356357-54.1765129-15.8454374 0-30.1068135 6.69585063-40.0847447 17.3821439h-23.4031602c-1.95422695 0-3.55345323 1.5851039-3.55345323 3.5235923 0 1.9378048 1.59922628 3.5229087 3.55345323 3.5229087h28.5034512c1.4000124.4736857 2.4208978 1.7792262 2.4208978 3.3226348 0 1.9378048-1.5992263 3.5235922-3.5534533 3.5235922h-13.3983454-6.7236436c-1.95422692 0-3.55276388 1.5851039-3.55276388 3.5229088 0 1.9384884 1.59853696 3.5242758 3.55276388 3.5242758h3.9925512c-1.5495952 5.0143692-2.3898783 10.3356429-2.3898783 15.8544564 0 12.4354442 4.2269205 23.8913911 11.331759 33.0349593h-20.17230945c-1.95422695 0-3.55276392 1.5851039-3.55276392 3.5235923 0 1.9378049 1.59853697 3.5235923 3.55276392 3.5235923h26.71948675 19.5746676c1.9542269 0 3.5541425 1.5851038 3.5541425 3.5235922 0 1.937805-1.5999156 3.523592-3.5541425 3.523592h-9.7518337-21.032583c-1.9542269 0-3.5527639 1.585788-3.5527639 3.522909 0 1.938488 1.598537 3.523592 3.5527639 3.523592h49.3961019c.1626799 0 .317088-.025974.4742533-.047163 29.2906566-.996586 52.7324186-24.8408131 52.7324186-54.1286661" fill="#6fb3ff" mask="url(#b)" transform="translate(214.286359 1.53794)"/><g fill="#f8fafb"><path d="m154.64479 56.425362c0-4.2720686-2.213113-7.1769111-5.464227-7.1769111-3.251115 0-5.428912 2.9048425-5.428912 7.1769111 0 4.2713843 2.177797 7.1084812 5.428912 7.1084812 3.251114 0 5.464227-2.8370969 5.464227-7.1084812m-14.179569 0c0-6.1860484 4.116001-9.774504 8.715342-9.774504 4.59934 0 8.714649 3.5884556 8.714649 9.774504 0 6.1511492-4.115309 9.7060741-8.714649 9.7060741-4.599341 0-8.715342-3.5549249-8.715342-9.7060741"/><path d="m161.996386 39.473803h3.224886v7.5812251l-.106432 3.8947177c1.771735-1.7388003 3.755625-3.1642405 6.378816-3.1642405 4.039444 0 5.882134 2.5737308 5.882134 7.4078325v11.9633919h-3.224885v-11.5462748c0-3.5472362-1.098377-5.042312-3.649904-5.042312-1.984599 0-3.331317.9735053-5.279729 2.8863946v13.7021922h-3.224886z"/><path d="m182.502258 63.6048617c0-1.5015741.93183-2.5998935 2.050898-2.5998935 1.118446 0 2.050276 1.0983194 2.050276 2.5998935s-.93183 2.5265744-2.050276 2.5265744c-1.119068 0-2.050898-1.0250003-2.050898-2.5265744"/><path d="m191.7299 63.6048617c0-1.5015741.931831-2.5998935 2.050898-2.5998935 1.118446 0 2.050276 1.0983194 2.050276 2.5998935s-.93183 2.5265744-2.050276 2.5265744c-1.119067 0-2.050898-1.0250003-2.050898-2.5265744"/><path d="m290.158084 36.184144c0-3.8295614-2.999144-6.9632769-6.664763-6.9632769-3.66491 0-6.664054 3.1337155-6.664054 6.9632769l3.375014 26.0739171h.029842c.179054 1.5995508 1.561033 2.8480814 3.259198 2.8480814 1.698875 0 3.080854-1.2485306 3.259907-2.8480814h.029843z"/><path d="m288.107497 77.4096655c0 2.831275-2.295193 5.126468-5.126468 5.126468-2.830543 0-5.126468-2.295193-5.126468-5.126468s2.295925-5.1264679 5.126468-5.1264679c2.831275 0 5.126468 2.2951929 5.126468 5.1264679"/></g></g></g></svg>