<svg height="242" viewBox="0 0 394 242" width="394" xmlns="http://www.w3.org/2000/svg" xmlns:xlink="http://www.w3.org/1999/xlink"><filter id="a" height="3000%" width="118.1%" x="-9%" y="-1450%"><feGaussianBlur in="SourceGraphic" stdDeviation="10 0"/></filter><g fill="none" fill-rule="evenodd" transform="translate(-3)"><path d="m29 73h332" filter="url(#a)" opacity=".101517"/><g fill-rule="nonzero"><g><path d="m18.7208445 216.431254c49.1191051 53.278409 228.0348905 10.252703 275.7095495-12.047905 83.037365-38.841598 40.838104 59.548297 83.551747 8.052581 31.635262-38.138592 3.691804-136.3939287-63.011137-181.9392656-58.087743-39.6627404-123.131401-39.22796084-199.810825-6.8693232-81.66618 34.463784-149.3007344 135.4672378-96.4393345 192.8039128z" fill="#deecfd" opacity=".20062156744"/><path d="m74 0h242v242h-242z" fill="#000" opacity="0"/><g fill="#e7f2ff"><path d="m190.081985 46.2539821c0 3.2695241-2.665792 5.9164065-5.944054 5.9164065h-23.78308c-1.576828.0010679-3.089485-.6217542-4.205133-1.7314251-1.114611-1.1100647-1.741375-2.6151896-1.742709-4.1849814 0-3.268581 2.663188-5.9206488 5.948079-5.9206488h23.78308c3.278025-.0002357 5.943817 2.6520678 5.943817 5.9206488zm32.369961 0c0 3.2695241-1.873867 5.9164052-4.186193 5.9164052h-16.730332c-2.31493 0-4.186193-2.6492387-4.186193-5.9164052 0-3.268581 1.871026-5.9206488 4.186193-5.9206488h16.730332c2.312326-.0002357 4.186193 2.6520678 4.186193 5.9206488zm36.333374 24.0110094c0 1.8327677-.730734 3.5905434-2.032353 4.8862848-1.301618 1.2957413-3.067014 2.0232007-4.907466 2.0222008h-68.703099c-3.830123 0-6.935558-3.0924691-6.935558-6.9082498 0-3.8138947 3.105672-6.9065993 6.935558-6.9065993h68.703336c1.840212-.0008934 3.605386.7263305 4.907093 2.0216455 1.301085 1.2954675 2.032489 3.0525202 2.032489 4.884718zm18.498372 24.6685449c0 3.634481-2.95794 6.5814846-6.608844 6.5814846h-103.716124c-3.649721 0-6.607661-2.945589-6.607661-6.5800701 0-3.6330664 2.958177-6.5798346 6.607661-6.5798346h103.713757c3.649483 0 6.608844 2.9444106 6.611211 6.5784201zm5.945475 23.3574816c0 1.832483-.730462 3.590023-2.031306 4.886133-1.300696 1.296271-3.065496 2.024484-4.905673 2.024238h-19.161979c-3.832727 0-6.938399-3.093883-6.938399-6.909192 0-3.815781 3.105435-6.909663 6.938399-6.909663h19.161979c1.839539 0 3.604028.728027 4.905673 2.022823 1.300398 1.296214 2.031306 3.053419 2.031306 4.885661zm-38.317803 0c0 3.817431-4.614472 6.910371-10.319647 6.910371h-132.633577c-5.6949936 0-10.3123067-3.089875-10.3123067-6.910371 0-3.816016 4.6170763-6.908484 10.3123067-6.908484h132.633577c5.705175.000235 10.319647 3.092703 10.319647 6.908484z"/><path d="m203.402443 147.394563c0 2.098558-.834461 4.111272-2.319859 5.596013-1.486213 1.483949-3.50199 2.317636-5.603861 2.317636h-113.5550314c-2.830346-.000305-5.4456408-1.507824-6.8611518-3.954935-1.4167197-2.447248-1.4167197-5.463565 0-7.910814 1.4148287-2.447976 4.0303953-3.956193 6.8611518-3.956352h113.5550314c2.101242-.000332 4.116535.832851 5.602442 2.316219 1.486423 1.482627 2.321278 3.494446 2.321278 5.592233zm101.673946 27.946519c-.00142 4.329121-3.51516 7.838056-7.851321 7.839474h-94.553244c-4.257137-.110792-7.649029-3.588545-7.649029-7.839474 0-4.251164 3.391892-7.728209 7.649029-7.839473h94.550878c4.335924.002363 7.851084 3.510589 7.853687 7.839473z"/><path d="m289.178486 201.667298c0 2.007308-.597234 3.932329-1.660449 5.35095-1.063647 1.416735-2.504681 2.211886-4.006797 2.210918h-105.537882c-3.126414 0-5.660858-3.385586-5.660858-7.561868s2.534444-7.563131 5.660858-7.563131h105.538118c3.129963 0 5.66701 3.384953 5.66701 7.563131zm21.779847 0c0 4.174386-2.533261 7.559971-5.659675 7.561867h-4.520216c-3.127834 0-5.662278-3.385585-5.662278-7.561867s2.534444-7.563131 5.662278-7.563131h4.51998c3.122865 0 5.659911 3.384953 5.659911 7.563131z"/></g></g><g transform="translate(100 32)"><path d="m0 0h190v190h-190z" fill="#000" opacity="0"/><g fill="#a2ceff" stroke="#9cd1f5"><path d="m156.686231 34.3761346c8.705884 8.7061583 4.102879 27.6577979-12.617976 52.009108-.989807 1.4931618-2.707758 2.3366339-4.494435 2.206658-1.786678-.1299759-.741315-2.5355267-1.504611-4.1562219-.763296-1.6206953-3.216654-2.2047183-2.178929-3.664982 14.207263-20.6928713 17.687765-35.4729643 13.78123-39.3796213-2.40801-2.4080864-10.408162-2.5414573-24.993298 5.0440147-14.386937 7.481739-30.8910718 20.1834683-46.4746053 35.763787s-28.2867159 32.0942339-35.7663674 46.4797709c-7.5852335 14.587447-7.4592761 22.580441-5.0457085 24.995937 3.8898634 3.889985 18.5713191.453831 39.1320254-13.61495 1.4617226-1.057795 1.5958382.854147 3.229154 1.620834s4.508224.267197 4.6284035 2.067545-.7466442 3.523977-2.2635635 4.500967c-16.1447853 11.051264-29.9130492 16.751019-39.8655425 16.751019-4.9697635 0-8.9874367-1.422623-11.8733448-4.308622-6.7942947-6.788951-5.6606773-19.440667 3.254519-36.589946 7.9371736-15.26171 21.2738479-32.6314225 37.5557046-48.9137909 16.2818566-16.2823685 33.6510225-29.6194621 48.9122535-37.5550328 17.146888-8.9191814 29.798205-10.0435724 36.585091-3.2564737zm-14.64936 56.6238654c2.74106 0 4.963129 2.2385763 4.963129 5s-2.222069 5-4.963129 5h-47.0737419c-2.7410605 0-4.9631291-2.2385763-4.9631291-5s2.2220686-5 4.9631291-5z"/><path d="m93.5009318 152c-29.5001481 0-53.5009318-24.000366-53.5009318-53.5 0-29.4996343 24.0007837-53.5 53.5009318-53.5 30.5008792 0 53.4990682 21.6355498 53.4990682 50.3338674 0 2.7561912-2.234373 4.9905256-4.990613 4.9905256-2.756239 0-4.990612-2.2343344-4.990612-4.9905256 0-23.0089693-18.708275-40.3584067-43.5178432-40.3584067-23.9970566 0-43.5197067 19.52231-43.5197067 43.5189487 0 23.9966386 19.5226501 43.5245396 43.5197067 43.5245396 12.1063392-.017709 23.6620032-5.060486 31.9078672-13.924275 1.880155-1.994161 5.016705-2.098957 7.025777-.234738 2.009071 1.864218 2.138787 4.999782.290558 7.023567-10.136057 10.896922-24.341788 17.095961-39.2242022 17.116497z"/></g></g></g></g></svg>