<svg height="279" viewBox="0 0 416 279" width="416" xmlns="http://www.w3.org/2000/svg"><g fill="none"><path d="m19.9178295 216.431254c52.2597127 53.278409 242.6151265 10.252703 293.3380375-12.047905 88.346659-38.841598 43.449236 59.548297 88.89393 8.052581 33.657977-38.138592 3.927852-136.3939287-67.039982-181.9392656-61.801793-39.6627404-131.004253-39.22796084-212.586453-6.8693232-86.887803 34.463784-158.8468174 135.4672378-102.6055325 192.8039128z" fill="#deecfd" opacity=".200622" transform="translate(0 18)"/><path d="m58 0h274v242h-274z" fill="#000" opacity="0"/><g fill="#e7f2ff"><path d="m211 46.0021504c0 3.3145311-3.512048 5.9978496-7.830994 5.9978496h-31.333021c-2.077393.0010825-4.070243-.6303131-5.540054-1.7552593-1.468444-1.1253454-2.294174-2.6511894-2.295931-4.2425903 0-3.3135752 3.508617-6.0021504 7.836296-6.0021504h31.333022c4.318634-.000239 7.830682 2.6885752 7.830682 6.0021504zm43 .0000007c0 3.3145315-2.463383 5.9978489-5.503164 5.9978489h-21.993672c-3.043204 0-5.503164-2.6857075-5.503164-5.9978489 0-3.3135756 2.459649-6.0021511 5.503164-6.0021511h21.993672c3.039781-.000239 5.503164 2.6885755 5.503164 6.0021511zm49 23.9967737c0 1.857331-.973387 3.6386649-2.707229 4.9517722s-4.085466 2.0503163-6.53707 2.049303h-91.517079c-5.101977 0-9.238622-3.1339153-9.238622-7.0008363 0-3.8650097 4.13696-6.9991637 9.238622-6.9991637h91.517394c2.451285-.0009054 4.802614.736065 6.536574 2.0487403 1.73313 1.3128297 2.70741 3.093431 2.70741 4.9501845zm24 24.4995614c0 3.5903187-3.920897 6.5015138-8.760351 6.5015138h-137.480867c-4.837885 0-8.758782-2.9097977-8.758782-6.5001164 0-3.5889214 3.92121-6.4998836 8.758782-6.4998836h137.477729c4.837571 0 8.760351 2.9086333 8.763489 6.4984862zm8 23.5005588c0 1.856503-.950737 3.637082-2.643859 4.950182-1.692931 1.313263-3.989919 2.051022-6.385013 2.050773h-24.940407c-4.988513 0-9.030721-3.134439-9.030721-6.999761 0-3.8658 4.0419-7.000239 9.030721-7.000239h24.940407c2.394264 0 4.690847.737571 6.385013 2.04934 1.692541 1.313205 2.643859 3.093444 2.643859 4.949705zm-50 0c0 3.867472-6.14197 7.000955-13.73569 7.000955h-176.5383887c-7.5801698 0-13.7259213-3.130378-13.7259213-7.000955 0-3.866039 6.1454363-6.999045 13.7259213-6.999045h176.5383887c7.59372.000239 13.73569 3.133245 13.73569 6.999045z"/><path d="m230 146.997372c0 2.122154-1.109155 4.157498-3.083526 5.658933-1.975455 1.500634-4.654799 2.343695-7.448578 2.343695h-150.935831c-3.762058-.000308-7.238273-1.524778-9.1197513-3.999403-1.8830849-2.474764-1.8830849-5.524996 0-7.999761 1.8805714-2.475501 5.3571477-4.000675 9.1197513-4.000836h150.935831c2.792944-.000336 5.471644.842215 7.446691 2.342262 1.975734 1.499297 3.085413 3.533737 3.085413 5.65511zm134 28.002628c-.001883 4.417767-4.663304 7.998554-10.41577 8h-125.436827c-5.64763-.11306-10.147403-3.662026-10.147403-8 0-4.338215 4.499773-7.886458 10.147403-8h125.433689c5.752151.002411 10.415455 3.582475 10.418908 8z"/><path d="m342 201.500626c0 1.99072-.787004 3.899831-2.188054 5.306728-1.401619 1.405027-3.30054 2.193606-5.279952 2.192646h-139.072406c-4.119827 0-7.459588-3.357606-7.459588-7.499374 0-4.141767 3.339761-7.500626 7.459588-7.500626h139.072717c4.124505 0 7.467695 3.356978 7.467695 7.500626zm29 .000001c0 4.139887-3.35803 7.497493-7.50233 7.499373h-5.99189c-4.146181 0-7.50578-3.357606-7.50578-7.499373 0-4.141768 3.359599-7.500627 7.50578-7.500627h5.991577c4.139595 0 7.502643 3.356979 7.502643 7.500627z"/></g><g transform="translate(106 76)"><path d="m.453333 0h203.093333v203h-203.093333z" fill="#000" opacity="0"/><g stroke="#9cd1f5"><path d="m190.853333 12.7443946h-177.7066663c-7.19288899 0-12.69333337 5.522571-12.69333337 12.7443946v118.9476828c0 7.221824 5.50044438 12.744395 12.69333337 12.744395h84.6222223v25.488789h-25.3866667c-2.1155556 0-4.2311111 2.124066-4.2311113 4.248132s2.1155557 4.248131 4.2311113 4.248131h59.2355557c2.115555 0 4.231111-2.124066 4.231111-4.248131 0-2.124066-2.115556-4.248132-4.231111-4.248132h-25.386667v-25.488789h84.622222c7.192889 0 12.693334-5.522571 12.693334-12.744395v-118.9476828c0-7.2218236-5.500445-12.7443946-12.693334-12.7443946z" fill="#fff"/><path d="m195.386667 144.133034c0 2.548879-1.689697 4.248132-4.224243 4.248132h-177.4181816c-2.5345455 0-4.2242424-1.699253-4.2242424-4.248132v-118.9476828c0-2.5488789 1.6896969-4.2481315 4.2242424-4.2481315h177.4181816c2.534546 0 4.224243 1.6992526 4.224243 4.2481315z" fill="#a2ceff"/></g></g><g transform="translate(174 127)"><path d="m0 0h67v67h-67z" fill="#000" opacity="0"/><g fill="#fff"><path d="m6.46406904 52.9008787c3.81733296 2.3137017 7.93803026 2.9096977 12.22445426 1.7598752 4.2864239-1.1526338 7.556016-3.7249753 9.7048458-7.6411191.3785232-.6611421.3711756-1.4752496-.0192189-2.1294402-.3903945-.6541907-1.1030864-1.0466654-1.86417-1.0265861s-1.4521261.4495879-1.8075423 1.1234549c-1.59828 2.912509-3.9324991 4.7511006-7.1065876 5.6001138-3.1740885.8518245-6.1122271.4273179-8.94924429-1.293199-.64410054-.3983731-1.45226165-.4201631-2.11685837-.0570757s-1.08339299 1.0551978-1.09697484 1.8128807c-.01358184.7576829.38014006 1.4643828 1.03129624 1.8510955zm54.07186196-37.896352c-3.817333-2.3137017-7.9380303-2.9096977-12.2244543-1.7598752-4.2864239 1.1526339-7.556016 3.7249753-9.7048458 7.6411191-.3785232.6611421-.3711756 1.4752496.0192189 2.1294402.3903945.6541907 1.1030864 1.0466654 1.86417 1.0265861s1.4521261-.4495879 1.8075423-1.1234549c1.59828-2.912509 3.9324991-4.7511006 7.1065876-5.6001138 3.1740885-.8518245 6.1122271-.4273179 8.9492443 1.293199.6441005.3983731 1.4522616.4201631 2.1168584.0570757.6645967-.3630874 1.083393-1.0551978 1.0969748-1.8128807s-.3801401-1.4643827-1.0312962-1.8510955z"/><path d="m20.8915839 41.7088474 2.6514691-8.234045c.130874-.4052871.4388629-.7299039.8378581-.8830925.3989951-.1531885.8461824-.1185112 1.2165354.094337l12.4904855 7.1748588c.3713516.212969.6257226.5820197.6917157 1.0035658.065993.4215461-.0635051.8501508-.3521465 1.1655121l-5.8377598 6.4001882c-.4474447.4905655-1.1778662.6043258-1.7544407.2732474l-9.3041949-5.3494531c-.5757432-.3314137-.8419056-1.0172677-.6395219-1.6479357zm7.2299933-16.1413198 6.2791997-6.1494765c.452847-.4435641 1.1471625-.5322662 1.6978458-.2169079l8.4637612 4.8649319c.5515055.3167806.8225135.9612695.6621599 1.5746941l-2.2071995 8.4875736c-.1105743.4260567-.4148209.7761844-.8224291.9464532s-.8717315.1411096-1.2546023-.0788221l-12.5357614-7.2058457c-.3830047-.2201942-.6405395-.6060156-.6960821-1.0428234-.0555425-.4368078.0972981-.8743412.4131078-1.1825942z"/><path d="m30.6832137 35.3773771 1.3992535-2.4572968c.2539422-.4392069.2563191-.9827048.0062285-1.424178-.2500905-.4414732-.7143024-.7132308-1.2164174-.7121151-.502115.0011226-.9651441.2749468-1.2133182.7175305l-1.3992534 2.4572968c-.2539412.4392068-.2563175.982704-.006227 1.4241765.2500906.4414725.7143019.7132298 1.2164163.7121144.5021144-.0011222.9651432-.2749455 1.2133177-.7175283zm4.8470141 2.8375252 1.3992535-2.4572968c.2539422-.4392069.2563191-.9827048.0062285-1.424178-.2500905-.4414731-.7143024-.7132308-1.2164174-.7121151-.502115.0011226-.9651441.2749468-1.2133181.7175305l-1.3992536 2.4572968c-.2539403.4392068-.2563162.9827035-.0062257 1.4241755.2500906.441472.7143014.713229 1.2164154.7121138.502114-.001122.9651426-.2749447 1.2133174-.7175267z"/><path d="m33.5 67c18.500375 0 33.5-14.999625 33.5-33.5s-14.999625-33.5-33.5-33.5-33.5 14.999625-33.5 33.5 14.999625 33.5 33.5 33.5zm0-5.5833333c-15.418375 0-27.91666669-12.4982917-27.91666669-27.9166667s12.49829169-27.91666669 27.91666669-27.91666669 27.9166667 12.49829169 27.9166667 27.91666669-12.4982917 27.9166667-27.9166667 27.9166667z"/></g></g></g></svg>