<svg height="24" viewBox="0 0 24 24" width="24" xmlns="http://www.w3.org/2000/svg"><g fill="none" fill-rule="evenodd"><path d="m0 0h24v24h-24z" fill="#000" fill-rule="nonzero" opacity="0"/><path d="m18.8369116 6.13121405c.8580182.85801825 1.5212166 1.858404 1.9730702 2.97175314.4371516 1.07579061.6582338 2.21369911.656517 3.38117951.0016208 1.1673846-.2193653 2.305389-.6566129 3.3811077-.4518536 1.1133731-1.1149081 2.1138068-1.9728544 2.9717291-.8579703.8579703-1.8584759 1.5210967-2.9718251 1.9729504-1.0756947.4372235-2.2136991.6582337-3.3810836.6566117-1.1673845.001622-2.3054369-.2193402-3.38108364-.6566117-1.11337313-.4518057-2.1138788-1.1149081-2.97189706-1.9729504-.85792233-.8578983-1.52097677-1.858356-1.97280644-2.9717291-.43727154-1.0756707-.65823373-2.2137231-.65661259-3.3811077-.00169309-1.1674804.21936502-2.3053889.65651666-3.38117951.45187762-1.11332517 1.115052-2.11373489 1.97304628-2.97172917.85792233-.85792233 1.85828409-1.5210727 2.97163324-1.97292635 1.07579065-.43715161 2.21369915-.65823373 3.38117955-.65654064 1.1675044-.00169309 2.305389.21938903 3.3812036.65654064 1.1133251.45180567 2.1137108 1.11498005 2.9716092 1.97290238m1.0607528-1.06075282c-4.0939523-4.0939523-10.73313096-4.0939523-14.82708326.00002397-4.0940722 4.09407223-4.0940962 10.7332269-.00014391 14.8271792 4.09409621 4.0940962 10.73325087 4.0940482 14.82732307 0 4.0939763-4.0939523 4.0939763-10.73310697-.0000959-14.82720317zm-6.3369356 7.45824727 3.7408158-3.7407917-1.0599134-1.05993736-3.7408158 3.74081576-3.72992706-3.72990316-1.06276743 1.06276744 3.72990309 3.72992712-3.67646733 3.6764673 1.05940971 1.0594098 3.67649132-3.6764914 3.6880995 3.6880515 1.0625036-1.0625036z" fill="#ff4d4f"/></g></svg>