<svg height="24" viewBox="0 0 24 24" width="24" xmlns="http://www.w3.org/2000/svg"><g fill="none"><path d="m0 0h24v24h-24z" fill="#000" opacity="0"/><g fill="#1890ff"><path d="m11.9683594 22.546875c-5.7667969 0-10.48476565-4.7282813-10.48476565-10.5070312 0-5.77875005 4.71796875-10.50679692 10.48476565-10.50679692 5.7667968 0 10.4847656 4.72804687 10.4847656 10.50679692 0 5.77875-4.7182031 10.5070312-10.4847656 10.5070312zm3.3832031-2.4466406c2.0954815-.8973484 3.7634654-2.5692788 4.6558594-4.666875.9171753-2.1693859.9171753-4.6176454 0-6.78703127-.8921889-2.0977345-2.5602392-3.76973129-4.6558594-4.666875-2.1615444-.91813387-4.6034556-.91813387-6.765 0-2.09627523.89666155-3.76492677 2.56875604-4.65726562 4.666875-.91717531 2.16938587-.91717531 4.61764537 0 6.78703127.89228282 2.0978591 2.56063735 3.7698244 4.6565625 4.6666406 2.16157732.9179718 4.60342262.9179718 6.76500002 0z"/><path d="m11.1796875 17.3789062v-7.92187495c0-.5859375.2929687-.87890625.8789062-.87890625s.8789063.29296875.8789063.87890625v7.92187495c0 .5859375-.2929688.8789063-.8789063.8789063s-.8789062-.2929688-.8789062-.8789063z"/><path d="m11.109375 6.71484375c0 .48540652.3934997.87890625.8789062.87890625.4854066 0 .8789063-.39349973.8789063-.87890625s-.3934997-.87890625-.8789063-.87890625c-.4854065 0-.8789062.39349973-.8789062.87890625z"/></g></g></svg>