<svg height="24" viewBox="0 0 24 24" width="24" xmlns="http://www.w3.org/2000/svg"><g fill="none" fill-rule="evenodd"><path d="m-1522-5457h1920v8568h-1920z"/><path d="m-1483-4931h1840v8739h-1840z"/><g fill-rule="nonzero"><path d="m0 0h24v24h-24z" fill="#000" opacity="0"/><g fill="#13c2c2"><path d="m12 23c-6.05018442 0-11-4.9501779-11-11.0001227 0-6.04994478 4.94981558-10.9998773 11-10.9998773 6.0501844 0 11 4.94993252 11 10.9998773 0 6.0499448-4.9500615 11.0001227-11 11.0001227zm3.5494579-2.5614606c2.1984561-.9394607 3.9484068-2.6898542 4.8846541-4.8858899.9622464-2.2711945.9622464-4.8343499 0-7.10554436-.9360322-2.19618046-2.6860525-3.9466435-4.8846541-4.88588987-2.2677653-.96122158-4.8296751-.96122158-7.09744046 0-2.19928879.93874158-3.94993994 2.6893069-4.88612943 4.88588987-.96224643 2.27119446-.96224643 4.83434986 0 7.10554436.93613071 2.1963109 2.68647025 3.946741 4.88539175 4.8856445 2.26779994.9610518 4.82964054.9610518 7.09744044 0z"/><path d="m16.4296296 7-6.56453156 5.84375-3.00618736-2.95625-.85891068.9625 4.0491503 5.225.3067538-.34375 1.1656645-1.30625 5.7669717-6.4625z"/></g></g></g></svg>