<svg fill="none" height="16" viewBox="0 0 16 16" width="16" xmlns="http://www.w3.org/2000/svg"><g fill="#6b7b8d"><path d="m.733398 9.66665c0-.33137.268632-.6.600002-.6h13.3333c.3314 0 .6.26863.6.6v4.33335c0 .3314-.2686.6-.6.6h-13.3333c-.33137 0-.600002-.2686-.600002-.6zm1.200002.60005v3.1333h12.1333v-3.1333z"/><path d="m11.8333 12.6667c.4603 0 .8334-.3731.8334-.8334 0-.4602-.3731-.8333-.8334-.8333-.4602 0-.8333.3731-.8333.8333 0 .4603.3731.8334.8333.8334z"/><path d="m2.42555 1.54314c.05832-.27781.30334-.47673.5872-.47673h9.99405c.2844 0 .5297.19965.5875.47811l1.6598 8.00026-1.175.24378-1.5606-7.52215h-9.01863l-1.57937 7.52353-1.174406-.24654z"/><path d="m2.7334 11.8334c0-.3314.26863-.6.6-.6h5.66667c.33137 0 .6.2686.6.6s-.26863.6-.6.6h-5.66667c-.33137 0-.6-.2686-.6-.6z"/></g></svg>