<svg height="24" viewBox="0 0 24 24" width="24" xmlns="http://www.w3.org/2000/svg"><g fill="none" transform="matrix(1 0 0 -1 0 24)"><path d="m0 0h24v24h-24z" fill="#000" opacity="0"/><path d="m8.325 9.375h-3.45c-.45 0-.75.3-.75.75s.3.75.75.75h5.25.15.15c.15-.15.3-.3.45-.45v-.15s0 0 0-.15v-5.25c0-.45-.3-.75-.75-.75s-.75.3-.75.75v3.45l-5.1-5.1c-.3-.3-.75-.3-1.05 0-.3.3-.3.75 0 1.05zm5.55 10.5c.45 0 .75-.3.75-.75v-3.45l5.1 5.1c.3.3.75.3 1.05 0 .3-.3.3-.75 0-1.05l-5.1-5.1h3.45c.45 0 .75-.3.75-.75s-.3-.75-.75-.75h-5.25s0 0-.15 0h-.15c-.15.15-.3.3-.45.45v.15.15 5.25c0 .45.3.75.75.75z" fill="#6f8794"/></g></svg>