<svg height="20" viewBox="0 0 20 20" width="20" xmlns="http://www.w3.org/2000/svg"><g fill="none" fill-rule="evenodd"><path d="m0 0h20v20h-20z" fill="#000" fill-rule="nonzero" opacity="0"/><path d="m17.1875 16.5625c.3451758 0 .625.2798242.625.625s-.2798242.625-.625.625h-14.375c-.34517578 0-.625-.2798242-.625-.625s.27982422-.625.625-.625zm-.9557617-13.57548828c1.106914 1.10689453 1.1179687 2.89466797.0332031 4.01519531l-.0332031.03375-8.3083008 8.30832027c-.11479062.1147727-.26970754.1804193-.43201172.1830664h-3.17501953c-.34171875 0-.61939453-.2742578-.625-.6146484v-3.1754492c0-.1623217.06315273-.3182757.17609375-.4348633l.00697266-.0070703 8.30832034-8.30832031c1.1180859-1.11810547 2.9308593-1.11810547 4.0489453 0zm-4.3963281 2.11509765-6.89400395 6.89402343v2.2812109h2.28117188l6.89402347-6.89404292zm1.2502734-1.24992187-.0190039.01869141-.3473828.34734375 2.2811914 2.2811914.3473828-.34734375c.6236328-.62363281.6298633-1.63085937.0186914-2.26216797l-.0186914-.01902343c-.6236328-.62363282-1.6308789-.62986329-2.2621875-.01869141z" fill="#6b7b8d"/></g></svg>