<svg height="14" viewBox="0 0 14 14" width="14" xmlns="http://www.w3.org/2000/svg"><g fill="none" transform="matrix(1 0 0 -1 0 14)"><path d="m0 0h14v14h-14z" fill="#000" opacity="0"/><path d="m3.2375 2.625h2.0125c.2625 0 .4375-.175.4375-.4375s-.175-.4375-.4375-.4375h-3.0625s0 0-.0875 0h-.0875c-.0875.0875-.175.175-.2625.2625v.0875.0875 3.0625c0 .2625.175.4375.4375.4375s.4375-.175.4375-.4375v-2.0125l2.975 2.975c.175.175.4375.175.6125 0 .175-.175.175-.4375 0-.6125zm8.575 5.6875c-.2625 0-.4375.175-.4375.4375v2.0125l-2.975-2.975c-.175-.175-.4375-.175-.6125 0-.175.175-.175.4375 0 .6125l2.975 2.975h-2.0125c-.2625 0-.4375.175-.4375.4375s.175.4375.4375.4375h3.0625.0875.0875c.0875-.0875.175-.175.2625-.2625v-.0875s0 0 0-.0875v-3.0625c0-.2625-.175-.4375-.4375-.4375z" fill="#6b7b8d"/></g></svg>