<svg height="24" viewBox="0 0 24 24" width="24" xmlns="http://www.w3.org/2000/svg"><g fill="none"><path d="m0 0h24v24h-24z" fill="#000" opacity="0"/><path d="m20.0357143 22h-16.07142858c-1.07142857 0-1.96428572-.8928571-1.96428572-1.9642857v-16.07142858c0-1.07142857.89285715-1.96428572 1.96428572-1.96428572h16.07142858c1.0714286 0 1.9642857.89285715 1.9642857 1.96428572v16.07142858c0 1.0714286-.8928571 1.9642857-1.9642857 1.9642857zm-16.13571429-19c-.504 0-.90000001.39600001-.90000001.90000001v16.19999999c0 .504.39600001.9.90000001.9h16.19999999c.504 0 .9-.396.9-.9v-16.19999999c0-.504-.396-.90000001-.9-.90000001zm14.60236969 6.24644551c-.2654029 0-.4976304-.2322275-.4976304-.49763033v-1.95734599c0-.43127962-.3649289-.79620853-.7962085-.79620853h-1.957346c-.2654028 0-.4976303-.23222749-.4976303-.49763033s.2322275-.49763033.4976303-.49763033h1.957346c.9952607 0 1.7914692.79620853 1.7914692 1.79146919v1.95734599c0 .26540283-.1990521.49763033-.4976303.49763033zm-1.2938389 9.75355449h-1.957346c-.2654028 0-.4976303-.2322275-.4976303-.4976303 0-.2654029.2322275-.4976304.4976303-.4976304h1.957346c.4312796 0 .7962085-.3649289.7962085-.7962085v-1.957346c0-.2654028.2322275-.4976303.4976304-.4976303.2654028 0 .4976303.2322275.4976303.4976303v1.957346c0 .9952607-.7962085 1.7914692-1.7914692 1.7914692zm-8.45971562 0h-1.95734599c-.99526066 0-1.79146919-.7962085-1.79146919-1.7914692v-1.957346c0-.2654028.23222749-.4976303.49763033-.4976303s.49763033.2322275.49763033.4976303v1.957346c0 .4312796.36492891.7962085.79620853.7962085h1.95734599c.26540283 0 .49763033.2322275.49763033.4976304 0 .2654028-.2322275.4976303-.49763033.4976303zm-3.25118485-9.75355449c-.26540284 0-.49763033-.2322275-.49763033-.49763033v-1.95734599c0-.99526066.79620853-1.79146919 1.79146919-1.79146919h1.95734599c.26540283 0 .49763033.23222749.49763033.49763033s-.2322275.49763033-.49763033.49763033h-1.95734599c-.43127962 0-.79620853.36492891-.79620853.79620853v1.95734599c0 .26540283-.23222749.49763033-.49763033.49763033z" fill="#526579" stroke="#526579" stroke-width=".2"/></g></svg>