<svg height="16" viewBox="0 0 16 16" width="16" xmlns="http://www.w3.org/2000/svg"><g fill="none"><path d="m0 0h16v16h-16z" fill="#000" opacity="0"/><path d="m2.1109375 4.8078125 5.9046875 3.0046875 5.9046875-3.0046875-5.9046875-2.9zm.828125 4.6625-1.24375-.621875c-.4140625-.2078125-.621875-.51875-.621875-.9328125s.2078125-.725.621875-.9328125l1.24375-.621875-1.24375-.621875c-.51875-.2078125-.725-.828125-.51875-1.346875.103125-.2078125.3109375-.4140625.4140625-.4140625l5.9078125-2.9c.3109375-.103125.621875-.103125.9328125 0l5.9046875 2.9c.5171875.2078125.725.828125.4140625 1.346875-.103125.2078125-.3109375.4140625-.4140625.4140625l-1.24375.621875 1.1390625.51875c.5171875.2078125.725.5171875.725 1.0359375 0 .4140625-.2078125.828125-.725 1.0359375l-1.1390625.51875 1.1390625.51875c.5171875.2078125.725.5171875.725 1.0359375 0 .4140625-.2078125.828125-.725 1.0359375l-5.6984375 2.796875c-.103125.103125-.3109375.103125-.51875.103125s-.3109375 0-.51875-.103125l-5.903125-2.9015625c-.4140625-.2078125-.51875-.51875-.51875-.9328125s.2078125-.725.621875-.9328125zm1.140625.621875-1.96875.9328125 5.9046875 3.003125 5.9046875-2.9-1.96875-.9328125-3.4171875 1.6578125c-.103125.103125-.3109375.103125-.51875.103125s-.3109375 0-.51875-.103125zm7.8734375-3.1078125-3.41875 1.65625c-.3109375.103125-.621875.103125-.9328125 0l-3.521875-1.65625-1.96875.9328125 5.9046875 3.003125 5.9046875-3.0046875z" fill="#526579"/></g></svg>