<svg height="24" viewBox="0 0 24 24" width="24" xmlns="http://www.w3.org/2000/svg"><g fill="none"><path d="m0 0h24v24h-24z" fill="#000" opacity="0"/><g fill="#526579"><path d="m18 18c-.4031557-.0016927-.7658651-.2453129-.9199173-.6178788-.1540522-.3725658-.0693135-.8012013.2149173-1.0871212l4.29-4.295-4.29-4.29499999c-.3397767-.39676029-.3169322-.98819413.0524368-1.35756316.3693691-.36936902.9608029-.39221358 1.3575632-.05243684l5 4.99999999c.3877236.3900375.3877236 1.0199625 0 1.41l-5 5c-.1866751.1877939-.4402116.2938836-.705.295z"/><path d="m3 12c0 .8284271.67157288 1.5 1.5 1.5s1.5-.6715729 1.5-1.5-.67157288-1.5-1.5-1.5-1.5.6715729-1.5 1.5z"/><path d="m7.5 12c0 .8284271.67157288 1.5 1.5 1.5s1.5-.6715729 1.5-1.5-.67157288-1.5-1.5-1.5-1.5.6715729-1.5 1.5z"/><path d="m15 12c0 .8284271.6715729 1.5 1.5 1.5s1.5-.6715729 1.5-1.5-.6715729-1.5-1.5-1.5-1.5.6715729-1.5 1.5z"/></g></g></svg>