<svg height="24" viewBox="0 0 24 24" width="24" xmlns="http://www.w3.org/2000/svg"><g fill="none" fill-rule="evenodd"><path d="m0 0h24v24h-24z" fill="#000" fill-rule="nonzero" opacity="0"/><path d="m17.6805469 1.52367187c.1492969-.06375.3220312.005625.3860156.15492188l1.5400781 3.605625c.0110157.02554688.0182813.05273437.0215625.08039062.0194532.16125001-.095625.30773438-.256875.32718751l-3.8927344.46898437c-.0632812.0075-.1270312-.00539063-.1821093-.03726562-.140625-.08109375-.1889063-.26109375-.1075782-.40171875l.8008594-1.38960938c-4.1489062-2.10117188-9.2650781-.61359375-11.61867185 3.46289062-2.43609375 4.21945318-.99046875 9.61499998 3.22898437 12.05109378 4.21945308 2.4360937 9.61476558.9904687 12.05085938-3.2289844.6813281-1.1800781 1.0725-2.4752344 1.1632031-3.8039062.0276563-.405.3782813-.7110938.7835156-.6834375.4050001.0276562.7110938.3782812.6834376.7835156-.1057032 1.5510937-.5627344 3.0635156-1.3567969 4.4390625-2.8420313 4.9225781-9.1366407 6.609375-14.05945315 3.7671094-4.9228125-2.8422657-6.609375-9.1366407-3.76710938-14.05945317 2.76-4.78031251 8.77523433-6.5090625 13.62867193-4.00265626l.8149218-1.41023437c.031875-.05507813.080625-.0984375.1392188-.12351563z" fill="#526579" stroke="#526579" stroke-width=".514286"/></g></svg>