<svg height="24" viewBox="0 0 24 24" width="24" xmlns="http://www.w3.org/2000/svg"><g fill="none"><path d="m0 0h24v24h-24z" fill="#000" opacity="0"/><g fill="#526579"><path d="m20.9776786 22.75h-12.45535717c-.83035714 0-1.52232143-.6919643-1.52232143-1.5223214v-12.45535717c0-.83035714.69196429-1.52232143 1.52232143-1.52232143h12.45535717c.8303571 0 1.5223214.69196429 1.5223214 1.52232143v12.45535717c0 .8303571-.6919643 1.5223214-1.5223214 1.5223214zm-12.0776786-14.25c-.36399999 0-.65.28600001-.65.65v11.7c0 .364.28600001.65.65.65h11.7c.364 0 .65-.286.65-.65v-11.7c0-.36399999-.286-.65-.65-.65z"/><path d="m4.83382813 8.63507813c-.42820313-.2653125-.99023438-.13265625-1.25554688.29554687l-.425625.68742188c-.02039062-.19851563-.03117187-.40078125-.03117187-.60375 0-3.140625 2.555625-5.69601563 5.69695312-5.69601563 1.04625 0 2.0692969.2859375 2.9571094.82710938.4310156.26085937.991875.1246875 1.2536719-.30445313.2617968-.43007812.125625-.9909375-.3044532-1.25367187-1.1744531-.71507813-2.5251562-1.09265625-3.9063281-1.09265625-4.14679687 0-7.520625 3.37289062-7.520625 7.5196875 0 1.12828122.24398438 2.21273442.72398438 3.22335942.1434375.3009375.43992187.5003906.77296875.5182031.016875.0009375.03375.001875.05085937.001875.31586657 0 .60925432-.1634043.77554688-.4319531l1.50820312-2.4351563c.26460938-.4284375.13265625-.99023437-.29554687-1.25554687z" stroke="#fff" stroke-width=".6"/></g></g></svg>