<svg height="24" viewBox="0 0 24 24" width="24" xmlns="http://www.w3.org/2000/svg"><g fill="none"><path d="m0 0h24v24h-24z" fill="#000" opacity="0"/><path d="m16.6205357 17.75h-9.24107141c-.61607143 0-1.12946429-.5133929-1.12946429-1.1294643v-9.24107141c0-.61607143.51339286-1.12946429 1.12946429-1.12946429h9.24107141c.6160714 0 1.1294643.51339286 1.1294643 1.12946429v9.24107141c0 .6160714-.5133929 1.1294643-1.1294643 1.1294643zm-8.8055357-10.4c-.26039999 0-.465.20460001-.465.465v8.37c0 .2604.20460001.465.465.465h8.37c.2604 0 .465-.2046.465-.465v-8.37c0-.26039999-.2046-.465-.465-.465zm13.5451896.10971565c-.3412322 0-.6398105-.29857821-.6398105-.63981042v-2.5165877c0-.55450237-.4691943-1.02369668-1.0236966-1.02369668h-2.5165877c-.3412322 0-.6398105-.29857821-.6398105-.63981042 0-.34123222.2985783-.63981043.6398105-.63981043h2.5165877c1.2796208 0 2.3033175 1.02369668 2.3033175 2.30331753v2.5165877c0 .34123221-.2559242.63981042-.6398104.63981042zm-1.6635071 14.54028435h-2.5165877c-.3412322 0-.6398105-.2985782-.6398105-.6398104s.2985783-.6398105.6398105-.6398105h2.5165877c.5545023 0 1.0236966-.4691943 1.0236966-1.0236966v-2.5165877c0-.3412322.2985783-.6398105.6398105-.6398105s.6398104.2985783.6398104.6398105v2.5165877c0 1.2796208-1.0236967 2.3033175-2.3033175 2.3033175zm-12.87677727 0h-2.5165877c-1.27962085 0-2.30331753-1.0236967-2.30331753-2.3033175v-2.5165877c0-.3412322.29857821-.6398105.63981043-.6398105.34123221 0 .63981042.2985783.63981042.6398105v2.5165877c0 .5545023.46919431 1.0236966 1.02369668 1.0236966h2.5165877c.34123221 0 .63981042.2985783.63981042.6398105s-.29857821.6398104-.63981042.6398104zm-4.1800948-14.54028435c-.34123222 0-.63981043-.29857821-.63981043-.63981042v-2.5165877c0-1.27962085 1.02369668-2.30331753 2.30331753-2.30331753h2.5165877c.34123221 0 .63981042.29857821.63981042.63981043 0 .34123221-.29857821.63981042-.63981042.63981042h-2.5165877c-.55450237 0-1.02369668.46919431-1.02369668 1.02369668v2.5165877c0 .34123221-.29857821.63981042-.63981042.63981042z" fill="#526579"/></g></svg>