<svg height="24" viewBox="0 0 24 24" width="24" xmlns="http://www.w3.org/2000/svg"><g fill="none"><path d="m0 0h24v24h-24z" fill="#000" opacity="0"/><path d="m19.6966825 22h-2.5165877c-.3412322 0-.6398105-.2985782-.6398105-.6398104s.2985783-.6398105.6398105-.6398105h2.5165877c.5545023 0 1.0236966-.4691943 1.0236966-1.0236966v-2.5165877c0-.3412322.2985783-.6398105.6398105-.6398105s.6398104.2985783.6398104.6398105v2.5165877c0 1.2796208-1.0236967 2.3033175-2.3033175 2.3033175zm-15.68309915-7.9960086h5.37942124c.15911052.0014462.31099811.0671418.42058006.182419.11900894.1035646.18585711.2547396.18243022.4125601v5.3318804c.02642413.2276294-.08009527.4502176-.27385169.5722541-.29366975.0813949-.5051292.0813949-.63437837 0-.193808-.1220069-.30040395-.3445875-.27405806-.5722541v-3.895667l-4.55194107 4.5446575c-.23247055.2320986-.60903438.2319396-.8413088-.0003553-.23205262-.232073-.23203607-.6083212.00003696-.8403738l.00030847-.0003082 4.55979271-4.5527049h-3.96703167c-.22750405.0264463-.44999946-.080061-.5722613-.2739383-.12196515-.1937819-.12196515-.4404493 0-.6342312.12226184-.1938773.34475725-.3003846.5722613-.2739383zm16.56504045-10.58201903c.2327515.23308084.2325729.61068539-.000399.84354594l-4.5504489 4.54827392h3.975723c.3007023.0350348.5275733.29002179.5275733.59310388 0 .3030821-.226871.5582764-.5275733.59310389h-5.3274357c-.1594505-.00136746-.311532-.06749235-.4214796-.18325894-.1222424-.10239779-.1922868-.25430914-.190886-.41399108v-5.35016605h-.0636976c.034951-.30100904.2897414-.52821696.5925118-.52821696s.557354.22720792.5923049.52821696v3.9093859l4.5503128-4.54073971c.233153-.23266255.6107511-.23233027.8434943.00074225zm-13.75871857-1.42197237c.34123221 0 .63981042.29857821.63981042.63981043 0 .34123221-.29857821.63981042-.63981042.63981042h-2.5165877c-.55450237 0-1.02369668.46919431-1.02369668 1.02369668v2.5165877c0 .34123221-.29857821.63981042-.63981042.63981042-.34123222 0-.63981043-.29857821-.63981043-.63981042v-2.5165877c0-1.27962085 1.02369668-2.30331753 2.30331753-2.30331753z" fill="#526579"/></g></svg>