<svg height="24" viewBox="0 0 24 24" width="24" xmlns="http://www.w3.org/2000/svg"><g fill="none"><path d="m0 0h24v24h-24z" fill="#000" opacity="0"/><path d="m10.5606123 22.2728577h-4.53918373c-.66449396.0169055-1.30854743-.2201736-1.78908485-.6585705s-.75776564-1.0418081-.77009882-1.6761866l-.03367347-15.88817673c.08352479-1.29668994 1.19830182-2.31370707 2.55918367-2.33475715h12.495551c.6643667-.01725443 1.3084261.21953381 1.789005.6577271.4805789.4381933.7578508 1.04147779.7701787 1.67574439v5.95260219c-.0162224.3483965-.3168617.6228875-.6822245.6228875s-.6660021-.274491-.6822245-.6228875v-5.95260219c-.0176283-.6141399-.549821-1.10033324-1.1933877-1.09023903h-12.496898c-.64327912-.00939422-1.17503936.47640411-1.19338774 1.09023903l.03367347 15.88689099c.01835159.6136336.5503313 1.0990593 1.19338774 1.0889534h4.53918373c.1791745-.0108078.3549138.0504343.4846455.1688906.1297317.1184562.2016208.2833202.1982524.4546541-.0109983.350995-.3150471.6286178-.6828979.6235447zm-3.04408168-15.83675031c-.36078847 0-.65326531-.27917048-.65326531-.62354472s.29247684-.62354473.65326531-.62354473h9.42857138c.1789488-.01043357.3543257.05097544.4837547.16938888.1294291.11841343.2011367.28305978.1977964.45415584-.0109849.34998219-.3133959.62720315-.6802041.62354473zm0 3.98554361c-.36078847 0-.65326531-.2791705-.65326531-.62354475 0-.34437424.29247684-.62354472.65326531-.62354472h9.42857138c.2428923-.01514955.4744653.09985566.6008695.29840757.1264043.19855191.126674.44771788.0006998.6465186-.1259743.1988008-.3572978.3142625-.6002223.299592l-9.42991838.0012856zm.00134693 4.0318273c-.2402215.0104197-.46701781-.1059733-.59039097-.3029914-.12337316-.1970182-.12337316-.4428028 0-.639821.12337316-.1970181.35016947-.3134111.59039097-.3029914h2.21571428c.17894875-.0104336.35432567.0509754.48375467.1693889.1294291.1184134.2011367.2830598.1977964.4541558-.0124267.3494755-.3152364.6253708-.68155107.6209734zm12.20865305 7.832236h-5.1075918l-2.5591837-4.0459696 2.5591837-4.0472552h5.1075918l2.5591837 4.0472552zm-4.3169388-1.2458038h3.520898l1.7617959-2.8001658-1.7617959-2.8014514h-3.5141633l-1.7617959 2.8027371zm1.3051837-2.0814823c.2826936.1482113.6251432.1482113.9078368 0 .2792022-.1410164.4538438-.4178172.4538438-.7193263 0-.3015092-.1746416-.5783099-.4538438-.7193264-.2826936-.1482112-.6251432-.1482112-.9078368 0-.2768114.1428129-.4493165.4189823-.4493165.7193264 0 .300344.1725051.5765134.4493165.7193263z" fill="#536579" stroke="#536579" stroke-width=".5"/></g></svg>