<svg height="24" viewBox="0 0 24 24" width="24" xmlns="http://www.w3.org/2000/svg"><g fill="none"><path d="m0 0h24v24h-24z" fill="#000" opacity="0"/><path d="m19.3846154 1.71428571h-14.76923078c-1.60175232.00115911-2.8999398 1.29934659-2.90109891 2.90109891v14.76923078c.00115911 1.6017523 1.29934659 2.8999398 2.90109891 2.9010989h10.39120878c.4369726 0 .7912088-.3542363.7912088-.7912088 0-.4369726-.3542362-.7912088-.7912088-.7912088h-10.39120878c-.72686127 0-1.31868132-.5918201-1.31868132-1.3186813v-14.76923078c0-.72686127.59182005-1.31868132 1.31868132-1.31868132h14.76923078c.7268612 0 1.3186813.59182005 1.3186813 1.31868132v14.76923078c0 .7268612-.5918201 1.3186813-1.3186813 1.3186813h-.2363118c-.4369726 0-.7912088.3542362-.7912088.7912088 0 .4369725.3542362.7912088.7912088.7912088h.2363118c1.6017523-.0011591 2.8999398-1.2993466 2.9010989-2.9010989v-14.76923078c-.0011591-1.60175232-1.2993466-2.8999398-2.9010989-2.90109891zm-12.91570056 5.80219781h8.03340656c.4369726 0 .7912088-.35423625.7912088-.79120879 0-.43697255-.3542362-.7912088-.7912088-.7912088h-8.03340656c-.43697255 0-.7912088.35423625-.7912088.7912088 0 .43697254.35423625.79120879.7912088.79120879zm10.02197806 3.69230768h-10.03673081c-.43697255 0-.79120879.3542363-.79120879.7912088s.35423624.7912088.79120879.7912088h10.03673081c.4369725 0 .7912087-.3542363.7912087-.7912088s-.3542362-.7912088-.7912087-.7912088zm-10.02197806 5.2747253c-.43697254 0-.79120875.3542362-.79120875.7912088 0 .4369725.35423621.7912088.79120875.7912088h3.97609206c.4369725 0 .7912088-.3542363.7912088-.7912088 0-.4369726-.3542363-.7912088-.7912088-.7912088zm11.15816616-10.54945074h-.0812431c-.4367308 0-.7500618.35445759-.7500618.79120897 0 .43675137.3956044.79120879.8323558.79120879.4369725-.00029018.7909735-.35476166.7906835-.79173421-.0002903-.43697255-.3547618-.79097355-.7917344-.79068355z" fill="#526579"/></g></svg>