<svg height="24" viewBox="0 0 24 24" width="24" xmlns="http://www.w3.org/2000/svg"><g fill="none"><path d="m0 0h24v24h-24z" fill="#000" opacity="0"/><path d="m21.7331769 11.2461431h-1.9561617c-.3531606-3.72088521-3.3138092-6.6815339-7.0346945-7.03469444v-1.96529956c0-.41302397-.334813-.74783698-.747837-.74783698-.4130239 0-.7478369.33481301-.7478369.74783698v1.96529953c-3.72088528.35316057-6.68153398 3.31380924-7.03469452 7.03469447h-1.96467595c-.41302397 0-.74783698.334813-.74783698.747837 0 .4130239.33481301.747837.74783698.747837h1.96467595c.35316056 3.7208852 3.31380924 6.6815339 7.03469452 7.0346944v1.9675061c0 .4130239.334813.7478369.7478369.7478369.413024 0 .747837-.334813.747837-.7478369v-1.9675061c3.7208852-.3531605 6.6815339-3.3138092 7.0346945-7.0346944h1.9561617c.413024 0 .747837-.3348131.747837-.747837 0-.413024-.334813-.747837-.747837-.747837zm-9.7386931 7.3424299c-3.6420987 0-6.59459293-2.9524942-6.59459293-6.5945929 0-3.64209869 2.95249421-6.5945929 6.59459293-6.5945929 3.6420986 0 6.5945928 2.95249421 6.5945928 6.5945929 0 3.6420987-2.9525182 6.5945929-6.5945928 6.5945929zm-1.6316378-6.5945929c0 .9011286.7305091 1.6316377 1.6316378 1.6316377.9011286 0 1.6316377-.7305091 1.6316377-1.6316377 0-.9011287-.7305091-1.6316378-1.6316377-1.6316378-.9011287 0-1.6316378.7305091-1.6316378 1.6316378z" fill="#6b7b8d"/></g></svg>