<svg height="200" viewBox="0 0 200 200" width="200" xmlns="http://www.w3.org/2000/svg"><g fill="none" fill-rule="evenodd"><rect fill="#fff" height="198" rx="51" stroke="#51c41b" stroke-width="2" width="198" x="1" y="1"/><g transform="translate(40 40)"><path d="m0 0h120v120h-120z" fill="#000" fill-rule="nonzero" opacity="0"/><path d="m112.125 87.75c.375 1.5.46875 3 .46875 4.59375.375.1875 6 2.90625 4.96875 6.09375l-.375 1.125c-.75 2.4375-6.1875 2.34375-7.59375 2.25-.84375 1.3125-1.875 2.53125-3 3.5625.09375.1875 2.4375 6.1875-.65625 7.78125l-1.5.84375c-2.34375 1.21875-5.90625-2.90625-6.65625-3.9375-1.59375.375-3.1875.46875-4.875.375l.28125.09375s-2.8125 6-6.1875 4.96875l-1.125-.375c-2.53125-.75-2.34375-6.65625-2.25-7.6875-1.40625-.9375-2.625-1.96875-3.65625-3.09375l.1875.28125s-6.1875 2.34375-7.875-.75l-.75-1.21875c-1.21875-2.34375 3.1875-6.28125 4.03125-7.03125-.28125-1.5-.46875-3-.46875-4.5-.9375-.5625-5.90625-3.65625-5.0625-6.1875l.375-1.125c.9375-3 6.375-2.34375 7.6875-2.15625.84375-1.3125 1.78125-2.4375 2.90625-3.46875-.28125-1.03125-1.875-6.75.5625-8.0625l1.40625-.5625c2.71875-1.40625 6.09375 2.8125 6.9375 3.9375 1.5-.375 3-.46875 4.59375-.46875.75-1.125 3.65625-5.71875 6.1875-4.96875l1.125.375c2.90625.9375 2.4375 6.09375 2.25 7.59375 1.3125.84375 2.53125 1.875 3.5625 3 1.3125-.375 6.65625-1.6875 7.875.5625l.75 1.40625c1.21875 2.625-2.90625 5.90625-4.125 6.75zm-14.34375-9.1875c-7.3125-2.25-15.09375 1.875-17.4375 9.1875-2.25 7.3125 1.875 15.09375 9.1875 17.4375 7.3125 2.25 15.09375-1.875 17.4375-9.1875 2.34375-7.40625-1.78125-15.1875-9.1875-17.4375zm-6.84375 22.125c-4.875-1.5-7.59375-6.65625-6.09375-11.625 1.5-4.875 6.65625-7.59375 11.625-6.09375 4.875 1.5 7.59375 6.65625 6.09375 11.625-1.5 4.875-6.65625 7.59375-11.625 6.09375zm4.125-13.3125c-2.4375-.75-5.0625.65625-5.8125 3.09375s.65625 5.0625 3.09375 5.8125 5.0625-.65625 5.8125-3.09375-.65625-5.0625-3.09375-5.8125zm-17.90625-32.25c-.75 2.625-1.78125 5.15625-3.09375 7.40625.1875.28125 7.21875 9 2.90625 13.3125l-2.15625 2.15625c-3.1875 3.1875-11.25-1.78125-13.21875-3.09375-2.4375 1.40625-5.0625 2.4375-7.875 3.1875h.5625s-1.5 11.53125-7.6875 11.53125h-2.15625c-4.6875 0-7.3125-9.84375-7.78125-11.71875-2.71875-.75-5.34375-1.875-7.78125-3.375l.46875.46875s-9.09375 7.125-13.40625 2.8125l-1.96875-1.59375c-3.28125-3.28125 2.0625-12.09375 3.09375-13.78125-1.3125-2.25-2.34375-4.6875-3-7.3125-1.78125-.46875-11.71875-3.09375-11.71875-7.78125v-2.15625c0-5.4375 9.46875-7.21875 11.625-7.59375.75-2.625 1.78125-5.0625 3-7.3125-1.03125-1.5-6.5625-10.3125-3.1875-13.6875l2.0625-1.6875c3.84375-3.84375 11.71875 1.59375 13.5 3 2.34375-1.3125 4.78125-2.4375 7.40625-3.09375.5625-2.34375 3.1875-11.53125 7.6875-11.53125h2.15625c5.25 0 7.125 8.90625 7.59375 11.4375 2.625.75 5.15625 1.78125 7.59375 3.09375 1.96875-1.3125 10.21875-6.28125 13.40625-3.09375l1.96875 2.0625c3.75 3.75-1.40625 11.34375-3 13.40625 1.3125 2.34375 2.34375 4.78125 3.09375 7.5.65625.09375 11.4375 1.6875 11.4375 7.6875v2.15625c-.09375 4.3125-9.09375 6.9375-11.53125 7.59375zm-31.6875-33c-13.40625 0-24.28125 10.875-24.28125 24.28125s10.875 24.28125 24.28125 24.28125 24.28125-10.875 24.28125-24.28125-10.875-24.28125-24.28125-24.28125zm0 40.5c-8.90625 0-16.21875-7.21875-16.21875-16.21875 0-8.90625 7.21875-16.21875 16.21875-16.21875 8.90625 0 16.21875 7.21875 16.21875 16.21875 0 8.90625-7.3125 16.21875-16.21875 16.21875zm0-24.28125c-4.5 0-8.0625 3.65625-8.0625 8.0625s3.65625 8.0625 8.0625 8.0625c4.5 0 8.0625-3.65625 8.0625-8.0625s-3.5625-8.0625-8.0625-8.0625z" fill="#51c41b"/></g></g></svg>