<svg height="16" viewBox="0 0 16 16" width="16" xmlns="http://www.w3.org/2000/svg"><g fill="none"><path d="m0 0h16v16h-16z" fill="#000" opacity="0"/><path d="m8 15c-3.85998437 0-7-3.1400156-7-7 0-3.85998437 3.14001563-7 7-7 3.8599844 0 7 3.14001563 7 7 0 3.8599844-3.1400156 7-7 7zm0-13c-3.3085 0-6 2.6915-6 6s2.6915 6 6 6 6-2.6915 6-6-2.6915-6-6-6zm-1.64644661 3.64644661 1.76744661 1.76755339 1.7680873-1.76755339c.1735663-.17356635.4429907-.1928515.6378589-.05785545l.0692479.05785545c.1952621.19526215.1952621.51184463 0 .70710678l-1.7681941 1.76744661 1.7681941 1.7680873c.1952621.1952621.1952621.5118446 0 .7071068-.1952622.1952621-.5118447.1952621-.7071068 0l-1.7680873-1.7681941-1.76744661 1.7681941c-.17356635.1735663-.44299075.1928515-.63785889.0578554l-.06924789-.0578554c-.19526215-.1952622-.19526215-.5118447 0-.7071068l1.76755339-1.7680873-1.76755339-1.76744661c-.19526215-.19526215-.19526215-.51184463 0-.70710678s.51184463-.19526215.70710678 0z" fill="#595959"/></g></svg>