<svg fill="none" height="16" viewBox="0 0 16 16" width="16" xmlns="http://www.w3.org/2000/svg"><g fill="#2e8de6"><path d="m3.5999 8.3999v5h8.8v-5h1.2v5.6c0 .3314-.2686.6-.6.6h-10c-.33137 0-.6-.2686-.6-.6v-5.6z"/><path d="m5.3999 1.9999c0-.33137.26863-.6.6-.6h4c.3314 0 .6.26863.6.6v1.4h3.4c.3314 0 .6.26863.6.6v4c0 .33137-.2686.6-.6.6h-12c-.33137 0-.6-.26863-.6-.6v-4c0-.33137.26863-.6.6-.6h3.4zm1.2.6v1.4c0 .33137-.26863.6-.6.6h-3.4v2.8h10.8v-2.8h-3.4c-.33137 0-.6-.26863-.6-.6v-1.4z"/><path d="m5.3334 10.0667c.33137 0 .6.2686.6.6v3.3333c0 .3314-.26863.6-.6.6s-.6-.2686-.6-.6v-3.3333c0-.3314.26863-.6.6-.6z"/></g></svg>