<svg fill="none" height="16" viewBox="0 0 16 16" width="16" xmlns="http://www.w3.org/2000/svg"><g fill="#79879c"><path d="m3.57564 7.57583c.23431-.23431.61421-.23431.84853 0l3.57573 3.57577 3.5757-3.57577c.2344-.23431.6143-.23431.8486 0 .2343.23432.2343.61422 0 .84853l-4.00003 4.00004c-.23432.2343-.61422.2343-.84853 0l-4-4.00004c-.23432-.23431-.23432-.61421 0-.84853z"/><path d="m3.57564 3.57583c.23431-.23431.61421-.23431.84853 0l3.57573 3.57574 3.5757-3.57574c.2344-.23431.6143-.23431.8486 0 .2343.23432.2343.61422 0 .84853l-4.00003 4c-.23432.23432-.61422.23432-.84853 0l-4-4c-.23432-.23431-.23432-.61421 0-.84853z"/></g></svg>