<svg height="16" viewBox="0 0 16 16" width="16" xmlns="http://www.w3.org/2000/svg"><g fill="none"><path d="m0 0h16v16h-16z" fill="#000" opacity="0"/><path d="m8 15c-3.85998438 0-7-3.1400156-7-7 0-3.85998437 3.14001562-7 7-7 3.8599844 0 7 3.14001563 7 7 0 3.8599844-3.1400156 7-7 7zm0-13c-3.3085 0-6 2.6915-6 6s2.6915 6 6 6 6-2.6915 6-6-2.6915-6-6-6zm3.5482056 3.40878785c.2176032.17001022.2561849.48423295.0861746.70183611l-3.69396882 4.72806454c-.02320775.0297045-.04910281.0560731-.07707257.0790306l.0517723-.053856c-.1775009.2115373-.4928787.2391293-.70441603.0616284l-3.06417777-2.57115046c-.21153733-.1775009-.23912931-.4928787-.06162842-.70441603.1775009-.21153733.4928787-.23912931.70441603-.06162842l2.67059455 2.24047441 3.38647003-4.33380851c.1700102-.21760316.4842329-.25618486.7018361-.08617464z" fill="#595959"/></g></svg>