<svg height="25" viewBox="0 0 24 25" width="24" xmlns="http://www.w3.org/2000/svg"><g fill="none" transform="translate(0 1)"><path d="m0 0h24v24h-24z" fill="#000" opacity="0"/><path d="m3.6125 21.4385h16.1205v1.4955h-16.1205zm-1.6125-16.449h1.6125v17.9445h-1.6125zm16.1205-2.9895h-11.283c-1.6125 0-1.6125 1.533-1.6125 1.533v14.9175c0 1.494 1.6125 1.494 1.6125 1.494h14.5065c1.6125 0 1.6125-1.494 1.6125-1.494v-11.9655zm-9.672 10.467h11.283v1.4955h-11.283zm0-2.991h11.283v1.4955h-11.283zm0 5.982h11.283v1.4955h-11.283zm9.672-8.973v-2.9895l3.222 2.991h-3.222z" fill="#595959"/></g></svg>