<svg height="16" viewBox="0 0 16 16" width="16" xmlns="http://www.w3.org/2000/svg"><g fill="none"><path d="m0 0h16v16h-16z" fill="#000" opacity="0"/><path d="m11.9197528 13.0724291c0 .4834143-.3832292.8752989-.8559665.8752989h-6.16015251c-.47220401-.0013139-.85468161-.3924299-.85596653-.8752989v-9.2815169h7.87208554zm-6.16250724-10.85035872c-.00061958-.04776673.01765614-.09376742.05068937-.12754673.03303323-.0337793.07801793-.05246779.12472965-.05181781h4.11144572c.0467118-.00064998.0916964.01803851.1247297.05181781.0330332.03377931.0513089.07978.0506894.12754673v.51656987h-4.46228384zm8.72806814.51656987h-3.2461244v-.51656987c0-.67493083-.5350551-1.22207038-1.195079-1.22207038h-4.11144572c-.65895888.00262198-1.19251487.54822859-1.19507894 1.22207038v.51656987h-3.25547924c-.27134797.01869683-.4821064.24922604-.4821064.52733173 0 .2781057.21075843.50863491.4821064.52733174h1.53653007v9.27912538c0 .5112236.19859736 1.0015088.55210293 1.3629985.35350557.3614896.83296202.5645724 1.33289439.5645724h6.16015251c.4999324 0 .9793888-.2030828 1.3328944-.5645724.3535056-.3614897.5521029-.8517749.5521029-1.3629985v-9.2815169h1.5365301c.284159 0 .5146038-.2355591.5146038-.52613598.0024773-.1403278-.0509061-.27568234-.1479583-.37492643-.0970521-.09924408-.2294171-.15383319-.3666455-.15120954zm-6.50160366 9.62828835c.13686415 0 .26808882-.0557588.36464669-.1549462.09655786-.0991875.15049082-.2336275.14987403-.3735813v-5.60334814c0-.29057688-.23036171-.52613598-.51452072-.52613598-.284159 0-.51452072.2355591-.51452072.52613598v5.60334814c-.00061678.1399538.05331617.2743938.14987404.3735813.09655786.0991874.22778254.1549462.36464668.1549462m-2.40185141 0c.28545063 0 .5168541-.2366298.5168541-.5285275v-5.60334814c.01297267-.19687356-.08238088-.38474236-.24728516-.48720958-.16490427-.10246722-.37189491-.10246722-.53679918 0-.16490428.10246722-.26025783.29033602-.24728516.48720958v5.60334814c.00731111.2878214.23308706.519746.5145154.5285275m4.80370287 0c.2845369-.0013166.5145183-.2375612.5145154-.5285275v-5.60334814c.0129726-.19687356-.0823809-.38474236-.2472852-.48720958s-.3718949-.10246722-.5367992 0c-.16490426.10246722-.26025782.29033602-.24728514.48720958v5.60334814c0 .2918977.23140344.5285275.51685414.5285275" fill="#595959"/></g></svg>