<svg height="14" viewBox="0 0 14 14" width="14" xmlns="http://www.w3.org/2000/svg"><g fill="none"><path d="m0 0h14v14h-14z" fill="#000" opacity="0"/><path d="m1.3125 7c.06753906-3.07617188 2.61105469-5.51796875 5.6875-5.46 3.0764453-.05796875 5.6199609 2.38382812 5.6875 5.46-.0675391 3.0761719-2.6110547 5.5179688-5.6875 5.46-3.07644531.0579688-5.61996094-2.3838281-5.6875-5.46zm.875 0c.05742188 2.60285156 2.20951172 4.6688086 4.8125 4.62.85285156.0019141 1.69175781-.2171094 2.43482422-.6358789-2.44876953-3.18500001-4.34287109-5.64839844-5.68230469-7.39019532-.9891702.85600231-1.55982229 2.09795701-1.56501953 3.40607422zm7.9671484 3.4860547c1.0442579-.85722657 1.6519727-2.13513673 1.6578516-3.4860547-.0574219-2.60285156-2.20951172-4.66880859-4.8125-4.62-.89483523-.00149622-1.7732191.2404776-2.54105469.7z" fill="#082340"/></g></svg>