<svg height="16" viewBox="0 0 16 16" width="16" xmlns="http://www.w3.org/2000/svg"><g fill="none"><path d="m0 0h16v16h-16z" fill="#000" opacity="0"/><path d="m11.7333333 5.28928155c1.8041301.00000002 3.2666667 1.4625365 3.2666667 3.26666666 0 1.80413019-1.4625366 3.26666669-3.2666667 3.26666669h-.4666667c-.2577329 0-.4666666-.2089338-.4666666-.4666667s.2089337-.4666667.4666666-.4666667h.4666667c1.2886644 0 2.3333333-1.04466887 2.3333333-2.33333329 0-1.28866441-1.0446689-2.33333333-2.3333333-2.33333333-.1362113-.00046467-.2721576.01203615-.406.03733333-.1275249.02566089-.2599729-.00306971-.3654036-.0792633-.1054306-.07619358-.1742746-.19293444-.1899297-.32207003-.1966199-1.37986329-1.37819875-2.40501139-2.772-2.40501139-1.39380135 0-2.57538018 1.0251481-2.77200005 2.40501139-.01565519.12913559-.08449912.24587645-.18992978.32207003-.10543066.07619359-.23787863.10492419-.36540355.0792633-.13384238-.02529718-.26978871-.037798-.406-.03733333-1.28866442 0-2.33333334 1.04466892-2.33333334 2.33333333 0 1.28866442 1.04466892 2.33333329 2.33333334 2.33333329h.46666666c.25773289 0 .46666667.2089338.46666667.4666667s-.20893378.4666667-.46666667.4666667h-.46666666c-1.80413017 0-3.26666662-1.4625365-3.26666662-3.26666669 0-1.80413016 1.46253645-3.26666664 3.26666662-3.26666666h.12133333c.42944363-1.64307765 1.91372853-2.78928155 3.61200005-2.78928155 1.69827142 0 3.1825563 1.1462039 3.612 2.78928155zm-4.20000002 3.73333333c0-.25773288.20893379-.46666667.46666667-.46666667s.46666667.20893379.46666667.46666667v4.20000002c0 .2577329-.20893379.4666666-.46666667.4666666s-.46666667-.2089337-.46666667-.4666666zm1.75 2.02533332c.17305735-.1801725.45731016-.1921016.64485484-.0270623s.21185278.448502.05514516.6430623l-1.63333333 1.8666667c-.08858875.1004502-.21606639.1579957-.35.1579957-.1339336 0-.26141125-.0575455-.35-.1579957l-1.63333333-1.8666667c-.11885732-.1237441-.16022341-.302731-.10771673-.4660794.05250669-.1633485.1904164-.284709.35911498-.3160212.16869857-.0313122.34097359.0324749.44860175.1661006l1.28333333 1.4653333z" fill="#595959"/></g></svg>