<svg height="16" viewBox="0 0 16 16" width="16" xmlns="http://www.w3.org/2000/svg"><g fill="none"><path d="m0 0h16v16h-16z" fill="#000" opacity="0"/><path d="m8 15c-3.85998437 0-7-3.1400156-7-7 0-3.85998437 3.14001563-7 7-7 3.8599844 0 7 3.14001563 7 7 0 3.8599844-3.1400156 7-7 7zm0-13c-3.3085 0-6 2.6915-6 6s2.6915 6 6 6 6-2.6915 6-6-2.6915-6-6-6zm-1.96267516 5.80261618c.00051562-.00198438.00301562-.004.004-.006.024-.0565.05701562-.1105.103-.157.00051562-.00051563.001-.00051563.0015-.001.00051562-.00051563.00051562-.001.001-.0015l2.483-2.48998438c.195-.19551562.51148437-.1965.707-.001.19551562.195.196.51148438.001.707l-2.1295 2.1355 2.147 2.1235c.1965.1944844.19801562.5105.004.707-.09748438.0989844-.2265.1485-.35548438.1485-.127 0-.254-.0484844-.35151562-.1445l-2.50398438-2.4765c-.1485-.14654687-.18551562-.3625625-.111-.54404687z" fill="#595959" transform="matrix(-1 0 0 1 16 0)"/></g></svg>