<svg height="16" viewBox="0 0 16 16" width="16" xmlns="http://www.w3.org/2000/svg"><g fill="none"><path d="m0 0h16v16h-16z" fill="#000" opacity="0"/><g fill="#6f8794"><path d="m8 1c-3.865625 0-7 3.134375-7 7s3.134375 7 7 7 7-3.134375 7-7-3.134375-7-7-7zm0 12.8125c-3.209375 0-5.8125-2.603125-5.8125-5.8125s2.603125-5.8125 5.8125-5.8125 5.8125 2.603125 5.8125 5.8125-2.603125 5.8125-5.8125 5.8125z"/><path d="m9.74375 4.9484375c-.46875-.4109375-1.0875-.6359375-1.74375-.6359375s-1.275.2265625-1.74375.6359375c-.4875.4265625-.75625 1-.75625 1.6140625v.11875c0 .06875.05625.125.125.125h.75c.06875 0 .125-.05625.125-.125v-.11875c0-.6890625.6734375-1.25 1.5-1.25s1.5.5609375 1.5 1.25c0 .4859375-.34375.93125-.8765625 1.1359375-.33125.1265625-.6125.3484375-.8140625.6390625-.2046875.296875-.3109375.653125-.3109375 1.0140625v.3359375c0 .06875.05625.125.125.125h.75c.06875 0 .125-.05625.125-.125v-.3546875c0-.3078125.19375-.5890625.4828125-.7.921875-.3546875 1.5171943-1.1671875 1.5171943-2.0703125.0015557-.6140625-.2671943-1.1875-.7546943-1.6140625z"/><path d="m7.375 11.4375c0 .345178.27982203.625.625.625s.625-.279822.625-.625-.27982203-.625-.625-.625-.625.279822-.625.625z"/></g></g></svg>