<svg height="16" viewBox="0 0 16 16" width="16" xmlns="http://www.w3.org/2000/svg"><g fill="none"><path d="m0 0h16v16h-16z" fill="#000" opacity="0"/><path d="m11.5551482 4.01193981c0 .40784361.3306225.73846618.7384661.73846618s.7384662-.33062257.7384662-.73846618c0-.4078436-.3306226-.73846617-.7384662-.73846617s-.7384661.33062257-.7384661.73846617zm1.6448518 3.99080424c-.0000398.32567653.1736838.62663106.4557213.7894808s.6295335.16284974.9115711 0c.2820375-.16284974.455761-.46380427.4557212-.7894808.0000398-.32567652-.1736837-.62663106-.4557212-.7894808-.2820376-.16284974-.6295336-.16284974-.9115711 0s-.4557611.46380428-.4557213.7894808zm-1.9448469 4.01080385c0 .5926159.48041 1.073026 1.0730259 1.073026.5926158 0 1.0730259-.4804101 1.0730259-1.073026 0-.3833552-.2045176-.7375901-.5365129-.9292677-.3319954-.1916776-.7410306-.1916776-1.073026 0s-.5365129.5459125-.5365129.9292677zm-4.17710555 1.7296052c-.00004643.4441203.23686228.8545243.62147405 1.0765979.38461176.2220736.8584864.2220736 1.24309816 0s.62152048-.6324776.62147405-1.0765979c.00004643-.4441204-.23686229-.8545243-.62147405-1.0765979s-.8584864-.2220736-1.24309816 0c-.38461177.2220736-.62152048.6324775-.62147405 1.0765979zm-4.09601991-1.7926476c0 .4946494.26389231.9517243.69227127 1.1990491.42837896.2473247.95616361.2473247 1.38454257 0 .42837896-.2473248.69227127-.7043997.69227127-1.1990491 0-.7646617-.61988081-1.3845425-1.38454255-1.3845425s-1.38454256.6198808-1.38454256 1.3845425zm3.89797966-9.48484471c0 .80932404.65608676 1.4654108 1.4654108 1.4654108.80932403 0 1.46541079-.65608676 1.46541079-1.4654108 0-.52354086-.2793057-1.00731257-.73270538-1.269083-.45339969-.26177043-1.01201114-.26177043-1.46541082 0s-.73270539.74554214-.73270539 1.269083zm-3.9788479 1.58084369c0 .52354085.27930571 1.00731256.73270539 1.26908299s1.01201113.26177043 1.46541081 0 .73270539-.74554214.73270539-1.26908299c0-.80932404-.65608676-1.4654108-1.46541079-1.4654108-.80932404 0-1.4654108.65608676-1.4654108 1.4654108zm-1.9011594 3.91015337c0 .49884334.26612974.95979359.69814074 1.20921526s.9642705.24942167 1.3962815 0 .69814074-.71037192.69814074-1.20921526c0-.77114497-.62513651-1.39628149-1.39628149-1.39628149-.77114497 0-1.39628149.62513652-1.39628149 1.39628149z" fill="#595959"/></g></svg>