<svg height="16" viewBox="0 0 16 16" width="16" xmlns="http://www.w3.org/2000/svg"><g fill="none"><path d="m0 0h16v16h-16z" fill="#000" opacity="0"/><path d="m8.03187979 15c-.90913377 0-1.79021803-.1781968-2.62015321-.5296405-.80188568-.339894-1.52127284-.8249853-2.14001179-1.4420743-.61873895-.6187389-1.10383029-1.3381261-1.44207425-2.1400118-.35144372-.8299352-.52964054-1.71101942-.52964054-2.62015319 0-1.06588096.24254567-2.08391279.71938715-3.0293459.4537419-.90088392 1.11868003-1.70111963 1.92221568-2.31655864.29039481-.22274602.60058927-.42239245.92233353-.59398939.28049499-.15014732.63193871-.0445492.78208603.23759576.15014732.28049499.04454921.63193871-.23759575.78208603-.26729523.14189747-.52304066.30854449-.76393636.49334119-.66493813.5098409-1.21602829 1.17477903-1.59387154 1.92056571-.39434296.78208603-.59398939 1.62687095-.59398939 2.50960518 0 1.4899234.58078962 2.89074835 1.63347083 3.94342955 1.0526812 1.0526812 2.45350618 1.6334709 3.94342958 1.6334709 1.48992339 0 2.89074834-.5807897 3.94342954-1.6334709s1.6334709-2.45350615 1.6334709-3.94342955c0-.8843842-.2012964-1.73081909-.5972894-2.51455509-.3778432-.74743666-.9305833-1.41237478-1.5988214-1.92221568-.2326459-.17819682-.4801414-.33824396-.7375368-.47684148-.280495-.15179729-.3860931-.50159105-.2342959-.78208604.1517973-.28049499.5015911-.3860931.7820861-.23429581.3101944.16664702.6088391.36134354.8893341.57418974.8051856.61543901 1.4734237 1.41732469 1.9288156 2.31820861.4784914.94708308.7210371 1.96676488.7210371 3.03429581 0 .90913377-.1781968 1.79021799-.5296406 2.62015319-.3398939.8018857-.8249852 1.5212729-1.4420742 2.1400118-.618739.618739-1.3381261 1.1038303-2.1400118 1.4420743-.82993518.3514437-1.71101945.5296405-2.62015321.5296405zm0-6.18408957c-.31844432 0-.57748969-.25904537-.57748969-.57748969v-6.66093105c0-.31844432.25904537-.57748969.57748969-.57748969.31844431 0 .57748969.25904537.57748969.57748969v6.66093105c0 .31844432-.25904538.57748969-.57748969.57748969z" fill="#595959"/></g></svg>