<svg height="16" viewBox="0 0 16 16" width="16" xmlns="http://www.w3.org/2000/svg"><g fill="none"><path d="m0 0h16v16h-16z" fill="#000" opacity="0"/><path d="m8 15c-3.85998438 0-7-3.1400156-7-7 0-3.85998437 3.14001562-7 7-7 3.8599844 0 7 3.14001563 7 7 0 3.8599844-3.1400156 7-7 7zm0-13c-3.3085 0-6 2.6915-6 6s2.6915 6 6 6 6-2.6915 6-6-2.6915-6-6-6zm2.9148343 6.40961596-3.62810313 2.53967224c-.22622465.1583572-.53798988.1033398-.69634713-.1228848-.05882924-.0840418-.09038404-.1841451-.09038404-.2867312v-5.07934442c0-.27614237.22385763-.5.5-.5.10258605 0 .2026894.0315548.28673117.09038404l3.62810313 2.53967222c.2262247.15835725.2812421.47012248.1228848.69634713-.0334744.04782066-.0750641.08941033-.1228848.12288479z" fill="#595959"/></g></svg>