<svg height="16" viewBox="0 0 16 16" width="16" xmlns="http://www.w3.org/2000/svg"><g fill="none"><path d="m0 0h16v16h-16z" fill="#000" opacity="0"/><path d="m8 15c-3.85998438 0-7-3.1400156-7-7 0-3.85998437 3.14001562-7 7-7 3.8599844 0 7 3.14001563 7 7 0 3.8599844-3.1400156 7-7 7zm0-13c-3.3085 0-6 2.6915-6 6s2.6915 6 6 6 6-2.6915 6-6-2.6915-6-6-6zm1.5 4c.27614237 0 .5.22385763.5.5v3c0 .27614237-.22385763.5-.5.5s-.5-.22385763-.5-.5v-3c0-.27614237.22385763-.5.5-.5zm-3 0c.27614237 0 .5.22385763.5.5v3c0 .27614237-.22385763.5-.5.5s-.5-.22385763-.5-.5v-3c0-.27614237.22385763-.5.5-.5z" fill="#595959"/></g></svg>