<svg height="16" viewBox="0 0 16 16" width="16" xmlns="http://www.w3.org/2000/svg"><g fill="none"><path d="m0 0h15.98439v16h-15.98439z" fill="#000" opacity="0"/><path d="m13.1048684 1c1.0420599 0 1.8951316.853125 1.8951316 1.896125v10.208625c-.0033618 1.0453219-.8498749 1.891888-1.8951316 1.89525h-10.2088619c-1.04559828-.0028818-1.89264222-.8495878-1.8960065-1.89525v-10.208625c.00087495-1.043.85482157-1.896125 1.89688144-1.896125zm-.104297 1h-1.0005714v3.95682796c0 .57362724-.4721157 1.04317204-1.0496705 1.04317204h-5.90144586c-.57676797 0-1.04888364-.4695448-1.04888364-1.04317204v-3.95682796h-1.00057143c-.55152135.00188375-.99801762.44876295-.99942857 1.00028571v10.00028569c.00188375.5515214.44876295.9980177 1.00028571.9994286h10.00028569c.5511881-.0018812.9975474-.4482405.9994286-.9994286v-10.00028569c-.0014109-.55152276-.4479072-.99840196-.9994286-1.00028571zm-2.0005714 0h-6l.00073457 3.764955c0 .12916888.1101861.235045.24461313.235045h5.5093046c.1351616 0 .2453477-.10587612.2453477-.235045zm-.8169444.583c.2747317 0 .4995122.13557289.4995122.29994001v1.40011998c0 .14434613-.1659785.2657281-.3968761.29381819l-.1026361.00612182c-.27541807-.00065758-.49841707-.13456086-.49951219-.29994001v-1.40011998c0-.16436712.22478049-.29994001.49951219-.29994001z" fill="#595959"/></g></svg>