<svg height="16" viewBox="0 0 16 16" width="16" xmlns="http://www.w3.org/2000/svg"><g fill="none" transform="matrix(-1 0 0 1 16 0)"><path d="m0 0h16v16h-16z" fill="#000" opacity="0"/><path d="m8 15.5c-4.142 0-7.5-3.358-7.5-7.5s3.358-7.5 7.5-7.5 7.5 3.358 7.5 7.5-3.358 7.5-7.5 7.5zm0-1c3.59 0 6.5-2.91 6.5-6.5s-2.91-6.5-6.5-6.5-6.5 2.91-6.5 6.5 2.91 6.5 6.5 6.5zm1.431-9.8315 2.6595 3c.1675871.18922916.1675871.47377084 0 .663l-2.66 3c-.11668832.1400145-.30032109.2054413-.47925411.1707541-.17893303-.0346872-.32481588-.1639924-.38073247-.3374674s-.0130074-.363634.11198658-.4962867l1.9225-2.1685h-6.355c-.27614237 0-.5-.22385763-.5-.5s.22385763-.5.5-.5h6.355l-1.922-2.1685c-.12499398-.13265268-.16790317-.32281172-.11198658-.49628668.05591659-.17347497.20179944-.30278023.38073247-.33746742.17893302-.03468719.36256579.03073958.47925411.1707541z" fill="#082340"/></g></svg>