<svg height="16" viewBox="0 0 16 16" width="16" xmlns="http://www.w3.org/2000/svg"><g fill="none"><path d="m0 0h16v16h-16z" fill="#000" opacity="0"/><path d="m15.1237037 8.046875c-.0031481-.1828125-.0865741-.3625-.2424074-.4828125-.275463-.2140625-.6737037-.1671875-.8909259.10625-.0897223.1140625-.1337963.246875-.1353704.38125h-.0062963c-.0094444 1.2234375-.4108333 2.453125-1.2277778 3.4890625-1.9660185 2.4875-5.60370368 2.9234375-8.1096296.9734375-2.50592593-1.95-2.94666667-5.5609375-.98064815-8.0484375s5.6037037-2.9234375 8.10962965-.9734375c.4659259.3625.8594444.7828125 1.1805555 1.2421875h-1.1569444c-.3525926 0-.6406482.2859375-.6406482.6359375v.046875c0 .35.2880556.6359375.6406482.6359375h2.7908333c.3525926 0 .6406482-.2859375.6406482-.6359375v-2.771875c0-.35-.2880556-.6359375-.6406482-.6359375h-.0472222c-.3525926 0-.6406481.2859375-.6406481.6359375v1.2265625c-.3793519-.5140625-.827963-.975-1.3411112-1.375-.7492592-.5828125-1.5898148-1.003125-2.50120366-1.2484375-.87990741-.2359375-1.78657408-.3-2.69481482-.1921875-.90824074.109375-1.77398148.3859375-2.57046296.825-.82638889.453125-1.54259259 1.0609375-2.12972222 1.803125-.58712963.74375-1.01055556 1.578125-1.25768519 2.4828125-.23925926.8734375-.30379629 1.7734375-.19361111 2.675.11018519.9015625.3887963 1.7609375.83111111 2.5515625.45648148.8203125 1.0687963 1.53125 1.81648148 2.1140625.74925926.5828125 1.58981482 1.003125 2.50120371 1.2484375.8799074.2375 1.78657407.3015625 2.69481481.1921875s1.77398145-.3859375 2.57046295-.825c.8263889-.453125 1.5425926-1.0609375 2.1297222-1.803125.5871297-.74375 1.0105556-1.578125 1.2576852-2.4828125.1605556-.5859375.2424074-1.1859375.2439815-1.790625z" fill="#595959"/></g></svg>