<svg height="16" viewBox="0 0 16 16" width="16" xmlns="http://www.w3.org/2000/svg"><g fill="none" fill-rule="evenodd"><path d="m0 0h16v16h-16z" fill="#000" opacity="0"/><path d="m14.8531216 14.1781152-2.3758292-2.5422443c.9629951-1.1597897 1.492604-2.60556145 1.492604-4.12748959 0-3.57045923-2.9054541-6.47591333-6.4769686-6.47591333-3.57042725 0-6.47588136 2.90494246-6.47588136 6.47591333 0 3.57097089 2.90543811 6.47588139 6.47642498 6.47588139.93554171-.0004317 1.83777799-.1957233 2.68119018-.5798469.2506301-.1140986.3612271-.4094983.2471284-.6596008-.1140986-.2510937-.4110173-.3621385-.65960077-.2470485-.713868.3247398-1.47717446.489684-2.26927743.4901477-3.02142347 0-5.47951689-2.4580135-5.47951689-5.47953287 0-3.02100775 2.4580934-5.47956486 5.47951689-5.47956486 3.0219991 0 5.4805402 2.45809341 5.4805402 5.47956486 0 1.42234764-.5424482 2.76989797-1.5268688 3.79469117-.1908146.1982496-.184339.5136518.0134469.7044504.0149179.0144382.0343607.0199225.0513252.0323781.0134469.0199065.0203542.0428029.0373187.0607428l2.5765891 2.7569947c.0976778.1051287.2307076.157877.3636574.157877.1220932 0 .2441705-.044306.3403453-.1344689.2007598-.1868653.2117124-.5021715.0238558-.7029314z" fill="#595959"/></g></svg>