<svg height="24" viewBox="0 0 24 24" width="24" xmlns="http://www.w3.org/2000/svg"><g fill="none"><path d="m0 0h24v24h-24z" fill="#000" opacity="0"/><path d="m12 24c-6.627417 0-12-5.372583-12-12s5.372583-12 12-12 12 5.372583 12 12c0 3.1825979-1.2642821 6.2348448-3.5147186 8.4852814-2.2504366 2.2504365-5.3026835 3.5147186-8.4852814 3.5147186zm0-22.15384615c-5.60781438 0-10.15384615 4.54603177-10.15384615 10.15384615 0 5.6078144 4.54603177 10.1538462 10.15384615 10.1538462 5.6078144 0 10.1538462-4.5460318 10.1538462-10.1538462 0-2.69296744-1.0697772-5.27563794-2.9739927-7.17985347-1.9042156-1.90421554-4.4868861-2.97399268-7.1798535-2.97399268zm2.7692308 14.76923075h-5.53846157c-1.01960261 0-1.84615385-.8265512-1.84615385-1.8461538v-5.53846157c0-1.01960261.82655124-1.84615385 1.84615385-1.84615385h5.53846157c1.0196026 0 1.8461538.82655124 1.8461538 1.84615385v5.53846157c0 1.0196026-.8265512 1.8461538-1.8461538 1.8461538z" fill="#fff"/></g></svg>