<svg fill="none" height="16" viewBox="0 0 16 16" width="16" xmlns="http://www.w3.org/2000/svg"><path d="m8 15c3.866 0 7-3.134 7-7s-3.134-7-7-7-7 3.134-7 7 3.134 7 7 7z" fill="#3ebb03"/><path clip-rule="evenodd" d="m11.9242 5.57564c.2343.23431.2343.61421 0 .84853l-4.6667 4.66663c-.11602.1161-.2745.1795-.43853.1756-.16404-.0039-.31932-.0748-.42969-.1962l-1.83334-2.01669c-.2229-.2452-.20483-.62467.04036-.84757.2452-.22291.62467-.20484.84757.04036l1.41005 1.55106 4.22168-4.22172c.2344-.23432.6143-.23432.8486 0z" fill="#fff" fill-rule="evenodd"/></svg>