<svg height="16" viewBox="0 0 16 16" width="16" xmlns="http://www.w3.org/2000/svg"><g fill="none"><path d="m0 0h16v16h-16z" fill="#000" opacity="0"/><path d="m8 15c-3.85998438 0-7-3.1400156-7-7 0-3.85998437 3.14001562-7 7-7 3.8599844 0 7 3.14001563 7 7 0 3.8599844-3.1400156 7-7 7zm0-13c-3.3085 0-6 2.6915-6 6s2.6915 6 6 6 6-2.6915 6-6-2.6915-6-6-6zm4.9327381 1.64034995c.2343146.23431458.2343146.61421357 0 .84852814l-8.34386001 8.34386001c-.23431457.2343146-.61421356.2343146-.84852814 0-.23431457-.2343146-.23431457-.6142136 0-.8485281l8.34386005-8.34386005c.2343145-.23431457.6142135-.23431457.8485281 0z" fill="#595959"/></g></svg>