<svg height="16" viewBox="0 0 16 16" width="16" xmlns="http://www.w3.org/2000/svg"><path d="m14.9375 9.76175c-1.69325 2.289-4.171 3.73625-6.9375 3.73625-2.76625 0-5.244-1.44725-6.9375-3.73625-.74775-1.0105-.74775-2.5125 0-3.52325 1.6935-2.289 4.17125-3.73625 6.9375-3.73625 2.7665 0 5.24425 1.44725 6.9375 3.73625.74775 1.01075.74775 2.51275 0 3.52325zm-.752-2.69325c-1.57075-2.2665-3.8315-3.56625-6.2025-3.56625s-4.63175 1.29975-6.2025 3.56625c-.37425.54-.37425 1.32375 0 1.86375 1.57075 2.2665 3.8315 3.5665 6.2025 3.5665s4.63175-1.3 6.2025-3.56675c.37425-.53975.37425-1.3235 0-1.8635zm-6.1805 4.42875c-1.933 0-3.5-1.567-3.5-3.5s1.567-3.5 3.5-3.5 3.5 1.567 3.5 3.5-1.567 3.5-3.5 3.5zm0-6c-1.38075 0-2.5 1.11925-2.5 2.5s1.11925 2.5 2.5 2.5 2.5-1.11925 2.5-2.5-1.11925-2.5-2.5-2.5z" fill="#595959"/></svg>