<svg fill="none" height="16" viewBox="0 0 16 16" width="16" xmlns="http://www.w3.org/2000/svg"><path clip-rule="evenodd" d="m8.86526 3.16158c-.38516-.66529-1.34568-.66529-1.73085 0l-5.59888 9.67082c-.38597.6666.09509 1.501.86542 1.501h11.19775c.7704 0 1.2514-.8344.8655-1.501z" fill="#ec4d4d" fill-rule="evenodd"/><g fill="#fff"><path d="m8.00016 11c.36819 0 .66667.2985.66667.6667v.3333c0 .3682-.29848.6667-.66667.6667s-.66666-.2985-.66666-.6667v-.3333c0-.3682.29847-.6667.66666-.6667z"/><path d="m7.99961 5.66675c.36819-.00031.66691.29792.66722.66611l.00277 3.33317c.0003.36817-.29793.66687-.66612.66717-.36819.0004-.66691-.2979-.66722-.66607l-.00276-3.33316c-.00031-.36819.29792-.66692.66611-.66722z"/></g></svg>