<svg height="200" viewBox="0 0 200 200" width="200" xmlns="http://www.w3.org/2000/svg"><g fill="none" fill-rule="evenodd"><rect fill="#fff" height="198" rx="51" stroke="#2962ff" stroke-width="2" width="198" x="1" y="1"/><g fill-rule="nonzero" transform="translate(40 40)"><path d="m0 0h120v120h-120z" fill="#2f54eb" opacity="0"/><path d="m60.2793182 33.1036364c-19.8031862 0-35.9142533 16.2409091-35.9142533 36.2072727s16.1110671 36.2086359 35.9142533 36.2086359c19.8031865 0 35.9142533-16.2409088 35.9142533-36.2086359 0-19.9650001-16.1110668-36.2072727-35.9142533-36.2072727zm6.2590735 39.7663634-.0203834-.040909c-1.2311596 2.2131818-3.5507945 3.7227274-6.2386901 3.7227274-3.9611808 0-7.1832107-3.2468184-7.1832107-7.2409091-.0083791-2.4191062 1.1943395-4.6807897 3.2016465-6.0204546l-.0203834-.040909 23.6828334-13.6554547-13.4218123 23.2772728zm32.7303605-35.5540907 4.5441468-4.5804547c.802474-.8087268.802474-2.1162731 0-2.9249999l-4.3525422-4.3881818c-.3837706-.3883975-.9062453-.6068755-1.4513007-.6068755-.5450551 0-1.0675301.218478-1.4513004.6068755l-4.5427883 4.5804545c-7.411417-6.0886363-16.5703738-10.0949999-26.6044591-11.1190908v-8.5390909h6.1557973c1.0909363-.0025287 2.1361893-.43983996 2.905814-1.21572977.7696246-.77588978 1.2005767-1.82680079 1.1980509-2.92154305v-2.06863629c.002887-1.09474248-.427719-2.14579765-1.1970891-2.92194337-.7693699-.77614571-1.8144803-1.21380357-2.9054169-1.21669302h-22.5753335c-1.0911724.00252832-2.1366319.4400269-2.9062955 1.21621183-.7696639.77618492-1.2004564 1.82744638-1.1975696 2.92242456v2.06863629c-.0025256 1.09474226.4284262 2.14565327 1.1980509 2.92154305.7696246.77588981 1.8148779 1.21320107 2.9058142 1.21572977h6.1557973v8.5363636c-10.0340856 1.0281818-19.1930424 5.0331818-26.6044592 11.1190909l-4.5427882-4.5804545c-.3837703-.3883975-.9062453-.6068755-1.4513005-.6068755-.5450553 0-1.0675303.218478-1.4513006.6068755l-4.3525427 4.3895455c-.8033762.8088847-.8033762 2.1174786 0 2.9263634l4.544147 4.5804547c-7.3201077 9.0430261-11.30761143 20.3431214-11.2898249 31.9936363 0 27.994091 22.5129441 50.6904546 50.279259 50.6904546s50.2792738-22.6963636 50.2792738-50.6904546c.018885-11.6507061-3.968747-22.9511651-11.2898398-31.9936363zm-38.989434 76.2122729c-24.1937781 0-43.8855352-19.8409093-43.8855352-44.2172729 0-24.375 19.6917568-44.2159091 43.8855352-44.2159091s43.8855348 19.8409091 43.8855348 44.2159091c0 24.3763636-19.6917564 44.2172729-43.8855348 44.2172729z" fill="#2962ff"/></g></g></svg>