<svg height="200" viewBox="0 0 200 200" width="200" xmlns="http://www.w3.org/2000/svg"><g fill="none" fill-rule="evenodd"><rect fill="#fff" height="198" rx="51" stroke="#000" stroke-width="2" width="198" x="1" y="1"/><g fill-rule="nonzero" transform="translate(40 40)"><path d="m0 0h120v120h-120z" fill="#000" opacity="0"/><path d="m110.356633 0h-100.71326636c-5.32588433 0-9.64336664 4.31748231-9.64336664 9.64336664v100.71326636c.09336813 5.258914 4.38362386 9.472183 9.64336664 9.472183h100.71326636c5.193015-.091394 9.380789-4.279168 9.472183-9.472183v-100.71326636c0-5.25974278-4.213269-9.54999851-9.472183-9.64336664z" fill="#fff"/><g fill="#000" transform="translate(16 16)"><path d="m44.5722656 30.9492188h-19.875c-1.6171875 0-2.9296875 1.3125-2.9296875 2.9296874 0 1.6171875 1.3125 2.9296876 2.9296875 2.9296876h19.875c1.6171875 0 2.9296875-1.3125001 2.9296875-2.9296876 0-1.6171874-1.3125-2.9296874-2.9296875-2.9296874z"/><path d="m18.6738281 0c-.75 0-1.5.28125-2.0742187.85546875l-15.73828127 15.75000005c-1.14843751 1.1484375-1.14843751 3 0 4.1484375l15.74999997 15.75c.5742188.5742187 1.3242188.8554687 2.0742188.8554687s1.5-.28125 2.0742187-.8554687c1.1484375-1.1484375 1.1484375-3.0000001 0-4.1484375l-13.68749997-13.6757813 13.67578127-13.67578125c1.1484375-1.1484375 1.1484375-3 0-4.1484375-.5742188-.5625-1.3242188-.85546875-2.0742188-.85546875z" transform="matrix(-1 0 0 -1 21.621094 37.359376)"/></g></g></g></svg>