<svg height="200" viewBox="0 0 200 200" width="200" xmlns="http://www.w3.org/2000/svg"><g fill="none" fill-rule="evenodd"><rect fill="#fff" height="198" rx="51" stroke="#35474f" stroke-width="2" width="198" x="1" y="1"/><g fill-rule="nonzero" transform="translate(40 40)"><path d="m0 4h120v120h-120z" fill="#000" opacity="0"/><path d="m52.4473683 95.1823128c-7.3 10.3500002-21.55 12.9500002-31.85 5.7500002-10.25-7.2000003-12.64999999-21.5500002-5.45-32.0000002 4.0820932-5.926576 10.7102037-9.5924025 17.9-9.9l.25 7.15c-4.55.35-8.95 2.7-11.8 6.8-5 7.2-3.45 16.9 3.4 21.75 6.9 4.8 16.55 2.95 21.55-4.2 1.55-2.25 2.45-4.7 2.8-7.2v-5.0500001l27.9-.1999999.35-.55c2.6499999-4.6 8.4-6.2000001 12.9-3.6000001 2.1750976 1.2727425 3.7553649 3.3575743 4.3930211 5.7956715.6376561 2.4380971.2804444 5.0296542-.9930211 7.2043286-2.6499999 4.55-8.45 6.15-12.95 3.55-2.05-1.15-3.5-3-4.15-5.1l-20.35.0999999c-.5959679 3.4737265-1.925506 6.7805264-3.9 9.7000001m36.4-35.7c12.6499997 1.55 21.6499997 12.9 20.0999997 25.35-1.55 12.5-13.0499997 21.3500002-25.6999997 19.8000002-7.1192376-.829207-13.4526414-4.9099134-17.15-11.0500003l6.2-3.6c2.5967358 4.0208309 6.8478746 6.6777926 11.6 7.2500001 8.7500001 1.05 16.4999997-4.9 17.5499997-13.2500001 1.05-8.3499999-5.1499997-15.9999999-13.7999997-17.0499999-2.7-.3-5.3.05-7.65.9l-4.25 2.1999999-12.9-23.85h-1.1c-5.2402314-.1525792-9.3732428-4.5089967-9.25-9.75.15-5.1999999 4.65-9.2499999 9.9-9.0499999 5.25.3 9.4 4.55 9.25 9.75-.1 2.2-.9500001 4.2-2.3 5.7499999l9.5 17.55c3.0999999-.9999999 6.5-1.35 10-.9499999m-47.45-13.6000001c-5-11.75.3-25.2 11.85-30.0999999 11.6-4.9 25 .65 30 12.3999999 2.95 6.85 2.35 14.35-1 20.3500001l-6.2-3.6c2.1-4.05 2.45-9 .45-13.65-3.4-8-12.45-11.85-20.2-8.6-7.8 3.3-11.3 12.5-7.9 20.4999999 1.4 3.3 3.75 5.85 6.6 7.5500001l1.95 1.05-15.35 24.95c.15.25.3500001.55.5.9499999 2.45 4.5500001.75 10.3-3.85 12.75-4.55 2.4500001-10.3.6500001-12.8-4.05-2.4500001-4.65-.75-10.4 3.85-12.8499999 1.95-1.05 4.1000001-1.3 6.15-.85l11.55-18.8500001c-2.3499999-2.15-4.35-4.85-5.6-7.95z" fill="#35474f"/></g></g></svg>