<svg height="16" viewBox="0 0 16 16" width="16" xmlns="http://www.w3.org/2000/svg"><g fill="none"><path d="m0 0h16v16h-16z" fill="#000" opacity="0" stroke="#2d2e2e"/><path d="m12.8463715 1c1.1881235 0 2.1536285.96525278 2.1536285 2.1536495v2.69233579c.0028246.26426671-.1920003.4859352-.4504893.53028862l-.0883372.00803245c-.3006955-.00401732-.5411726-.2446914-.537607-.53832107v-2.69233579c0-.59492878-.4813505-1.07664214-1.077195-1.07664214h-9.69237773c-.59544834 0-1.07719497.48098294-1.07719497 1.07664214v9.692701c0 .595294.48174663 1.0766421 1.07759114 1.0766421h4.84599077c.29831843 0 .53879558.2406741.53879558.5386863.00285244.2642667-.1919697.4859352-.45045846.5302886l-.08833712.0080325h-4.84638694c-1.18851964 0-2.15399377-.9652528-2.15399377-2.1536495v-9.692701c0-1.18839672.96507795-2.1536495 2.15399377-2.1536495zm-1.3463715 7c.2761424 0 .5.22385763.5.5l-.0003423 2.508 2.537.000024c.2761423 0 .5.2238577.5.5 0 .2761424-.2238577.5-.5.5l-2.537-.000024.0003423 2.492c0 .2761424-.2238576.5-.5.5s-.5-.2238576-.5-.5l-.0003423-2.492-2.46300004.000024c-.27614237 0-.5-.2238576-.5-.5 0-.2761423.22385763-.5.5-.5l2.46300004-.000024.0003423-2.508c0-.27614237.2238576-.5.5-.5z" fill="#096dd9"/></g></svg>