<svg height="26" viewBox="0 0 1024 1024" width="26" xmlns="http://www.w3.org/2000/svg"><g fill="#6b7b8d"><path d="m629.39164 415.032528-163.616428-163.616428c-7.992021-7.992021-20.947078-7.992021-28.939099 0-7.992021 8.002254-7.992021 20.957311 0 28.949332l128.680754 128.680754h-175.548178v-224.963634c0-11.2973-9.168824-20.466124-20.466124-20.466124h-347.688747c-11.307533 0-20.466124 9.168824-20.466124 20.466124v818.08214c0 11.307533 9.15859 20.466124 20.466124 20.466124h593.108273c11.307533 0 20.466124-9.15859 20.466124-20.466124v-572.652381c0-5.433756-2.159176-10.632152-5.996575-14.479783zm-34.935673 566.66604h-552.176025v-777.149892h306.756499v224.963635c0 11.2973 9.15859 20.466124 20.466124 20.466124h224.953402z"/><path d="m1023.978511 265.895883v572.652382c0 11.307533-9.15859 20.466124-20.466124 20.466124h-307.86167c-11.2973 0-20.466124-9.15859-20.466124-20.466124 0-11.2973 9.168824-20.466124 20.466124-20.466124h287.395546v-531.720134h-224.953402c-11.307533 0-20.466124-9.168824-20.466124-20.466124v-224.963635h-306.756499v75.693959c0 11.307533-9.168824 20.466124-20.466124 20.466124-11.307533 0-20.466124-9.15859-20.466124-20.466124v-96.160083c0-11.2973 9.15859-20.466124 20.466124-20.466124h347.688747c11.2973 0 20.466124 9.168824 20.466124 20.466124v224.963635h175.548178l-128.680754-128.680754c-7.992021-7.992021-7.992021-20.947078 0-28.949332 7.992021-7.992021 20.947078-7.992021 28.939099 0l163.616428 163.626661c3.837398 3.837397 5.996575 9.035793 5.996575 14.469549z"/></g></svg>