<svg height="26" viewBox="0 0 26 26" width="26" xmlns="http://www.w3.org/2000/svg"><g fill="none" fill-rule="evenodd"><path d="m0 0h26v26h-26z" fill="#000" fill-rule="nonzero" opacity="0"/><path d="m21.9375 7.04166666h-.8125v14.62500004c0 .5746357-.2282731 1.1257358-.634602 1.5320647-.4063288.4063288-.9574289.6346019-1.5320647.6346019h-11.91666664c-.57463573 0-1.12573588-.2282731-1.5320647-.6346019-.40632882-.4063289-.63460197-.957429-.63460196-1.5320647v-14.62500004h-.8125c-.44873136 0-.8125-.36376864-.8125-.8125s.36376864-.8125.8125-.8125h17.875c.4487314 0 .8125.36376864.8125.8125s-.3637686.8125-.8125.8125zm-2.4375 0h-13v14.62500004c0 .1436589.05706828.2814339.15865048.3830161.10158221.1015823.23935724.1586505.38301618.1586505h11.91666664c.143659 0 .281434-.0570682.3830162-.1586505.1015822-.1015822.1586505-.2393572.1586505-.3830161zm-4.0625-3.25h-4.875c-.4487314 0-.8125-.36376864-.8125-.8125s.3637686-.8125.8125-.8125h4.875c.4487314 0 .8125.36376864.8125.8125s-.3637686.8125-.8125.8125zm0 15.16666664c-.4487314 0-.8125-.3637686-.8125-.8125v-7.0416666c0-.4487314.3637686-.8125.8125-.8125s.8125.3637686.8125.8125v7.0416666c0 .4487314-.3637686.8125-.8125.8125zm-4.875 0c-.4487314 0-.8125-.3637686-.8125-.8125v-7.0416666c0-.4487314.3637686-.8125.8125-.8125s.8125.3637686.8125.8125v7.0416666c0 .4487314-.3637686.8125-.8125.8125z" fill="#6b7b8d"/></g></svg>