<svg height="26" viewBox="0 0 1024 1024" width="26" xmlns="http://www.w3.org/2000/svg"><path d="m257.7 752c2 0 4-.2 6-.5l168.2-29.5c2-.4 3.9-1.3 5.3-2.8l423.9-423.9c3.9-3.9 3.9-10.2 0-14.1l-166.2-166.3c-1.9-1.9-4.4-2.9-7.1-2.9s-5.2 1-7.1 2.9l-423.9 423.9c-1.5 1.5-2.4 3.3-2.8 5.3l-29.5 168.2c-1.9 11.1 1.5 21.9 9.4 29.8 6.6 6.4 14.9 9.9 23.8 9.9zm67.4-174.4 362.7-362.6 73.3 73.3-362.7 362.6-88.9 15.7zm554.9 258.4h-736c-17.7 0-32 14.3-32 32v36c0 4.4 3.6 8 8 8h784c4.4 0 8-3.6 8-8v-36c0-17.7-14.3-32-32-32z" fill="#fff"/></svg>