<svg height="26" viewBox="0 0 26 26" width="26" xmlns="http://www.w3.org/2000/svg"><g fill="none" fill-rule="evenodd"><path d="m0 0h26v26h-26z" fill="#000" fill-rule="nonzero" opacity="0"/><path d="m22.34375 21.53125c.4487285 0 .8125.3637715.8125.8125s-.3637715.8125-.8125.8125h-18.6875c-.44872852 0-.8125-.3637715-.8125-.8125s.36377148-.8125.8125-.8125zm-1.2424902-17.64813477c1.4389882 1.43896289 1.4533593 3.76306836.043164 5.21975391l-.043164.043875-10.800791 10.80081636c-.1492279.1492045-.35061985.2345451-.56161528.2379864h-4.1275254c-.44423437 0-.80521289-.3565352-.8125-.799043v-4.128084c0-.2110182.08209856-.4137584.22892188-.5653222l.00906445-.0091914 10.80081645-10.80081646c1.4535117-1.45353711 3.8101171-1.45353711 5.2636289 0zm-5.7152266 2.74962696-8.96220508 8.96223051v2.9655742h2.96552344l8.96223044-8.96225588zm1.6253555-1.62489844-.0247051.02429883-.4515977.45154687 2.9655489 2.96554883.4515976-.45154687c.8107227-.81072266.8188223-2.12011719.0242989-2.94081836l-.0242989-.02473047c-.8107226-.81072266-2.1201426-.81882227-2.9408437-.02429883z" fill="#6b7b8d"/></g></svg>