<svg height="26" viewBox="0 0 27 26" width="27" xmlns="http://www.w3.org/2000/svg"><path d="m13 3.57140825c4.824032.00734213 8.8584282 3.66727837 9.3341481 8.46780215.47572 4.8005239-2.7618818 9.181097-7.4906512 10.1350775-4.7287693.9539806-9.41149361-1.8287482-10.83414711-6.4382379s.87723523-9.54730278 5.32111896-11.42433125c1.16091565-.49112598 2.40900635-.74291545 3.66953125-.7403105m0-1.57140825c-6.07504464 0-11 4.92495536-11 11 0 6.0750446 4.92495536 11 11 11 6.0750446 0 11-4.9249554 11-11 0-6.07504464-4.9249554-11-11-11zm-3.92857143 4.71428571v12.57142859l11.00000003-6.2857143z" fill="#6b7b8d" fill-rule="evenodd" transform="translate(.655353)"/></svg>