<svg height="26" viewBox="0 0 26 26" width="26" xmlns="http://www.w3.org/2000/svg"><g fill="none" fill-rule="evenodd"><path d="m0 0h26v26h-26z" fill="#000" fill-rule="nonzero" opacity="0"/><path d="m11.3316667 20.5833333c-1.5816667 2.2425-4.6691667 2.8058334-6.90083336 1.2458334-2.22083334-1.56-2.74083334-4.6691667-1.18083334-6.9333334.88445352-1.2840914 2.32054413-2.0783538 3.87833334-2.145l.05416666 1.5491667c-.98583334.0758333-1.93916666.585-2.55666666 1.4733333-1.08333334 1.56-.7475 3.6616667.73666666 4.7125 1.495 1.04 3.58583334.6391667 4.6691667-.91.3358333-.4875.5308333-1.0183333.6066666-1.56v-1.0941666l6.045-.0433334.0758334-.1191666c.5741666-.9966667 1.82-1.3433334 2.795-.78.4712711.2757608.8136624.7274744.9518212 1.2557288s.060763 1.0897584-.2151546 1.5609378c-.5741666.9858334-1.8308333 1.3325-2.8058333.7691667-.4441667-.2491667-.7583333-.65-.8991667-1.105l-4.4091666.0216667c-.1291264.7526407-.417193 1.469114-.845 2.1016666m7.8866666-7.735c2.7408334.3358334 4.6908334 2.795 4.355 5.4925-.3358333 2.7083334-2.8275 4.6258334-5.5683333 4.29-1.5425015-.1796614-2.914739-1.0638145-3.7158333-2.3941666l1.3433333-.78c.5626261.87118 1.4837062 1.446855 2.5133333 1.5708333 1.8958334.2275 3.575-1.0616667 3.8025-2.8708333.2275-1.8091667-1.1158333-3.4666667-2.99-3.6941667-.585-.065-1.1483333.0108333-1.6575.195l-.9208333.4766667-2.795-5.16750004h-.2383333c-1.1353835-.03305882-2.0308693-.97694928-2.0041667-2.1125.0325-1.12666666 1.0075-2.00416666 2.145-1.96083332 1.1375.065 2.0366667.98583334 2.0041667 2.1125-.0216667.47666666-.2058334.91-.4983334 1.24583332l2.0583334 3.80250004c.6716666-.2166667 1.4083333-.2925 2.1666666-.2058334m-10.2808333-2.94666664c-1.08333334-2.54583334.065-5.46 2.5675-6.52166666 2.5133333-1.06166666 5.4166667.14083334 6.5 2.68666666.6391667 1.48416666.5091667 3.10916666-.2166667 4.40916664l-1.3433333-.77999996c.455-.8775.5308333-1.95.0975-2.9575-.7366667-1.73333334-2.6975-2.5675-4.3766667-1.86333334-1.69.715-2.4483333 2.70833334-1.7116666 4.44166666.3033333.71500004.8125 1.26750004 1.43 1.63583334l.4225.2275-3.32583336 5.4058333c.0325.0541667.07583334.1191667.10833332.2058334.53083334.9858333.1625 2.2316666-.83416666 2.7625-.98583334.5308333-2.23166666.1408333-2.77333334-.8775-.53083334-1.0075-.1625-2.2533334.83416668-2.7841667.4225-.2275.88833334-.2816667 1.3325-.1841667l2.50249996-4.0841666c-.50916662-.4658334-.94249996-1.0508334-1.2133333-1.72250004z" fill="#6b7b8d"/></g></svg>