<svg height="24" viewBox="0 0 24 24" width="24" xmlns="http://www.w3.org/2000/svg"><g fill="none"><path d="m2 2h19.9804878v20h-19.9804878z" fill="#000" opacity="0" transform="matrix(0 1 1 0 -.009756 .009756)"/><path d="m11.992519 3.00942367c3.9153486-.00020541 7.3815327 2.53142729 8.572897 6.26147534 1.1913642 3.73004809-.1655161 7.80244439-3.3559659 10.07223889l-1.5311397-2.0661428c2.2868264-1.6008834 3.2791636-4.4948409 2.455969-7.162353-.8231947-2.66751216-3.273741-4.49879263-6.0649399-4.53229787-2.79119893-.03350524-5.28498956 1.73842396-6.17196664 4.38540739-.88697708 2.64698338.03562004 5.56392758 2.28336676 7.21924348l1.47714487-1.9221429 2.33463451 5.7445715h-6.74935644l1.37044076-1.7858572-.19283876-.1465714c-3.01045752-2.3737258-4.18679048-6.3941973-2.930685-10.01649701 1.25610547-3.62229971 4.66885702-6.05107442 8.50243944-6.05107442z" fill="#6b7b8d" transform="matrix(.25881905 .96592583 .96592583 -.25881905 -2.711401 3.533566)"/></g></svg>