<svg height="26" viewBox="0 0 1024 1024" width="26" xmlns="http://www.w3.org/2000/svg"><g fill="#59677a"><path d="m531.2 768h-424.533333c-12.8 0-21.333333-8.533333-21.333334-21.333333v-469.333334c0-12.8 8.533333-21.333333 21.333334-21.333333h424.533333c12.8 0 21.333333 8.533333 21.333333 21.333333s-8.533333 21.333333-21.333333 21.333334h-403.2v426.666666h403.2c12.8 0 21.333333 8.533333 21.333333 21.333334s-8.533333 21.333333-21.333333 21.333333zm386.133333 0h-128c-12.8 0-21.333333-8.533333-21.333333-21.333333s8.533333-21.333333 21.333333-21.333334h106.666667v-426.666666h-106.666667c-12.8 0-21.333333-8.533333-21.333333-21.333334s8.533333-21.333333 21.333333-21.333333h128c12.8 0 21.333333 8.533333 21.333334 21.333333v469.333334c0 12.8-8.533333 21.333333-21.333334 21.333333zm-256 170.666667c-12.8 0-21.333333-8.533333-21.333333-21.333334v-810.666666c0-12.8 8.533333-21.333333 21.333333-21.333334s21.333333 8.533333 21.333334 21.333334v810.666666c0 12.8-8.533333 21.333333-21.333334 21.333334z"/><path d="m746.666667 128h-170.666667c-12.8 0-21.333333-8.533333-21.333333-21.333333s8.533333-21.333333 21.333333-21.333334h170.666667c12.8 0 21.333333 8.533333 21.333333 21.333334s-8.533333 21.333333-21.333333 21.333333zm-298.666667 405.333333h-213.333333c-12.8 0-21.333333-8.533333-21.333334-21.333333s8.533333-21.333333 21.333334-21.333333h213.333333c12.8 0 21.333333 8.533333 21.333333 21.333333s-8.533333 21.333333-21.333333 21.333333zm298.666667 405.333334h-170.666667c-12.8 0-21.333333-8.533333-21.333333-21.333334s8.533333-21.333333 21.333333-21.333333h170.666667c12.8 0 21.333333 8.533333 21.333333 21.333333s-8.533333 21.333333-21.333333 21.333334z"/></g></svg>