<svg fill="none" height="26" viewBox="0 0 26 26" width="26" xmlns="http://www.w3.org/2000/svg" xmlns:xlink="http://www.w3.org/1999/xlink"><clipPath id="a"><path d="m0 0h24v24h-24z"/></clipPath><g clip-path="url(#a)"><path d="m9.9 16.97 7.436-7.436a8 8 0 0 0 2.145-3.89l.318-1.401-1.402.317a8 8 0 0 0 -3.89 2.146l-5.315 5.314m.707 4.95 2.122 3.535c1.178-1.178 2.828-2.828 0-5.657zm0 0-2.828-2.829m0 0-3.535-2.121c1.178-1.179 2.828-2.829 5.656 0m-2.12 2.121 2.12-2.121m-4.242 4.243s-1.703 2.54-.707 3.536c.995.996 3.535-.707 3.535-.707" stroke="#000" stroke-linecap="round" stroke-linejoin="round" stroke-width="2"/></g></svg>