<svg height="26" viewBox="0 0 1024 1024" width="26" xmlns="http://www.w3.org/2000/svg"><g fill="#fff"><path d="m705.512 603.112c-2.168 2.08-4.296 4.208-6.408 6.36-.088 20.216-3.4 48.608-12.192 84.32-15.792 64.152-42.36 121.976-67.688 147.304-4.736 4.736-11.688 10.384-17.896 10.384-17.112 0-37.56-41.496-51.096-68.96-8.824-17.896-16.72-33.84-25.296-45.568a420.4 420.4 0 0 0 -25.904 18.792c7 9.552 14.848 25.408 22.496 40.928 20.056 40.688 42.784 86.808 79.8 86.808 13.776 0 27.416-6.648 40.52-19.76 35.4-35.4 62.544-107.04 76.144-162.28 6.648-26.984 18.16-83.056 10.528-120.688-7.416 7.512-15.152 14.8-23.008 22.36zm-475.744-118.976a969.2 969.2 0 0 1 15.8-28.68c-11.928-9.488-29.112-18-48.608-27.608-27.872-13.736-66.04-32.544-68.816-49.336-.888-5.36 2.56-11.984 10.24-19.664 41.624-41.616 165.472-78.648 234.368-78.84 6.664-10.576 13.496-20.944 21.136-30.728a155.4 155.4 0 0 0 -20.592-1.28c-76.688 0-208.664 39.352-257.536 88.224-15.4 15.392-21.848 31.376-19.184 47.504 5.456 33.008 46.52 53.248 86.232 72.824 18.744 9.24 38.128 18.792 46.088 26.752.272.264.6.56.872.832zm23.584 155.152c-10.152-3.376-14.192-12.048-13.752-20.44-20.064 2.592-38.456 11.4-52.68 25.616-31.896 31.904-86.128 133.72-42.04 177.808 11.768 11.76 28.528 17.728 49.824 17.728 45.512 0 108.096-28.576 133.64-54.12 16.12-16.12 25.28-37.328 26.344-60.392-30.464-31.944-58.32-71.912-101.336-86.2zm41.048 112.656c-15.752 15.76-65.664 40.056-99.696 40.056-9 0-14.112-1.896-15.888-3.672-12.68-12.688 13.648-81.52 42.04-109.928 8.024-8.024 19.064-12.448 31.08-12.448 13.968 0 27.984 6 38.448 16.464 10.064 10.072 15.896 23.04 16.424 36.52.504 12.792-3.904 24.512-12.408 33.008z"/><path d="m429.592 775.16c-30.864 0-83.736-19.896-139.576-75.736-69.176-69.176-95.6-153.488-76.512-186.904 43.472-92.112 96.504-166.832 171.856-242.192 136.832-136.84 356.88-209.72 463.12-209.72 30.672 0 51.272 5.688 62.968 17.384 29.104 29.096 16.36 127.576-9.176 212.264-21.072 69.872-72.888 203.56-183.152 313.824-79.664 79.664-166.144 120.224-242.44 156.016l-14.136 6.64c-1.68.792-3.48 1.28-5.312 1.456-7.272 4.576-16.68 6.968-27.64 6.968zm418.888-682.552c-100.68 0-309.776 69.624-440.488 200.344-72.808 72.816-123.96 144.944-165.848 233.864a15.592 15.592 0 0 1 -.824 1.528c-7.52 12.296 5.328 82.44 71.328 148.448 45.84 45.84 91.768 66.36 116.952 66.36 6.856 0 10.24-1.552 11.16-2.472a16.16 16.16 0 0 1 11.936-4.672l10.408-4.888c77.528-36.368 157.704-73.976 233.4-149.672 105.32-105.32 154.936-233.44 175.144-300.44 30.48-101.08 27.448-170.136 17.192-180.4-1.352-1.328-9.584-8-40.36-8z"/><path d="m599.296 892.568h-.008c-41.024-.008-64.792-44.576-85.76-83.896-7.584-14.216-15.392-28.856-21.88-36.864a180.456 180.456 0 0 1 -38.184 9.32c-5.264.688-10.824 1.04-16.512 1.04-29.712 0-89.568-10.016-156.64-77.088-70.528-70.52-97.304-157.4-81.672-197.464.2-.504.416-1.008.648-1.504 2.568-5.448 4.376-10.408 6.296-15.656.816-2.232 1.664-4.544 2.592-6.968-8.624-5.912-21.656-12.664-34.36-19.248-37.592-19.488-80.208-41.568-85.888-78.28-2.952-19.08 4.504-37.72 22.184-55.392 57.592-57.6 209.992-100.152 275.32-88.536 144.904-129.168 357.032-189.424 457.496-189.424 33.912 0 56.848 6.456 70.12 19.728 53.064 53.056 9.368 335.384-159.8 519.136 5.392 73.968-49.56 221.712-105.752 277.896-15.384 15.4-31.608 23.2-48.2 23.2zm-101.216-173.472a24 24 0 0 1 18.632 8.856c2.152 2.648 4.224 4.96 6.336 7.072 11.984 11.984 22.104 30.96 32.824 51.056 10.896 20.44 31.192 58.48 43.416 58.488 1.2 0 5.792-.656 14.272-9.136 47.28-47.288 101.672-195.192 90.936-247.288a24.016 24.016 0 0 1 6.168-21.448c173.6-181.208 189.184-433.544 168.184-460.704-1.552-1.224-11.8-5.384-35.92-5.384-98.88 0-304.904 64.448-434.552 185.456a24.04 24.04 0 0 1 -24.864 4.904c-2.88-1.096-9.784-2.92-23.6-2.92-61.448 0-175.4 36-215.864 76.464-6.936 6.944-9.032 11.84-8.68 14.112 1.96 12.648 40.064 32.4 60.544 43.008 21 10.888 40.848 21.168 53.064 33.392 1.464 1.456 2.92 2.8 4.368 4.096a24 24 0 0 1 5.192 29.256c-3.424 6.384-5.48 12.024-7.856 18.544-2.008 5.488-4.264 11.672-7.504 18.672-5.32 15.896 8.096 82.568 71.072 145.552 54.84 54.84 100.416 63.024 122.696 63.024 3.616 0 7.072-.216 10.28-.632a134.056 134.056 0 0 0 40.504-12.08 23.88 23.88 0 0 1 10.352-2.36z"/><path d="m593.44 499.952a107.264 107.264 0 0 1 -76.368-31.64c-42.112-42.112-42.112-110.624 0-152.736a107.288 107.288 0 0 1 76.368-31.632c28.848 0 55.968 11.232 76.368 31.632 42.104 42.112 42.104 110.624 0 152.736a107.296 107.296 0 0 1 -76.368 31.64zm0-184.008a75.52 75.52 0 0 0 -53.744 22.256c-29.632 29.632-29.632 77.848 0 107.488 14.352 14.36 33.44 22.264 53.744 22.264s39.384-7.904 53.744-22.264c29.632-29.632 29.632-77.848 0-107.488a75.536 75.536 0 0 0 -53.744-22.256zm266.536 50.752c-1.976 0-3.984-.368-5.936-1.144-55.232-22.064-101.272-45.232-146.416-86.568-40.528-37.112-67.24-91.44-91.128-143.912a16.024 16.024 0 0 1 8.464-21.424c80.552-33.208 162.616-53.032 219.512-53.032 30.64 0 51.224 5.68 62.92 17.376 31.168 31.168 16.56 156.168-32.56 278.664a16.016 16.016 0 0 1 -14.856 10.04zm-207.352-229.656c20.752 44.504 44.208 88.672 76.608 118.336 37.744 34.56 75.32 54.96 121.736 74.352 47.624-125.92 45.76-217.152 33.8-229.12-1.336-1.336-9.56-8-40.296-8-48.6.008-120.912 16.864-191.848 44.432z"/></g></svg>