<svg height="24" viewBox="0 0 24 24" width="24" xmlns="http://www.w3.org/2000/svg"><g fill="none"><path d="m0 0h24v24h-24z" fill="#000" opacity="0"/><path d="m21.5788662 13.5358473c-.2033587 1.0823668-.9705596 1.8096284-1.9091906 1.8096284h-.107573c-.673213.0073579-1.2136266.5579043-1.2084788 1.2311378.0053513.0986362.0238242.1961192.0549308.2898748.0161741.0550834.0348277.1092513.0559608.1625037.4289928.9830779.1033976 2.1322938-.7775005 2.7442541l-.0686635.0446313c-.012245.0080108-.0249478.0156782-.037765.0228879l-2.3278095 1.3046078c-.0186079.0100946-.0377045.019261-.0572196.0274655l-.0228879.0114439c-.286381.1245524-.5955565.188118-.9078469.1866505-.637855.0033723-1.2496144-.2529907-1.6945024-.7100958-.221254-.2283887-.4755978-.4222039-.7544983-.574943-.0846226-.0448374-.1788872-.0684036-.2746542-.0686635-.0957879-.0005639-.1898886.0252079-.2720222.0744999-.2787893.1565014-.5330472.3531521-.7546127.5836404-.4450521.465201-1.06203995.7265909-1.70583196.7227273-.30651912.0015202-.61007094-.0601095-.89171091-.1810862l-.01956912-.0078963-.07198231-.0343318c-.01312237-.0064086-.02609215-.0132749-.03890935-.020599l-2.41009135-1.3399696c-.01971626-.0112132-.03881691-.0234759-.05721965-.036735l-.02288785-.0160215c-.8712758-.6160675-1.18903485-1.7599809-.76033461-2.7371589.01983614-.0514976.03734535-.1037964.05252763-.1568962.03151759-.0940897.05037483-.1919549.05607525-.2910191.00483244-.6728343-.53521246-1.2229577-1.2080211-1.2305657h-.09715895c-.94561182 0-1.71658928-.7272616-1.91971901-1.8096284-.12784033-.6670191-.19821157-1.3437776-.21033941-2.0228288.01129391-.6794609.08205873-1.3566282.2114838-2.02374432.2024431-1.08225232.9741072-1.80962842 1.92189336-1.80962842h.09384021c.67323968-.00729534 1.21368969-.55787879 1.20847885-1.23113783-.01726564-.15495021-.05453996-.30700945-.11089166-.45237849-.42467353-.97464103-.10896309-2.11351846.75690143-2.73040691l.01819585-.01258832.06637478-.04360137c.01270276-.00801075.0256344-.01567818.03890936-.02288786l2.2835215-1.28847191c.01822537-.01003782.03689831-.01924064.05596081-.02757987l.02288786-.01144393c.28661285-.12637828.59667265-.19083921.90990675-.18916814.65200194-.00442054 1.27574589.26582974 1.7184203.74454199.2333209.24864172.5031779.46026704.8002739.62758504.1515285.08106537.3332504.08234932.4859092.00343318.3042199-.17169122.5793419-.39046017.8151511-.64818411.4429517-.48575453 1.0713441-.76055663 1.7287198-.75604204.3074828-.00129035.6119128.06105294.8941142.18315898l.020599.00926958.0696935.03307295c.0128172.0064849.0254056.0133894.037765.02071351l2.3667189 1.32509249c.0188405.01051027.0371361.0219689.0548164.03433179l.0228878.0160215c.870085.61690478 1.1875827 1.75987773.7603347 2.73715882 0 .00114439-.0251767.06305605-.0526421.15689626-.0315103.09408666-.0503299.19195604-.0559608.2910191-.0050218.67318258.5353191 1.22365484 1.2084788 1.23113784h.0948702c.9467562 0 1.7185347.72737609 1.9208634 1.80962842.1288511.66677727.199611 1.34347627.2114838 2.02248547v.0012588c-.0125072.6790716-.0829137 1.355839-.2104538 2.0229433zm-1.105598-3.88738809c-.0662603-.35384627-.2824361-.76777316-.6707286-.76777316h-.0954424c-1.4041355-.00636908-2.5382953-1.14784868-2.5356312-2.55199607.0051144-.22537001.0422991-.44886312.1104339-.66374785.0309158-.10719312.0678233-.21256666.1105483-.31562355.1777825-.41665649.0470336-.90086293-.3163102-1.17140053l-.0058364-.00343317-.0045775-.00343318-2.3858303-1.32623688-.0045775-.00343318-.0058364-.00240322c-.4048264-.15712382-.8644847-.05347451-1.1627032.2621804-.3731865.41049371-1.2800034 1.1876509-2.0461744 1.1876509-.3089861 0-.6941887-.13915817-1.1100611-.40248297-.3378208-.21450727-.6472614-.47073389-.92100733-.76262339-.30097203-.31385278-.76218517-.41388036-1.16613632-.25291082l-.00572197.00228878-.00469201.00343318-2.30206066 1.29510939-.00469201.00240323-.0058364.00457757c-.36206054.27144426-.49214209.75492819-.3151658 1.17140052.04231334.10320125.07917545.2085543.11043391.31562355.0683132.2148418.10550212.4383607.11043391.66374786.00234701 1.40450706-1.13239383 2.54600474-2.53689007 2.55199606h-.09715896c-.38600371.00228879-.60103512.41518573-.66729547.76777317-.11650941.59597405-.18072514 1.20098805-.19191468 1.80814075.01116586.6075706.07538147 1.2130047.19191468 1.8093995.06626035.3537318.28129176.7677732.66843987.7677732h.09727339c1.40418022.0063062 2.53840951 1.1478042 2.53574568 2.551996-.00486096.2253938-.04205155.4489227-.11043391.6637479-.03005135.1073779-.0669379.2127243-.11043391.3153946-.17786464.4169273-.0465754.9014291.31745458 1.171515l.0058364.0034332.00583641.0035476 2.42611285 1.342945.00572196.0024032.0069808.0022888c.40274465.1545552.85875833.0567546 1.16270314-.2493632.36620571-.387377 1.25677222-1.1180718 1.99971202-1.1180718.7371035 0 1.6230924.7167333 1.9880393 1.0960995.3066563.3043072.7640334.3989153 1.1662508.241238l.004692-.0022888.0057219-.0035476 2.343831-1.3117031.0058365-.0035476.004692-.0034332c.3628846-.2709047.4934931-.7548133.3161957-1.171515-.0427043-.1030996-.0799486-.208377-.1115783-.3153946-.0674225-.2150184-.104214-.4384638-.1092895-.6637479-.0024102-1.4044885 1.1322978-2.5460046 2.5367756-2.551996h.1070008c.2372326 0 .5511396-.2006121.6581403-.7677732h.0010299c.1151639-.5961758.1793673-1.2010733.1919147-1.8081407-.011026-.6077951-.0751654-1.2134628-.1916858-1.81008619zm-4.5569723 3.19285609c.004529.0660466-.0032316.1323604-.0228879.1955767-.2988773.8689199-.8721038 1.6171428-1.6332775 2.1318895-.7014851.4953134-1.5392311.7610621-2.3979607.7606783-1.8085046-.0095673-3.41139564-1.1664421-3.99015461-2.879865-.01662327-.0550295-.02434989-.1123611-.02288785-.1698279-.27595752-.9107343-.24158065-1.8873351.09773114-2.7764115.00296904-.0520942.01349299-.10348038.03124193-.1525476.65213295-1.57090512 2.18307929-2.59721969 3.88395489-2.60372301.6108481-.00026478 1.2141962.13455942 1.7668281.39481593.9726213.43903642 1.743425 1.22937902 2.1579816 2.21268358.0225675.0599264.0341958.1234168.0343318.1874515.3175516.8667103.3508605 1.8120248.0950991 2.6989362zm-4.0202521-4.40282265c-1.3396222-.01038268-2.54345635.8160895-3.01511512 2.06997685-.47165877 1.2538874-.11096351 2.6688686.90339502 3.5439527 1.0143585.8750842 2.4669341 1.0244064 3.6381113.3739916 1.0895655-.6409897 1.705456-1.8583363 1.5764028-3.1158601s-.9793618-2.32440194-2.176408-2.73072854c-.3000081-.09313366-.6122553-.14088686-.926386-.14167583z" fill="#6b7b8d"/></g></svg>