<svg height="26" viewBox="0 0 26 26" width="26" xmlns="http://www.w3.org/2000/svg"><g fill="none" fill-rule="evenodd"><path d="m0 0h26v26h-26z" fill="#000" fill-rule="nonzero" opacity="0"/><path d="m4.23660714 10.3482143c.40178572 0 .73660715-.2678572.84821429-.64732144 1.25-3.4375 4.55357143-5.91517857 8.41517857-5.91517857 4.3080357 0 7.9241071 3.08035714 8.75 7.14285711h-1.6071429l2.7232143 2.7008929 2.6339286-2.7008929h-1.9419643c-.8482143-5.06696426-5.2455357-8.9285714-10.5580357-8.9285714-4.66517857 0-8.63839286 2.99107143-10.11160714 7.16517857-.02232143.08928572-.04464286.17857143-.04464286.29017857 0 .49107143.40178571.89285716.89285714.89285716zm18.52678576 4.7321428c-.4017858 0-.7366072.2678572-.8482143.6473215-1.25 3.4375-4.5535715 5.9151785-8.4151786 5.9151785-4.30803571 0-7.92410714-3.0803571-8.75-7.1428571h1.58482143l-2.70089286-2.7008929-2.63392857 2.7008929h1.94196429c.84821428 5.0669643 5.24553571 8.9285714 10.55803571 8.9285714 4.6651786 0 8.6383929-2.9910714 10.1116071-7.1651785.0223215-.0892858.0446429-.1785715.0446429-.2901786 0-.4910714-.4017857-.8928572-.8928571-.8928572z" fill="#6b7b8d"/></g></svg>