<svg height="24" viewBox="0 0 24 24" width="24" xmlns="http://www.w3.org/2000/svg"><g fill="none"><path d="m0 0h24v24h-24z" fill="#000" opacity="0"/><g fill="#595959"><path d="m13.7882812 20.671875c0 .9867187-.8015625 1.7882812-1.7882812 1.7882812s-1.7882813-.8015625-1.7882813-1.7882812m1.7882813-15.9140625c-.590625 0-1.0734375-.4828125-1.0734375-1.0734375v-1.0734375c0-.590625.4828125-1.0734375 1.0734375-1.0734375s1.0734375.4828125 1.0734375 1.0734375v1.0734375c0 .590625-.4828125 1.0734375-1.0734375 1.0734375z"/><path d="m9.85546875 12.6820313c-.4265625 0-.77109375-.3445313-.77109375-.7710938v-3.21796875c0-.4265625.34453125-.77109375.77109375-.77109375.42656245 0 .77109375.34453125.77109375.77109375v3.21796875c-.0023438.4265625-.346875.7710938-.77109375.7710938z"/><path d="m18.5625 20.0132812h-13.125c-.6984375 0-1.321875-.3632812-1.66640625-.9703124-.34453125-.6070313-.33515625-1.3289063.0234375-1.9265625l.0375-.0562501 1.3171875-1.8210937v-5.1164062c0-3.77812505 3.07265625-6.8507813 6.85078125-6.8507813s6.8507812 3.07265625 6.8507812 6.8507813v5.1140624l1.3546875 1.8773438c.3585938.6.3679688 1.3195312.0234375 1.9265625-.3445312.609375-.9679687.9726562-1.6664062.9726562zm-13.4578125-2.0835937c-.08203125.159375-.0234375.3.00703125.3539062.0328125.0562501.12890625.1898438.3234375.1898438h13.12734375c.196875 0 .2929688-.13125.3234375-.1898438.0304688-.0539062.0914062-.1945312.0070313-.3539062l-1.3125-1.8117188c-.1804688-.2484375-.2742188-.5414062-.2742188-.8484375v-5.146875c0-2.9273437-2.38125-5.3085937-5.3085938-5.3085937-2.9273437 0-5.3085937 2.38125-5.3085937 5.3085937v5.1445313c0 .3046875-.09375.5976562-.27421875.8460937z"/></g></g></svg>