<svg height="36" viewBox="0 0 36 36" width="36" xmlns="http://www.w3.org/2000/svg"><g fill="none"><path d="m0 0h36v36h-36z" fill="#000" opacity="0"/><path d="m35.9296875 18.0421875c0 9.928125-8.0296875 17.9578125-17.9578125 17.9578125s-17.9578125-8.0296875-17.9578125-17.9578125c0-7.5796875 4.7390625-14.06953125 11.4257813-16.71328125 1.9898437-.79453125 4.2398437-1.24453125 6.5320312-1.24453125s4.5421875.45 6.5320313 1.24453125c6.6867187 2.64375 11.4257812 9.13359375 11.4257812 16.71328125zm-24.8414063-3.740625c0 3.0445313 1.546875 5.6390625 3.7898438 6.9328125.9492188.5484375 1.996875.8507813 3.09375.8507813s2.0953125-.3023438 2.9953125-.8015625c2.2921875-1.2445313 3.8882813-3.8882813 3.8882813-6.9820313 0-4.2890625-3.09375-7.78359375-6.8835938-7.78359375s-6.8835938 3.49453125-6.8835938 7.78359375zm6.9328125 20.5523438c5.2382813 0 9.928125-2.3976563 13.021875-6.1875-.3515625-2.9953125-3.2414062-5.5335938-7.3828125-6.7851563-1.546875 1.3992188-3.54375 2.2429688-5.6882812 2.2429688-2.19375 0-4.2398438-.9-5.7867188-2.3414063-3.99374995 1.1460938-6.93281245 3.4945313-7.57968745 6.2367188 2.98828125 4.1414062 7.93125005 6.834375 13.41562495 6.834375z" fill="#c8c8c8"/></g></svg>