<svg height="24" viewBox="0 0 24 24" width="24" xmlns="http://www.w3.org/2000/svg"><g fill="none"><path d="m0 0h24v24h-24z" fill="#000" opacity="0"/><path d="m11.9999922 1.99999219c5.5228437 0 10.0000156 4.47717187 10.0000156 10.00000001 0 5.5228437-4.4771719 10.0000156-10.0000156 10.0000156-5.52282814 0-10.00000001-4.4771953-10.00000001-10.0000156 0-5.52282814 4.47719531-10.00000001 10.00000001-10.00000001zm0 1.5c-4.69440626 0-8.50000001 3.80559375-8.50000001 8.50000001 0 4.6944219 3.80559375 8.5000156 8.50000001 8.5000156 4.6944219 0 8.5000156-3.8055937 8.5000156-8.5000156 0-4.69440626-3.8055937-8.50000001-8.5000156-8.50000001zm.0005937 12.00000001c.5522344 0 .9999141.4476797.9999141.9999141 0 .5522578-.4476563.9999375-.9999141.9999375h-.0006797c-.5522343 0-.999914-.4476797-.999914-.9999375 0-.5522344.4476797-.9999141.999914-.9999141zm2.997-4.43175c-.2672343.5815781-.591539 1.0073437-1.0124297 1.3838672-.0575948.0514301-.116264.1016444-.1759687.1506093l-.336.265875c-.5497734.432375-.7334531.7304766-.7785 1.6450079l-.0087656.2530547-1.4996485-.0330938c.0336563-1.5246328.393375-2.2535859 1.2643594-2.9675391l.3267891-.2579765.1446797-.118875c.021201-.0181033.0421946-.0364483.0629765-.0550313.2727656-.2439844.4716797-.5051484.6495-.892125.6348985-1.38203904-1.4198437-2.68352341-2.896875-1.40198435-.166289.14430469-.2843906.31359375-.363914.50842969-.1269844.31120312-.1480313.66372656-.1034532.97764846l.0136641.0813281-1.45680469.3573516-.0204375-.0960469c-.00813764-.0437352-.01531125-.0876443-.02151562-.1316953-.07875-.5545313-.04251563-1.16170315.19973437-1.75532815.16614844-.40710938.42039844-.77153906.76961719-1.07460937 2.63132815-2.28304688 6.59163285.22546874 5.24299215 3.16113282z" fill="#595959"/></g></svg>