<svg height="16" viewBox="0 0 16 16" width="16" xmlns="http://www.w3.org/2000/svg"><g fill="none" fill-rule="evenodd"><path d="m0 0h15.98439v15.98439h-15.98439z" fill="#000" fill-rule="nonzero" opacity="0"/><path d="m13.6438188 2.34057143c-3.1212305-3.12091203-8.18146029-3.12073991-11.30247849.00038444-3.12101819 3.12112435-3.12101819 8.18135413 0 11.30247853 3.1210182 3.1211243 8.18124799 3.1212964 11.30247849.0003844 1.4990037-1.4988507 2.3411481-3.5318204 2.3411481-5.65162368 0-2.11980324-.8421444-4.15277293-2.3411481-5.65162369z" fill="#ff4d4f"/><path d="m10.738085 9.93030244c.0759983.07554476.118732.17827796.118732.28543556s-.0427337.2098908-.118732.2854355l-.2426202.2426202c-.0755447.0759983-.178278.118732-.2854355.118732-.1071576 0-.2098908-.0427337-.28543557-.118732l-1.93239861-1.94381601-1.93810732 1.93810731c-.07554473.0759983-.17827797.118732-.28543554.118732s-.20989081-.0427337-.28543554-.118732l-.24262021-.2426202c-.07599827-.0755447-.11873199-.178278-.11873199-.2854355 0-.1071576.04273372-.2098908.11873199-.28543557l1.94381604-1.93239861-1.93810732-1.93810732c-.07599828-.07554473-.118732-.17827797-.118732-.28543554s.04273372-.20989081.118732-.28543554l.24262021-.24262021c.07554473-.07599827.17827797-.11873199.28543554-.11873199.10715756 0 .2098908.04273372.28543553.11873199l1.93239861 1.94381604 1.93810732-1.93810732c.07554476-.07599828.17827796-.118732.28543556-.118732s.2098908.04273372.2854355.118732l.2426202.24262021c.0759983.07554473.118732.17827797.118732.28543554 0 .10715756-.0427337.2098908-.118732.28543553l-1.94381601 1.93239861z" fill="#fff"/></g></svg>