<svg height="16" viewBox="0 0 16 16" width="16" xmlns="http://www.w3.org/2000/svg"><g fill="none"><path d="m0 0h16v16h-16z" fill="#000" opacity="0"/><path d="m8 0c-4.41785714 0-8 3.58214286-8 8 0 4.4178571 3.58214286 8 8 8 4.4178571 0 8-3.5821429 8-8 0-4.41785714-3.5821429-8-8-8z" fill="#1890ff"/><g fill="#fff"><path d="m8.57142857 11.8571429c0 .0785714-.06428571.1428571-.14285714.1428571h-.85714286c-.07857143 0-.14285714-.0642857-.14285714-.1428571v-4.8571429c0-.07857143.06428571-.14285714.14285714-.14285714h.85714286c.07857143 0 .14285714.06428571.14285714.14285714z"/><path d="m8 5.71428571c-.47321429 0-.85714286-.38392857-.85714286-.85714285 0-.47321429.38392857-.85714286.85714286-.85714286s.85714286.38392857.85714286.85714286c0 .47321428-.38392857.85714285-.85714286.85714285z"/></g></g></svg>