<svg height="16" viewBox="0 0 16 16" width="16" xmlns="http://www.w3.org/2000/svg"><g fill="none" fill-rule="evenodd"><path d="m7.88919-.00000176c-4.35708693 0-7.88919 3.52914733-7.88919 7.88258817 0 4.35342329 3.53210307 7.88258819 7.88919 7.88258819 4.3570869 0 7.88919-3.5291649 7.88919-7.88258819 0-4.35344084-3.5321031-7.88258817-7.88919-7.88258817" fill="#13c2c2"/><g fill="#fff"><path d="m6.61798967 10.5602488-.49807555-.4976587 4.82651138-4.84006752c.165039-.16491853.4326375-.16491853.5976942 0l.1992372.19905294c.1650391.16491853.1650391.4322931 0 .59721163l-4.52767303 4.54146165c-.16503904.1649186-.43263755.1649186-.5976942 0"/><path d="m7.71285956 10.0625865-.49807556.4976588c-.16505664.1649185-.43265515.1649185-.59769419 0l-1.98332123-1.98166154c-.16505665-.16490093-.16505665-.43227551 0-.59719403l.19921966-.19905295c.16505664-.16491852.43265515-.16491852.5977118 0z"/></g></g></svg>