<svg height="16" viewBox="0 0 16 16" width="16" xmlns="http://www.w3.org/2000/svg"><g fill="none" fill-rule="evenodd" transform="translate(-1547 -5293)"><path d="m0 0h1920v9006h-1920z" fill="#f2f2f2"/><path d="m39 526h1840v8739h-1840z" fill="#fff"/><path d="m1554.88919 5293c-4.35709 0-7.88919 3.52915-7.88919 7.88259 0 4.35342 3.5321 7.88259 7.88919 7.88259s7.88919-3.52917 7.88919-7.88259c0-4.35344-3.5321-7.88259-7.88919-7.88259" fill="#fa8c16"/><path d="m1555.19792 5304.2625c-.4775 0-.86459-.38709-.86459-.86458 0-.4775.38709-.86459.86459-.86459.47749 0 .86458.38709.86458.86459 0 .47749-.38709.86458-.86458.86458zm.86458-3.28542c0 .4775-.38709.86459-.86458.86459-.4775 0-.86459-.38709-.86459-.86459v-3.1125c0-.47749.38709-.86458.86459-.86458.47749 0 .86458.38709.86458.86458z" fill="#fff" fill-rule="nonzero"/></g></svg>