<svg height="98" viewBox="0 0 98 98" width="98" xmlns="http://www.w3.org/2000/svg"><g fill="none" fill-rule="evenodd"><path d="m0 0h98v98h-98z" fill="#000" fill-rule="nonzero" opacity="0"/><g fill="#f6fafe"><path d="m46.5628551 19.3719415c0 1.3098428-1.0714188 2.3702419-2.3889976 2.3702419h-9.55875c-.6337491.0004278-1.2417069-.2490884-1.6901014-.6936468-.4479776-.4447162-.6998826-1.0477022-.7004187-1.6765951 0-1.3094651 1.0703722-2.3719415 2.3906153-2.3719415h9.5587499c1.3174837-.0000945 2.3889025 1.0624764 2.3889025 2.3719415z"/><path d="m59.5727918 19.3719415c0 1.3098428-.7531333 2.3702413-1.6824892 2.3702413h-6.7241525c-.9304026 0-1.6824892-1.061343-1.6824892-2.3702413 0-1.3094651.7519914-2.3719415 1.6824892-2.3719415h6.7241525c.9293559-.0000945 1.6824892 1.0624764 1.6824892 2.3719415z"/><path d="m74.175679 28.9912772c0 .7342468-.2936925 1.4384502-.816831 1.9575526-.5231385.5191023-1.2326754.8105385-1.9723787.8101379h-27.6127287c-1.5393796 0-2.787497-1.2389108-2.787497-2.7675961 0-1.5279296 1.2482125-2.7669348 2.787497-2.7669348h27.6128238c.7396068-.0003579 1.449055.2909839 1.9722291.8099155.5229237.5189926.8168855 1.2229064.8168855 1.9569249z"/><path d="m81.6104314 38.874036c0 1.4560526-1.1888372 2.6366869-2.6561862 2.6366869h-41.6849496c-1.4668733 0-2.6557105-1.1800676-2.6557105-2.6361202 0-1.4554859 1.1889324-2.6360257 2.6557105-2.6360257h41.683998c1.4667782 0 2.6561863 1.1795953 2.6571378 2.635459z"/><path d="m84 48.2315543c0 .7341327-.2935826 1.4382417-.8164098 1.9574916-.5227679.5193145-1.2320655.8110526-1.9716581.8109541h-7.7014653c-1.5404263 0-2.7886388-1.2394771-2.7886388-2.7679735 0-1.5286852 1.2481173-2.7681623 2.7886388-2.7681623h7.7014653c.7393361 0 1.4485088.2916639 1.9716581.8103874.5226478.5192916.8164098 1.2232664.8164098 1.9573027z"/><path d="m68.5995433 48.2315543c0 1.5293464-1.8546204 2.7684457-4.147609 2.7684457h-53.3072751c-2.28889703 0-4.1446592-1.2378715-4.1446592-2.7684457 0-1.5287797 1.85566702-2.7676901 4.1446592-2.7676901h53.3072751c2.2929886.0000945 4.147609 1.2390048 4.147609 2.7676901z"/><path d="m52.0798654 59.2579001c0 .8645044-.3358408 1.6936453-.9336605 2.3052869-.5981478.6113153-1.4094262.9547541-2.2553543.9547541h-45.70184752c-1.13911323-.0001256-2.19167608-.6211508-2.76136873-1.629242-.57017913-1.008148-.57017913-2.2507251 0-3.2588732.56941806-1.0084481 1.62209028-1.6297604 2.76136873-1.6298259h45.70184752c.8456752-.0001368 1.6567586.3430944 2.2547829.9541703.5982324.6107709.9342319 1.439543.9342319 2.3037298zm40.9201346 11.5126157c-.0005713 1.7833884-1.4147266 3.2289003-3.1598765 3.2294842h-38.0543064c-1.7133456-.0456406-3.078461-1.4783069-3.078461-3.2294842 0-1.7512745 1.3651154-3.1836489 3.078461-3.2294841h38.0533541c1.7450548.0009731 3.1597813 1.4461931 3.1608288 3.2294841z"/><path d="m87.2029707 80.5002087c0 .663573-.2412269 1.2999435-.6706667 1.7689091-.4296142.4683423-1.0116577.7312019-1.6183728.7308822h-42.6274719c-1.26278 0-2.2864593-1.1192023-2.2864593-2.4997913 0-1.3805891 1.0236793-2.5002087 2.2864593-2.5002087h42.6275674c1.2642134 0 2.288944 1.1189928 2.288944 2.5002087zm8.7970293 0c0 1.3799622-1.0232015 2.4991639-2.2859815 2.4997913h-1.8257462c-1.2633534 0-2.2870327-1.1192023-2.2870327-2.4997913 0-1.3805891 1.0236793-2.5002087 2.2870327-2.5002087h1.8256507c1.2613465 0 2.286077 1.1189928 2.286077 2.5002087z"/></g><g transform="translate(25 26)"><path d="m7.42187499 6.93749998h35.15625001c1.0546875 0 1.7578125.70312498 1.7578125 1.75781252v26.3671875h-38.67187499v-26.3671875c0-1.05468749.70312498-1.75781252 1.75781248-1.75781252z" fill="#e2f1ff" fill-rule="nonzero"/><path d="m9 0h32v3h-32z" fill="#e2f1ff"/><path d="m3.02734376 19.2421875h11.07421874l3.3398437 7.734375h14.9414063l4.0429688-7.734375h10.5468749c1.40625 0 2.6367188 1.2304687 2.6367188 2.6367187v21.09375c0 1.4062501-1.2304688 2.6367188-2.6367188 2.6367188h-43.94531244c-1.40625001 0-2.63671876-1.2304687-2.63671876-2.6367188v-21.09375c.17578126-1.40625 1.23046875-2.6367187 2.63671876-2.6367187z" fill="#fff" fill-rule="nonzero" stroke="#a5d2ff"/><path d="m9 35h32v3h-32z" fill="#edf6ff"/></g><path d="m44.122 43v-3.132h.024l2.142 3.132h.684v-4.284h-.708v3.09h-.024l-2.118-3.09h-.702v4.284zm5.472.084c.564 0 1.002-.144 1.314-.432.312-.296.468-.722.468-1.278v-2.658h-.702v2.67c0 .364-.086.638-.258.822-.176.176-.45.264-.822.264-.38 0-.654-.088-.822-.264-.172-.176-.258-.45-.258-.822v-2.67h-.702v2.658c0 .556.158.984.474 1.284.304.284.74.426 1.308.426zm5.634-.084v-.6h-2.316v-3.684h-.696v4.284zm3.552 0v-.6h-2.316v-3.684h-.696v4.284z" fill="#65a4e2" fill-rule="nonzero"/></g></svg>