<svg height="16" viewBox="0 0 16 16" width="16" xmlns="http://www.w3.org/2000/svg"><g fill="none"><path d="m0 0h16v16h-16z" fill="#000" opacity="0"/><path d="m3.59163013 4.23785686c-.27212271.00365211-.48982087.24469139-.48698437.53832107-.0028365.29399489.21486166.53466896.48698437.53868628h5.83989642c.2721227-.00365211.48982086-.24469139.48698436-.53868628.0028365-.29362968-.21486166-.53466896-.48698436-.53832107zm2.92030626 3.23065686h-2.92030626c-.27212271.00365211-.48982087.24469139-.48698437.53832107-.0028365.29362967.21486166.53466896.48698437.53832107h2.92030626c.27212271-.00365211.48982087-.2446914.48695642-.53832107.00227897-.13970312-.04779384-.27502801-.13999997-.37835864-.08907162-.09984841-.214624-.15773367-.34695645-.15996243zm5.19825971-6.46131372c1.0738105 0 1.9464214.96525278 1.9464214 2.1536495v2.69233579c.0028365.29362967-.2148616.53466896-.4869844.53832107-.2717646-.00401732-.4891047-.2446914-.4858822-.53832107v-2.69233579c0-.59492878-.4350383-1.07664214-.9735548-1.07664214h-8.75984461c-.53815845 0-.97355477.48098294-.97355477 1.07664214v9.692701c0 .595294.43539632 1.0766421.97391283 1.0766421h4.37974329c.26961631 0 .48695641.2406741.48695641.5386863.00286445.2936297-.21483371.534669-.48695641.5383211h-4.38010135c-1.07416856 0-1.94675149-.9652528-1.94675149-2.1536495v-9.692701c0-1.18839672.87222487-2.1536495 1.94675149-2.1536495zm3.0977231 7.55785986c.2143851.18647408.2585683.50683524.1029412.74640007l-.0425192.05706422-3.3500632 3.99449575c-.1914833.2291035-.5245221.2670693-.7608694.0867376l-2.23785116-1.7119267c-.2484622-.1765679-.31409024-.5227259-.14807833-.7810457s.5033963-.3350233.76124955-.1730682l.05818413.0410863 1.81937301 1.3900845 3.007672-3.58819847c.0966305-.11520233.234235-.18644694.382443-.19800948.148208-.01156255.2948347.03750757.4075184.13638011z" fill="#595959"/></g></svg>