<svg height="16" viewBox="0 0 16 16" width="16" xmlns="http://www.w3.org/2000/svg"><g fill="none"><path d="m0 0h16v16h-16z" fill="#000" opacity="0"/><path d="m3.53447531 4.10539128c-.26611307.00350236-.47900352.23465839-.47622966.51624847-.00277386.28194031.21011659.5127461.47622966.5165987h5.71092643c.26611307-.00350236.47900352-.23465839.47622966-.5165987.00277386-.28159008-.21011659-.51274611-.47622966-.51624847zm2.85581336 3.09819128h-2.85581336c-.26611307.00350236-.47900352.23465839-.47622966.51624847-.00277386.28159007.21011659.5127461.47622966.51624846h2.85581336c.26611307-.00350236.47900352-.23465839.47620233-.51624846.00222864-.13397492-.04673835-.26375113-.13690817-.36284492-.08710453-.09575436-.20988418-.15126617-.33929416-.15340355zm.80044009 6.19673284c.26366202 0 .47620233.2308057.47620233.5165987.00280119.28159-.21008927.5127461-.47620233.5162484h-4.2833699c-1.05044631 0-1.90375886-.9256748-1.90375886-2.0653441v-9.29527429c0-1.13966928.8529624-2.06534411 1.90375886-2.06534411h8.56638964c1.0500962 0 1.9034361.92567483 1.9034361 2.06534411v2.58194281c.0027738.28159007-.2101166.5127461-.4762297.51624847-.2657629-.0038526-.4783032-.2346584-.4751519-.51624847v-2.58194281c0-.57053511-.4254307-1.03249694-.9520545-1.03249694h-8.56638964c-.5262736 0-.9520545.46126135-.9520545 1.03249694v9.29527429c0 .5708854.4257809 1.032497.95240465 1.032497zm3.81732184 1.6068846c-1.06060058-.0007005-2.07708245-.4472519-2.82640082-1.2419383-.74931837-.7943362-1.16984704-1.8716634-1.16914762-2.9945213-.00069942-1.1225077.4201794-2.19948466 1.16949777-2.9934706.74931836-.79433618 1.76580024-1.2408876 2.82570057-1.24158807 1.0606006.00070047 2.0770825.44725189 2.8264009 1.24158807.7493183.79398594 1.169847 1.8709629 1.1694977 2.9938208.0006995 1.1225077-.4201794 2.1994847-1.1694977 2.9945213-.7493184.7943362-1.7658003 1.2408876-2.8260508 1.2415881zm0-.8300603c.851912-.0014009 1.6684589-.3607435 2.2700145-.9999249.6015556-.638481.9383987-1.5042654.9373507-2.4061242.0020985-1.87831784-1.4338616-3.40254669-3.2073652-3.40534858-1.77385362.00280189-3.20981372 1.52703074-3.20736703 3.40534858-.00139625.9018588.33579702 1.7676432.9373526 2.4061242.60155559.6388312 1.41810253.9981737 2.27001443.9999249zm-.3399944-1.8860231v-3.0141345c0-.2164461.2177925-.34323168.3764099-.21819728l1.911112 1.50706728c.0637271.0525355.1011992.1330898.1011992.2185475.0005527.0844784-.0366969.1647778-.1015493.2188978l-1.9107619 1.5070672c-.1575669.1250344-.3764099-.0017511-.3764099-.2181972zm-.95520585-3.0141345c0-.14815.10679537-.26758061.23880146-.26758061.13235619 0 .23880149.11943061.23880149.26758061v3.1079979c0 .14815-.1071456.2675806-.23880149.2675806-.0659289-.0023313-.12798716-.0317214-.1715729-.0812548-.04528999-.051293-.06933136-.1179243-.06722856-.1863258z" fill="#595959"/></g></svg>