<svg height="16" viewBox="0 0 16 16" width="16" xmlns="http://www.w3.org/2000/svg"><g fill="none"><path d="m0 0h16v16h-16z" fill="#000" opacity="0"/><path d="m2.74999997 1c.793 0 1.465.50882759 1.68 1.20689655h6.82000003c1.7605706-.00200452 3.202673 1.34988776 3.2525291 3.04906854s-1.3106646 3.1277321-3.0685291 3.22196594l-.184.00482759h-1.073c-.22073371.71612785-.90240222 1.20725221-1.67625475 1.20769775-.77385252.00044553-1.45612719-.48989355-1.67774528-1.20576671l-2.073-.00193104c-1.21425813-.00215741-2.21124457.92632453-2.25282108 2.09802628-.04157652 1.1717017.88725719 2.1638876 2.09882108 2.2419737l.154.0048276h6.82000003c.2225683-.7163244.905427-1.2068839 1.68-1.2068965.9664983 0 1.75.7564843 1.75 1.6896551s-.7835017 1.6896552-1.75 1.6896552c-.774573 0-1.4574317-.4905721-1.68-1.2068966h-6.82000003c-1.76057064.0020046-3.20267301-1.3498877-3.2525291-3.0490685-.04985609-1.69918077 1.31066459-3.12773209 3.0685291-3.22196593l.184-.00482759h2.073c.22061829-.71681375.90299931-1.20835306 1.6775-1.20835306.7745007 0 1.45688172.49153931 1.67750003 1.20835306h1.072c1.2142581.00215741 2.2112446-.92632453 2.2528211-2.09802623s-.8872572-2.16388766-2.0988211-2.24197377l-.154-.00482759h-6.82000003c-.22256828.71632443-.90542702 1.20688387-1.68 1.20689655-.9664983-.00000001-1.74999997-.75648439-1.74999997-1.68965517 0-.93317077.78350167-1.68965517 1.74999997-1.68965517zm10.50000003 11.5862069c-.4142136 0-.75.3242076-.75.7241379 0 .3999304.3357864.724138.75.724138.4142135 0 .75-.3242076.75-.724138 0-.3999303-.3357865-.7241379-.75-.7241379zm-4.75000003-5.31034483c-.25869141.0001034-.49906602.12891834-.636.34082759l-.028.04634482c-.08017237.1465875-.10559869.31536566-.072.47793104l.025.0897931.028.06758621.05.08882758.062.08206897-.041-.05117241c.14451301.19724248.38139073.31190442.6315424.30570151s.48062125-.13245347.6144576-.33659807l.03-.05117241.02-.03765517.027-.06758621c.06053635-.17333013.05089029-.36235842-.027-.52910345l-.02-.03862069-.028-.04634482-.025-.03668966c-.14072491-.1908342-.36837084-.30413793-.611-.30413793zm-5.75-5.31034483c-.41421356 0-.75.3242076-.75.72413793 0 .39993034.33578644.72413793.75.72413793.41421357 0 .75-.32420759.75-.72413793 0-.39993033-.33578643-.72413793-.75-.72413793z" fill="#595959"/></g></svg>