<svg height="16" viewBox="0 0 16 16" width="16" xmlns="http://www.w3.org/2000/svg"><g fill="none" fill-rule="evenodd"><path d="m0 0h16v16h-16z" fill="#000" fill-rule="nonzero" opacity="0"/><g fill="#595959"><rect height="1" rx=".5" width="8" x="4" y="11.5"/><path d="m12.8392578 1.02324219c.3867188-.05976563.7839844.05273437 1.0863281.309375.3146485.28125.4798829.69082031.45 1.10214843-.0193359.4078125-.1845703.8015625-.4623046 1.1109375l-5.27695317 5.98359375c-.05097657.05800782-.11601563.10019532-.18808594.1265625l-1.93007813.68027343c-.04921875.0175781-.0984375.0263672-.14941406.0263672-.10898437 0-.21445312-.0386719-.29882812-.1125-.12304688-.1089844-.17753907-.27421875-.14238282-.43417969l.44121094-2.00917969c.01582031-.07558593.05097656-.14414062.10195313-.20214843l5.27871097-5.98710938c.2759765-.31992187.6644531-.53261719 1.0898437-.59414062zm.2098406.88543125-.0780046.00577968c-.216211.03164063-.4078125.13535157-.5449219.2953125l-5.20312502 5.90273438-.24257813 1.10390625 1.05644531-.37265625 5.20312504-5.90097656c.1441406-.15820313.225-.35332032.2355468-.55546875 0-.00527344.0017579-.01582032.0017579-.02109375.008789-.12832032-.0439454-.26015625-.1423829-.3515625-.1019531-.084375-.233789-.12128907-.3638671-.10019532z" fill-rule="nonzero"/><path d="m8.33045284 13.9301926c.26961631 0 .48695641.2406741.48695641.5386863.00286445.2936297-.21483371.534669-.48695641.5383211h-5.38010135c-1.07416856 0-1.94675149-.9652528-1.94675149-2.1536495v-9.692701c0-1.18839672.87222487-2.1536495 1.94675149-2.1536495h9.75984461c1.0738105 0 1.9464214.96525278 1.9464214 2.1536495v4.69233579c.0028365.29362967-.2148616.53466896-.4869844.53832107-.2717646-.00401732-.4891047-.2446914-.4858822-.53832107v-4.69233579c0-.59492878-.4350383-1.07664214-.9735548-1.07664214h-9.75984461c-.53815845 0-.97355477.48098294-.97355477 1.07664214v9.692701c0 .595294.43539632 1.0766421.97391283 1.0766421z" fill-rule="nonzero" transform="matrix(1 0 0 -1 0 16.0144)"/></g></g></svg>