<svg height="16" viewBox="0 0 16 16" width="16" xmlns="http://www.w3.org/2000/svg"><g fill="none"><path d="m0 0h16v16h-16z" fill="#000" opacity="0"/><path d="m12.5 5c-1.3785 0-2.5 1.1215-2.5 2.5 0 .2735.055.5325.137.7795-1.185.4245-2.4.3305-3.7035-.2975-1.202-.579-1.9795-1.273-2.321-2.0665 1.0815-.2755 1.8875-1.2495 1.8875-2.4155 0-1.3785-1.1215-2.5-2.5-2.5s-2.5 1.1215-2.5 2.5c.00173602 1.18736256.83697522 2.21032177 2 2.4495v4.101c-1.16302478.2391782-1.99826398 1.2621374-2 2.4495 0 1.3785 1.1215 2.5 2.5 2.5s2.5-1.1215 2.5-2.5c-.00173602-1.1873626-.83697522-2.2103218-2-2.4495v-2.548c.4985.517 1.166.9785 1.9995 1.3795.9095.4385 1.807.6575 2.685.6575.665 0 1.3175-.1335 1.957-.3845.458.5145 1.1175.845 1.8585.845 1.3785 0 2.5-1.1215 2.5-2.5s-1.1215-2.5-2.5-2.5zm-10.5-1.5c0-.827.673-1.5 1.5-1.5s1.5.673 1.5 1.5-.673 1.5-1.5 1.5-1.5-.673-1.5-1.5zm3 9c0 .827-.673 1.5-1.5 1.5s-1.5-.673-1.5-1.5.673-1.5 1.5-1.5 1.5.673 1.5 1.5zm7.5-3.5c-.827 0-1.5-.673-1.5-1.5s.673-1.5 1.5-1.5 1.5.673 1.5 1.5-.673 1.5-1.5 1.5z" fill="#595959"/></g></svg>