<svg height="25" viewBox="0 0 24 25" width="24" xmlns="http://www.w3.org/2000/svg"><g fill="none" fill-rule="evenodd" transform="translate(0 1)"><path d="m0 0h24v24h-24z" fill="#000" fill-rule="nonzero" opacity="0"/><path d="m18.8526 13.844c.5564 0 .9628.2418 1.318.7844.1210755.1850491.3493288.2685847.5612504.2054051.2119217-.0631796.3571496-.2580661.3571496-.4792051v-3.4064c0-.1326082-.0526784-.2597852-.1464466-.3535534s-.2209452-.1464466-.3535534-.1464466h-2.8244c.3156-.5132.4748-1.04940001.475-1.6028-.0002-1.26439999-.8232-2.37019999-1.9344-2.7738-.0924702-.13957356-.2487739-.22347127-.4162-.22339999h-3.2554c.2182-.37099999.3678-.78700001.368-1.28020001-.0002-1.392-1.1424-2.568-2.4942-2.568-.66799999 0-1.29940001.28300001-1.77800002.79660001-.4566.49039999-.7186 1.14859999-.71839999 1.80579998 0 .48559999.13840001.882.35419999 1.24580002h-2.37619999c-.27614237 0-.49999999.22385762-.49999999.49999999v1.79860001c-.28360001-.15139999-.62620001-.25339999-1.041-.25340002-1.37260001 0-2.448 1.09699999-2.448 2.49740001 0 1.4008 1.0644 2.4984 2.4234 2.4984.38659999 0 .74020001-.0864 1.0656-.261v3.22c0 .0402.006.079.015.1168.12979999 1.4684 1.311 2.5832 2.79679999 2.5832.56239999 0 1.00420001-.1668 1.38799999-.4188v3.2188c0 .1326082.05267843.2597852.14644662.3535534s.2209452.1464466.3535534.1464466h10.4c.2761424 0 .5-.2238576.5-.5v-4.3106c-.0000264-.2210519-.1452033-.4158528-.3570251-.4790625-.2118219-.0632098-.440012.0201746-.5611749.2050625-.3556.5426-.7624.7844-1.3184.7844-.4917359.0013981-.9635945-.1939854-1.3104-.5426-.3485254-.3466034-.5438468-.81827-.5424-1.3098.0002-1.0208.8316-1.8516 1.8532-1.8516zm-14.4292-1.9548c-.81160001 0-1.42340002-.6442-1.42340002-1.4982 0-.83980001.6362-1.49740001 1.44800002-1.49740001.4494 0 .7812.19240001 1.14519998.66400001.00046098.21794918.14215512.41044807.35012092.4756576.20796581.0652095.43420455-.0119208.5590275-.19058608.12482295-.1786653.11942084-.41762945-.01334842-.59047152v-2.40400001h2.87960002c.19572052.00025669.37356549-.11379562.45497999-.29177952.0814145-.17798389.05140233-.38711551-.07678-.53502048-.5088-.58900001-.73579999-.9336-.73579999-1.419 0-.40720001.16399999-.81700001.45019999-1.12419998.2874-.3084.65880001-.47840002 1.04600001-.47840002.8098 0 1.494.7182 1.4942 1.56800002-.0002.501-.2508.8826-.7442 1.4532-.1279482.14800014-.1578247.35702743-.0764603.53494485s.2590209.29203665.4546603.29205514h1.7024c-.5068.5592-.7978 1.30000001-.7976 2.03959999 0 .54400001.1518 1.06039999.4608 1.56040001h-2.812c-.27614238 0-.5.2238576-.5.5v2.3094c-.38119999-.2522-.81439999-.4136-1.37420002-.4136-.696 0-1.333.2568-1.8258.68v-1.9932c-.00005124-.2139174-.13618248-.4041048-.33865656-.4731331-.20247407-.0690284-.42643143-.0016039-.55714344.1677331-.3544.4592-.7152.664-1.16979998.664zm12.4116 5.8234c.5338206.5368774 1.2603023.8377836 2.0174.8356.4568 0 .87-.109 1.2366-.3258v2.6258h-9.4v-3.8106c.0001662-.2031013-.1225898-.3861068-.3105718-.4630025-.1879819-.0768958-.40380401-.0323887-.5460282.1126025-.58519999.5954-.94540001.861-1.53140002.861-1.01479999 0-1.80979999-.8136-1.80979999-1.8524s.801-1.852 1.82359999-1.852c.5786 0 .921.2538 1.51760002.861.14214669.1449746.3579378.1894139.5458.1124.1878952-.0769288.3106825-.2597664.3108-.4628v-2.9062h3.3612c.2031621.0002843.3862643-.1224859.4631454-.3105397.0768812-.1880537.0322288-.4039358-.1129454-.5460603-.5868-.5766-.86-1.118-.86-1.70400001-.0002-.5022.2018-1.00780001.5542-1.3872.3554-.3828.8158-.59359999 1.296-.59359999 1.002 0 1.8484.88780001 1.8486 1.9386-.0002.5916-.293 1.1792-.8702 1.7462-.1451742.1421245-.1898266.3580066-.1129454.5460603.0768811.1880538.2599833.310824.4631454.3105397h3.3692v1.7214c-.3664-.2166-.7792-.3256-1.2364-.3256-1.573 0-2.853 1.2792-2.853 2.852-.0016632.7568387.2993433 1.4829268.836 2.0166z" fill="#082340"/></g></svg>