<svg height="25" viewBox="0 0 24 25" width="24" xmlns="http://www.w3.org/2000/svg"><g fill="none" fill-rule="evenodd" transform="translate(0 1)"><path d="m0 0h24v24h-24z" fill="#000" fill-rule="nonzero" opacity="0"/><g fill="#082340"><path d="m14.7331177 7.71118991c-.4724101.47281324-.7331177 1.10323089-.7331177 1.77698976 0 .66981873.2607076 1.30023643.7331177 1.77501973.4704499.4747833 1.0977164.7368006 1.7681074.7368006.6664707 0 1.2937372-.2620173 1.7681074-.7368006.9742233-.9791174.9742233-2.57289207 0-3.55003943-.9467803-.95153664-2.5933548-.94956659-3.5362148-.00197006zm2.6247182 2.63790389c-.4586886.4590228-1.2584534.4570528-1.7151818 0-.2293443-.2304965-.3547976-.53585503-.3547976-.86091413s.1274135-.63238771.3547976-.86091411c.2293443-.23049645.5331765-.35657998.8566108-.35657998s.6292267.12805358.8566108.35657998c.4743703.4747833.4743703 1.24704492.0019602 1.72182824z"/><path d="m20.9728756 5.02688355c-2.703158-2.70348801-7.0977429-2.70153462-9.8009009 0-1.91213268 1.91431955-2.52932771 4.70961676-1.6250198 7.23143975l-.80079103.7989354h-2.08596295c-.35351994 0-.64063282.2871479-.64063282.640711v1.6115445h-1.61330094c-.35351994 0-.64063282.287148-.64063282.6407111v2.0901244l-.57813205.5762492c-.11914208.12111-.18750229.2832412-.18750229.4531859v3.2895042c0 .3535631.28711288.640711.64063282.640711h3.28910264c.16992395 0 .33398845-.0683686.45313053-.1875252l6.35945261-6.360229c2.519562.9024649 5.314518.2871479 7.2286038-1.6252182 2.7051112-2.7015346 2.7051112-7.09860943.0019532-9.80014405zm-.9062611 8.89377235c-1.6445513 1.6427987-4.0879405 2.1096583-6.2266385 1.1935196-.2402373-.1035295-.5214907-.0507881-.7070398.1347837l-6.46687584 6.4696187h-2.38284157v-2.3831325l.59571039-.5938297c.14843931-.1484574.20703378-.3613766.16992395-.5645289v-1.5861505h1.61134779c.35351994 0 .64063282-.2871479.64063282-.640711v-1.6115445h1.55080017c.21289322.050788.43945849-.0136738.59766355-.1718981l1.30079714-1.300956c.1855491-.1855717.2382841-.4668595.1347672-.7071262-.9179799-2.138959-.4492242-4.58264654 1.193374-6.22739863 2.2011987-2.20146748 5.7832737-2.20342087 7.9864256 0 2.2031519 2.20342086 2.2031519 5.78788653.0019531 7.98935403z"/></g></g></svg>