<svg height="20" viewBox="0 0 20 20" width="20" xmlns="http://www.w3.org/2000/svg"><g fill="none" fill-rule="evenodd"><path d="m0 0h20v20h-20z" fill="#000" fill-rule="nonzero" opacity="0"/><path d="m17.2820634 11.311795c-.0016596.0156213-.0039412.0312986-.0068634.047005-.6456 3.48-3.6944 6.041212-7.2752 6.041212-2.63877885.0010028-5.07159144-1.4029164-6.39400623-3.6723211l1.67020629.2902429c1.16412187 1.3687393 2.88423341 2.1828961 4.72379994 2.1820662 2.6397034 0 4.9344116-1.661489 5.8162094-4.045715zm-7.2820634-8.711795c3.6124 0 6.68 2.606 7.2908 6.1268.0566644.32651074-.1620893.63713557-.4886.69379998s-.6371356-.16208925-.6938-.48859998c-.5116-2.948-3.082-5.132-6.1084-5.132-3.424 0-6.2 2.776-6.2 6.2 0 .376.0332.7472.0992 1.1112.03999541.2117221-.03660611.4286333-.20068851.5682859-.1640824.1396527-.39044818.1806009-.5930562.1072805s-.35034456-.2496501-.38705529-.4619664c-.07894003-.4371795-.118565-.8805508-.11840051-1.3248 0-4.0868 3.31320051-7.4 7.40000051-7.4zm2.3376 2.9792c1.0680994.56610748 1.8958058 1.49892856 2.3308 2.6268.1127242.30769489-.0422718.64891786-.3481567.76646505-.3058849.11754718-.6495022-.03206579-.7718433-.33606505-.3311279-.85718036-.9604773-1.56606838-1.7724-1.9964-.2890509-.15697457-.3978327-.51740494-.2438876-.80808055.1539452-.29067561.513219-.40321835.8054876-.25231945zm-2.3376-.5792c.3313708 0 .6.26862915.6.6s-.2686292.6-.6.6c-.3544 0-.7016.048-1.0352.1424-.20628515.05830575-.42800625.00213067-.58164308-.14736465-.15363684-.14949531-.21584833-.36959895-.1632-.57740001.05264832-.20780105.21215792-.3717296.41844308-.43003534.44-.124.8968-.1876 1.3616-.1876zm-7.90660001 4.92060002c.28265932.17319648.37139649.54274068.19820001.82539998-.152.2472-.2024.4592-.17.6432.2212 1.2548 3.9604 1.9416 8.33 1.1712 4.3692-.7704 7.648-2.6948 7.4268-3.9496-.03-.1716-.1364-.3408-.3352-.51-.2523941-.21472831-.2829283-.59340587-.0682-.8458s.5934059-.28292831.8458-.0682c.4.3404.6576.7504.7396 1.216.392 2.2256-3.4152 4.4604-8.4004 5.3396l-.3352.0564c-4.8436.786-9.0012-.0252-9.3852-2.2012-.0868-.4944.0332-.9964.3288-1.4788.1727965-.28265932.54234066-.37139647.82499999-.19819998z" fill="#6b7b8d"/></g></svg>