<svg height="24" viewBox="0 0 24 24" width="24" xmlns="http://www.w3.org/2000/svg"><g fill="none"><path d="m0 0h24v24h-24z" fill="#000" opacity="0"/><path d="m11.7951249 9.38618316 2.5245284 2.52452834c0-.0814248 0-.0814248 0-.1628735 0-1.3844374-1.0586663-2.44310362-2.4431036-2.44310362.000024.08144878.000024.08144878-.0814248.08144878zm-3.50176979.65149434 1.22153979 1.2215637v.5700695c0 1.3844134 1.0586662 2.4430796 2.4431036 2.4430796.1628735 0 .3257471 0 .5700455-.0814487l1.2215398 1.2215637c-.5700455.3257472-1.140115.4886208-1.7916093.4886208-2.28023002 0-4.07181532-1.7916093-4.07181532-4.0718154 0-.6515182.16289756-1.2215638.40719593-1.7916332zm-4.47898725-4.4789873 1.87303409 1.87303409.32574714.32574715c-1.38441337 1.05866622-2.44310357 2.44307956-3.01314909 4.07181536 1.38441337 3.5831945 4.88618316 6.1077229 8.9580225 6.1077229 1.2215397 0 2.4431035-.2443223 3.5831945-.6514943l.3257472.3257472 2.3616548 2.3616548 1.0586662-1.0586663-14.41425114-14.4142511zm8.14363064 2.19878124c2.28023 0 4.0718153 1.79160928 4.0718153 4.07181536 0 .4886207-.0814488 1.0586662-.3257472 1.4658621l2.3616548 2.3616548c1.2215398-1.0586902 2.1987813-2.3616548 2.7688508-3.8275169-1.3844134-3.58321863-4.8861832-6.10774699-8.9580225-6.10774699-1.140115 0-2.19878122.24429837-3.25747142.57004552l1.79160932 1.79160928c.4886447-.24429839 1.0586902-.32572317 1.5473109-.32572317z" fill="#999"/></g></svg>