<svg height="24" viewBox="0 0 24 24" width="24" xmlns="http://www.w3.org/2000/svg"><g fill="none"><path d="m0 0h24v24h-24z" fill="#000" opacity="0"/><path d="m18.2792727 8.62581818h-.4385454v-1.6930909c0-3.22145456-2.6203637-5.84181818-5.8407273-5.84181818-3.22036364 0-5.84181818 2.62036362-5.84181818 5.84181818v1.6930909h-.43745454c-1.64001571.00240461-2.96874301 1.33161987-2.97054546 2.97163632v8.3421819c0 1.6363636 1.3330909 2.9694545 2.97054546 2.9694545h12.55854542c1.6395905-.0024032 2.9681422-1.330955 2.9705455-2.9705454v-8.3421819c-.0018037-1.63983923-1.3307062-2.96874175-2.9705455-2.97054542zm-10.48472724-1.6930909c0-2.31927274 1.88618182-4.20545456 4.20545454-4.20545456 2.3192727 0 4.2043636 1.88618182 4.2043636 4.20545456v1.6930909h-8.40981814zm11.81890904 13.00581822c0 .7352727-.5989091 1.3341818-1.3341818 1.3341818h-12.55854542c-.73635013-.0012012-1.33298059-.5978317-1.33418182-1.3341818v-8.3421819c0-.7363636.5989091-1.3352727 1.33418182-1.3352727h12.55854542c.7352727 0 1.3341818.5989091 1.3341818 1.3352727zm-6.2454545-5.0454546c0 .3981818-.1767273.7494545-.4483636.9992727v1.1541819c0 .5079011-.4117353.9196363-.9196364.9196363s-.9196364-.4117352-.9196364-.9196363v-1.1541819c-.283985-.2547393-.4468773-.6177791-.4483636-.9992727 0-.4887393.2607393-.9403531.684-1.1847228s.9447393-.2443697 1.368 0 .684.6959835.684 1.1847228z" fill="#999"/></g></svg>