<svg height="24" viewBox="0 0 24 24" width="24" xmlns="http://www.w3.org/2000/svg"><g fill="none"><path d="m0 0h24v24h-24z" fill="#000" opacity="0"/><path d="m19.4784 8.2896c0-4.1328-3.3072-7.44-7.44-7.44s-7.44 3.3072-7.44 7.44c0 2.808 1.488 5.208 3.8016 6.4464-3.1344 1.2432-5.5344 3.9696-6.192 7.44-.0816.4128.1632.9072.6624.9936h.1632c.4128 0 .744-.2496.8256-.6624.744-3.8832 4.1328-6.696 8.0976-6.7776h.1632c4.0512 0 7.3584-3.3072 7.3584-7.44zm-13.224 0c0-3.2208 2.5632-5.784 5.784-5.784s5.784 2.5632 5.784 5.784c0 3.1392-2.5632 5.7024-5.7024 5.784h-.2496c-3.1344-.0816-5.616-2.64-5.616-5.784zm11.2416 7.5216c-.4128-.2496-.9072-.1632-1.1568.2496s-.1632.9072.2496 1.1568c1.9008 1.32 3.2208 3.1392 3.6384 5.2896.0816.4128.4128.6624.8256.6624h.1632c.4128-.0816.744-.4944.6624-.9936-.4992-2.5632-2.0688-4.7952-4.3824-6.3648z" fill="#999"/></g></svg>