<svg height="24" viewBox="0 0 24 24" width="24" xmlns="http://www.w3.org/2000/svg"><g fill="none"><path d="m0 0h24v24h-24z" fill="#000" opacity="0"/><path d="m11.985202 9.11600334c-1.3821349 0-2.43907427 1.05693936-2.43907427 2.43907426s1.05693937 2.4390743 2.43907427 2.4390743 2.4390743-1.0569154 2.4390743-2.4390743c0-1.3821588-1.0569393-2.43907426-2.4390743-2.43907426zm0 6.50419816c-2.27646452 0-4.06512381-1.7886593-4.06512381-4.0651238 0-2.27646458 1.78865929-4.06512388 4.06512381-4.06512388 2.2764646 0 4.0651239 1.7886593 4.0651239 4.06512388 0 2.2764645-1.7886593 4.0651238-4.0651239 4.0651238zm0-10.1628216c-4.06512381 0-7.56113751 2.52037917-8.94327243 6.0976978 1.38213492 3.5773185 4.87814862 6.0976977 8.94327243 6.0976977 4.0651239 0 7.5611376-2.5203791 8.9432725-6.0976977-1.3821349-3.57731863-4.8781486-6.0976978-8.9432725-6.0976978z" fill="#999"/></g></svg>