<svg height="24" viewBox="0 0 25 24" width="25" xmlns="http://www.w3.org/2000/svg"><g fill="none" fill-rule="evenodd" transform="translate(.836612)"><path d="m.163388 0h24v24h-24z" fill="#000" fill-rule="nonzero" opacity="0"/><path d="m12.2526911 19.2394595c2.0410194-.0445167 3.7392283-.7438591 5.0989476-2.0965912 1.3568386-1.3556042 2.058304-3.0486734 2.1029558-5.0835156-.0446518-2.0348423-.7461172-3.72791148-2.1029558-5.08207962-1.3597193-1.35416815-3.0579282-2.05351055-5.0989476-2.09659119-2.0410194.04308064-3.7392282.74242304-5.09750717 2.09659119-1.35827898 1.35416814-2.05974436 3.04723732-2.10295578 5.08351562.04321142 2.0334062.7446768 3.7264754 2.10295578 5.0806436 1.35827897 1.3541681 3.05648777 2.0535105 5.09894757 2.0980272zm0 1.4360213c-2.44576635-.0603129-4.48246462-.9018214-6.11009478-2.5245255-1.62763016-1.6227042-2.47169324-3.6532384-2.53218923-6.0916026.06049599-2.4383643.90455907-4.4688985 2.53218923-6.09160264s3.66432843-2.46421265 6.11009478-2.52452555c2.4457664.0603129 4.4824647.90182141 6.1100948 2.52452555 1.6276302 1.62270414 2.4716933 3.65323834 2.5321893 6.09160264-.060496 2.4383642-.9045591 4.4688984-2.5321893 6.0916026-1.6276301 1.6227041-3.6643284 2.4642126-6.1100948 2.5245255zm-4.95058834-1.5939837 1.26033309.7180107-1.08028551 1.8639557c-.13507545.2162317-.37551039.3442945-.63088673.336029-.252674.0098781-.48877822-.1251083-.60784065-.3475172-.13453495-.2143716-.14279184-.484378-.02160571-.7065225l1.08028551-1.8625197zm9.90261714 0-1.2603331.7180107 1.0802855 1.8639557c.1497996.2240194.3600952.336029.6294464.336029.2693511 0 .4724448-.1148817.6078406-.3475172.1349893-.2141096.1437968-.4841212.0230461-.7065225l-1.0802855-1.8625197zm-4.9520288-7.0221444h3.6009517c.2102956 0 .3831413.067493.5185371.201043.1339554.134986.2016532.3073085.2016532.5169676.0071327.1926679-.0658324.3797246-.2016532.5169677-.1376598.1354098-.3252843.2081541-.5185371.201043h-4.321142c-.1932528.0071111-.3808773-.0656332-.518537-.201043-.1358209-.1372431-.208786-.3242998-.2016533-.5169677v-5.02607471c0-.20965912.0676978-.38198168.2016533-.51696769.1376597-.13540979.3252842-.20815407.518537-.20104299.2102956 0 .3831413.067493.518537.20104299.1339554.13498601.2016533.30730857.2016533.51696769zm-9.49642975-4.48756678c-.45473341-.68894129-.65767766-1.51296716-.57471188-2.33353471.08210169-.82284024.43499496-1.54515898 1.05867979-2.16552021.62224445-.62036123 1.34675593-.97218646 2.17209405-1.05403968.82289014-.08313695 1.6494035.11868259 2.3406186.5715365l-1.0586798 1.0554757c-.40217719-.19169422-.85406217-.25440543-1.29346184-.17950267-.43847571.07247172-.84140803.28517288-1.1479834.60600102-.32264527.32884889-.52573894.71370261-.60784064 1.15456117-.08354208.44085856-.02736723.87166496.16852454 1.2909832l-1.03707409 1.05403968h-.02160571zm18.81425235 0c.4547334-.68894129.6576777-1.51296716.5747119-2.33353471-.0824616-.82223324-.4532823-1.58909062-1.0471568-2.16552021-.5733297-.60033574-1.3444805-.97454769-2.172094-1.05403968-.8265977-.08417357-1.6570863.11762319-2.3521417.5715365l1.0586798 1.0554757c.4191508-.1952989.8498246-.25417578 1.2934619-.17950267.4421969.07467311.8296593.2757161 1.1595064.60600102.3298472.32884889.5329409.71370261.6078407 1.15456117s.0144038.87166496-.1800476 1.2909832z" fill="#6b7b8d"/></g></svg>