<svg height="56" viewBox="0 0 56 56" width="56" xmlns="http://www.w3.org/2000/svg"><g fill="none" fill-rule="evenodd"><circle cx="28" cy="28" fill="#fff0df" r="28"/><path d="m7 6h44v44h-44z" fill="#000" fill-rule="nonzero" opacity="0"/><g transform="translate(7 6)"><path d="m0 0h44v44h-44z"/><path d="m40 13.8181914v23.3967305c0 1.4514258-.9736523 2.646-2.2090781 2.7736172l-.2209219.0114609h-31.14165234c-1.26492188 0-2.30726954-1.1143477-2.41853907-2.5314609l-.00980859-.2536172v-23.3967305zm-17.8756523 3.5934609-.0605391.18-3.3872695 12.6458086c-.2253975.8373699.2415963 1.7051728 1.064618 1.9783533.8230217.2731804 1.7162446-.1431343 2.0363038-.9490837l.0605391-.1816524 3.3873047-12.6458086c.2224617-.836501-.245007-1.7015577-1.0666438-1.9738375-.8216367-.2722798-1.7131975.142412-2.0343132.9462203zm7.512539 1.368c-.5173662.1530829-.9139578.570253-1.0406953 1.0946954-.1186583.4620042-.026365.9528405.252 1.3401914l.1292695.1538086 2.8701563 3.0158437-2.8701563 3.0158086c-.2789566.2960735-.4335963.6879458-.4320122 1.0947305 0 .4090781.1554732.8034609.4320122 1.0930781.2694718.2884733.6459794.4530515 1.0407305.4549219.3262987-.0011752.6422908-.1144036.8950781-.3207305l.1456524-.1341914 3.9108867-4.1072695c.5260523-.5597654.5796396-1.4145342.1276172-2.0356172l-.1276172-.1538438-3.9108867-4.110539c-.3623386-.3880473-.9103308-.5425358-1.422-.4008868zm-16.2326953.2241563-.1521914.1276172-3.91092187 4.1073047c-.52644335.5589586-.58006672 1.4136237-.12761719 2.034l.12761719.150539 3.91092187 4.1089571c.2714855.280633.6463175.4374439 1.0367602.4337928.3904426-.0037802.7622224-.1676962 1.0283179-.4534452.514654-.552579.574603-1.3891438.144-2.0094609l-.1276172-.1587305-2.868539-3.0158086 2.868539-3.0141914c.5280633-.6204707.5069381-1.5382907-.0491132-2.1338086-.4913465-.5282943-1.3006916-.6043041-1.8818086-.1767304zm-9.4041914-12.22200001c0-1.44980859.97034766-2.64107812 2.20746094-2.77034765l.22088672-.01146094h31.14165234c1.2649219.00165234 2.304 1.11107813 2.4201563 2.52653906l.0098437.25526953v3.76365231h-36z" fill="#ffa940" fill-rule="nonzero"/></g></g></svg>