<svg height="26" viewBox="0 0 26 26" width="26" xmlns="http://www.w3.org/2000/svg"><g fill="none"><path d="m0 0h26v26h-26z" fill="#000" opacity="0"/><path d="m13 1.62494978c-.4095 0-.80925.14955022-1.1171875.45748772l-2.2855625 2.3099375c-.1235.066625-.2275.1625-.303875.2795l-7.21175 7.2109375c-.61590575.6174608-.61590575 1.6169142 0 2.234375l9.8011875 9.8011875c.6189242.6123561 1.6154508.6123561 2.234375 0l9.8011875-9.8011875c.6159057-.6174608.6159057-1.6169142 0-2.234375l-9.802-9.8011875c-.2960069-.29549689-.6981319-.45997597-1.116375-.45667522zm0 1.65023772 9.7248125 9.7248125-9.7248125 9.7248125-9.7248125-9.7248125 6.729125-6.7283125 1.421875 1.421875c-.0364925.14083633-.053712.28597202-.0511875.4314375 0 .599625.326625 1.1139375.8125 1.3966875v6.956625c-.485875.28275-.8125.79625-.8125 1.3966875 0 .8974627.7275373 1.625 1.625 1.625s1.625-.7275373 1.625-1.625c0-.599625-.326625-1.1139375-.8125-1.3966875v-6.3724375l2.4886875 2.487875c-.1260102.4867356-.0194971 1.0043887.2884435 1.401834.3079406.3974452.7825868.6298687 1.285369.629416.897 0 1.6241875-.7271875 1.6241875-1.625.0007045-.5029248-.231613-.9778057-.6290943-1.2859331-.3974812-.3081275-.9152818-.4147382-1.4021557-.2886919l-2.894125-2.894125c.1260102-.48673564.0194971-1.0043887-.2884435-1.40183397s-.7825868-.62986875-1.285369-.62941603c-.145194-.002451-.2900514.0147679-.430625.0511875l-1.421875-1.421875z" fill="#6b7b8d" stroke="#fff" stroke-width=".3"/></g></svg>