<svg height="56" viewBox="0 0 56 56" width="56" xmlns="http://www.w3.org/2000/svg"><g fill="none" fill-rule="evenodd"><circle cx="28" cy="28" fill="#ffe8e5" r="28"/><g fill-rule="nonzero"><path d="m6 6h44v44h-44z" fill="#000" opacity="0"/><path d="m47.2434036 26.2166113-17.4650313-17.46332391c-1.0080829-1.00438319-2.6385902-1.00438319-3.6466732 0l-3.6183398 3.62499811 4.6000083 4.5999974c1.10721-.3751009 2.3313794-.0873392 3.1555208.7417586.8241415.8290978 1.1045558 2.0549684.7228195 3.159906l4.4300079 4.4333309c1.3502408-.4694844 2.8456931.0573416 3.6035237 1.269469.7578306 1.2121273.5765385 2.787261-.4368513 3.7955283-.5743159.5752396-1.3538109.8984837-2.1666706.8984837s-1.5923546-.3232441-2.1666706-.8984837c-.8711204-.8735967-1.1361649-2.1830707-.6733345-3.3266649l-4.1483408-4.1266644v10.8749941c.2933339.1433332.5700011.3383332.8133348.5799997 1.1879307 1.2002021 1.1879307 3.1331289 0 4.333331-.5764432.5769685-1.3585842.9011503-2.1741705.9011503s-1.5977273-.3241818-2.1741706-.9011503c-.575449-.5735269-.8988949-1.35255-.8988949-2.1649988 0-.8124489.3234459-1.591472.8988949-2.1649989.3033339-.2999998.6450011-.5266663 1.0083351-.6766663v-10.9816607c-.7557196-.3089394-1.3564416-.9073645-1.6682728-1.661894-.3118311-.7545295-.3088533-1.6024498.0082699-2.3547705l-4.5200081-4.5416642-11.97668817 11.9683268c-1.00000177 1.0083328-1.00000177 2.6399986 0 3.6483314l17.46669797 17.4616572c.4829774.4834364 1.1383114.7550668 1.82167.7550668.6833585 0 1.3386926-.2716304 1.8216699-.7550668l17.3833644-17.3833239c.4843579-.4828255.7565964-1.1385971.7565964-1.822499 0-.683902-.2722385-1.3396736-.7565964-1.822499" fill="#cf1322"/></g></g></svg>