<svg height="56" viewBox="0 0 56 56" width="56" xmlns="http://www.w3.org/2000/svg"><g fill="none" fill-rule="evenodd"><circle cx="28" cy="28" fill="#e1edff" r="28"/><path d="m6 6h44v44h-44z" fill="#000" fill-rule="nonzero" opacity="0"/><path d="m13.2755555 11h29.448889c1.2567546 0 2.2755555 1.0188009 2.2755555 2.2755555v29.448889c0 1.2567546-1.0188009 2.2755555-2.2755555 2.2755555h-29.448889c-1.2567546 0-2.2755555-1.0188009-2.2755555-2.2755555v-29.448889c0-1.2567546 1.0188009-2.2755555 2.2755555-2.2755555zm6.4060684 10.8247863c-1.9037215 0-3.4508547-1.5482834-3.4508547-3.4508547 0-1.9037215 1.5471332-3.4508547 3.4508547-3.4508547 1.6144983 0 2.9738737 1.114092 3.3485128 2.6147712l11.6051909.0006134c3.1713355 0 5.7514245 2.5800891 5.7514245 5.7514245 0 3.1713355-2.580089 5.7514246-5.7514245 5.7514246l-3.202313.0005633c-.5518004 1.172328-1.7443514 1.9851916-3.1242539 1.9851916s-2.5724535-.8128636-3.1242539-1.9851916l-3.202313-.0005633c-1.9025713 0-3.4508548 1.5471332-3.4508548 3.4508547 0 1.9025712 1.5482835 3.4508547 3.4508548 3.4508547l10.4549059-.0002372c.3746392-1.5002272 1.7340145-2.6151475 3.3485128-2.6151475 1.9025713 0 3.4508547 1.5482835 3.4508547 3.4508547s-1.5482834 3.4508547-3.4508547 3.4508547c-1.3789677 0-2.57182-.8133488-3.1239433-1.985433l-10.6794754-.000322c-3.1713355 0-5.7514246-2.580089-5.7514246-5.7514244 0-3.1713355 2.5800891-5.7514246 5.7514246-5.7514246l2.977987-.0006134c.3744106-1.5006792 1.7331055-2.6147712 3.3485799-2.6147712s2.9741692 1.114092 3.3485799 2.6147712l2.977987.0006134c1.9025713 0 3.4508547-1.5471332 3.4508547-3.4508547 0-1.9025712-1.5482834-3.4508547-3.4508547-3.4508547l-11.8301123.001069c-.5522782 1.1716827-1.7449166 1.984686-3.1235914 1.984686zm16.1039886 13.8034188c-.6152954.0275237-1.0999801.5343742-1.0999801 1.1502849 0 .6159108.4846847 1.1227612 1.0999801 1.1502849.6152955-.0275237 1.0999801-.5343741 1.0999801-1.1502849 0-.6159107-.4846846-1.1227612-1.0999801-1.1502849zm-7.4768518-9.2022792c-.6152956.0275235-1.0999804.5343741-1.0999804 1.1502849 0 .6159109.4846848 1.1227614 1.0999804 1.1502849.6152955-.0275235 1.0999804-.534374 1.0999804-1.1502849 0-.6159108-.4846849-1.1227614-1.0999804-1.1502849zm-8.6271368-9.2022792c-.6152954.0275237-1.0999801.5343742-1.0999801 1.1502849s.4846847 1.1227612 1.0999801 1.1502849c.6152955-.0275237 1.0999801-.5343742 1.0999801-1.1502849s-.4846846-1.1227612-1.0999801-1.1502849z" fill="#1768e4"/></g></svg>