<svg height="56" viewBox="0 0 56 56" width="56" xmlns="http://www.w3.org/2000/svg"><g fill="none" fill-rule="evenodd"><circle cx="28" cy="28" fill="#dff" r="28"/><g fill-rule="nonzero"><path d="m7 7h42.810811v42.810811h-42.810811z" fill="#000" opacity="0"/><g fill="#13c2c2" transform="translate(11 11)"><path d="m33.0141151 24.4226369-14.7287802 8.8376404c-.4500587.2493961-.9578618.3758654-1.4723196.3666839-.5323431 0-1.0665476-.1228484-1.474181-.3666839l-14.72878025-8.8376404c-.8134054-.487671-.8134054-1.2806017 0-1.7664113l2.49791771-1.4983783 11.36533964 6.8199482c.6533302.38902 1.4816263.6030741 2.3397039.6030741.8562162 0 1.6845123-.2140541 2.3378425-.6030741l11.3653396-6.8199482 2.4979177 1.4983783c.8134054.487671.8134054 1.2787403 0 1.7664113z"/><path d="m33.0141151 17.6957556-14.7287802 8.8395017c-.4500587.2493961-.9578617.3758654-1.4723196.366684-.5323431 0-1.0665476-.1228485-1.474181-.366684l-14.72878025-8.8395017c-.8134054-.487671-.8134054-1.2806017 0-1.7664113l2.49791771-1.5002397 11.36533964 6.8199483c.6533302.3927426 1.4816263.6067967 2.3397039.6067967.8562162 0 1.6845123-.2140541 2.3378425-.6067967l11.3672009-6.8199483 2.4979178 1.5002397c.811544.487671.811544 1.2806016-.0018614 1.7664113z"/><path d="m33.0141151 10.9707356-14.7287802 8.8395018c-.4500587.249396-.9578618.3758653-1.4723196.3666839-.5323431 0-1.0665476-.1228485-1.474181-.3666839l-14.72878025-8.8395018c-.8134054-.4858097-.8134054-1.28060168 0-1.76641128l14.72878025-8.83950175c.4076334-.2438355.9418378-.36482257 1.474181-.36482257.5304818 0 1.0646862.12098707 1.4723196.36482257l14.7287802 8.83950175c.8134054.48767099.8134054 1.28060168 0 1.76641128z"/></g></g></g></svg>