<svg height="48" viewBox="0 0 48 48" width="48" xmlns="http://www.w3.org/2000/svg"><g fill="none" opacity=".498297"><path d="m0 0h48v48h-48z" fill="#000" opacity="0"/><g fill="#7b8c9c"><path d="m42.7513043 31.0309565-16.5140869 9.9088696c-.5046113.2796259-1.0739662.4214248-1.6507826.4111304-.5968696 0-1.1958261-.1377391-1.6528696-.4111304l-16.51408692-9.9088696c-.912-.5467826-.912-1.4358261 0-1.9805217l2.80069561-1.68 12.74295661 7.6466087c.7325217.4361739 1.6612173.6761739 2.6233043.6761739.96 0 1.8886957-.24 2.6212174-.6761739l12.7429565-7.6466087 2.8006956 1.68c.912.5467826.912 1.4337391 0 1.9805217z"/><path d="m42.7513043 23.4886957-16.5140869 9.9109565c-.5046113.2796259-1.0739662.4214248-1.6507826.4111304-.5968696 0-1.1958261-.1377391-1.6528696-.4111304l-16.51408692-9.9109565c-.912-.5467827-.912-1.4358262 0-1.9805218l2.80069561-1.6820869 12.74295661 7.6466087c.7325217.4403478 1.6612173.6803478 2.6233043.6803478.96 0 1.8886957-.24 2.6212174-.6803478l12.7450435-7.6466087 2.8006956 1.6820869c.909913.5467826.909913 1.4358261-.002087 1.9805218z"/><path d="m42.7513043 15.9485217-16.5140869 9.9109566c-.5046113.2796259-1.0739662.4214247-1.6507826.4111304-.5968696 0-1.1958261-.1377392-1.6528696-.4111304l-16.51408692-9.9109566c-.912-.5446956-.912-1.4358261 0-1.9805217l16.51408692-9.91095652c.4570435-.27339131 1.056-.40904348 1.6528696-.40904348.5947826 0 1.1937391.13565217 1.6507826.40904348l16.5140869 9.91095652c.912.5467826.912 1.4358261 0 1.9805217z"/></g></g></svg>