<svg height="56" viewBox="0 0 56 56" width="56" xmlns="http://www.w3.org/2000/svg"><g fill="none" fill-rule="evenodd"><path d="m0 0h56v56h-56z" fill="#000" fill-rule="nonzero" opacity="0"/><path d="m26.6073458 11.0696808c0 .7484817-.6122394 1.354424-1.3651415 1.354424h-5.4621429c-.3621423.0002444-.7095468-.1423362-.9657722-.3963696-.2559872-.2541236-.3999329-.598687-.4002392-.9580544 0-.7482657.6116412-1.35539509 1.3660658-1.35539509h5.4621428c.7528478-.00005397 1.3650872.60712939 1.3650872 1.35539509zm7.4342495 0c0 .7484817-.4303619 1.3544237-.9614224 1.3544237h-3.8423728c-.5316587 0-.9614224-.6064817-.9614224-1.3544237 0-.7482657.4297093-1.35539509.9614224-1.35539509h3.8423728c.5310605-.00005397.9614224.60712939.9614224 1.35539509zm8.344507 5.4967633c0 .4195696-.1678243.8219716-.4667606 1.1186015s-.7043859.4631648-1.1270735.4629359h-15.7787022c-.8796454 0-1.5928553-.707949-1.5928553-1.5814834 0-.8731027.7132642-1.5811056 1.5928553-1.5811056h15.7787565c.4226325-.0002045.8280314.1662765 1.126988.4628088.2988136.2965672.4667918.6988036.4667918 1.1182428zm4.2484299 5.6472908c0 .83203-.6793355 1.5066782-1.5178207 1.5066782h-23.8199712c-.8382133 0-1.5175488-.6743243-1.5175488-1.5063544 0-.8317062.6793899-1.5063004 1.5175488-1.5063004h23.8194275c.8381589 0 1.5178207.6740544 1.5183644 1.5059766zm1.3654678 5.3471533c0 .4195044-.1677615.8218524-.4665199 1.1185666-.2987245.2967511-.7040374.4634586-1.1266617.4634023h-4.4008374c-.8802436 0-1.5935079-.7082726-1.5935079-1.5816991 0-.8735344.71321-1.581807 1.5935079-1.581807h4.4008374c.4224777 0 .8277193.1666651 1.1266617.4630785.2986559.2967381.4665199.6990093.4665199 1.1184587zm-8.800261 0c0 .8739122-1.059783 1.5819689-2.3700623 1.5819689h-30.4613c-1.30794117 0-2.3683767-.7073551-2.3683767-1.5819689 0-.8735884 1.06038115-1.5815372 2.3683767-1.5815372h30.4613c1.3102793.000054 2.3700623.7080027 2.3700623 1.5815372z" fill="#f6fafe"/><path d="m13.7142857 30.8564166c0 .4549578-.1789806.8913005-.4977125 1.2130241-.3185817.3217584-.7509145.5023699-1.2016153.5019879h-2.31623885c-.93826046 0-1.69871905-.767391-1.69871905-1.7144535 0-.9467274.76045859-1.714118 1.69871905-1.714118h2.31623885c.938094-.0004009 1.6989.7667768 1.6993278 1.7135595z" fill="#f6fafe"/><path d="m29.7599231 33.8616572c0 .4940025-.1919091.9677973-.5335203 1.3173068-.3417988.349323-.8053864.5455738-1.2887739.5455738h-26.11534143c-.65092184-.0000718-1.25238633-.3549433-1.57792499-.9309954-.32581664-.5760846-.32581664-1.2861287 0-1.8622133.32538175-.5762561.92690874-.9312917 1.57792499-.9313291h26.11534143c.483243-.0000781.9467192.1960539 1.2884474.5452402.3418471.3490119.5338468.822596.5338468 1.316417zm23.382934 6.5786376c-.0003264 1.019079-.8084151 1.8450858-1.8056437 1.8454195h-21.7453179c-.9790546-.0260803-1.7591206-.8447468-1.7591206-1.8454195 0-1.0007283.780066-1.819228 1.7591206-1.8454196h21.7447738c.9971741.0005561 1.8055893.8263961 1.8061878 1.8454196z" fill="#f6fafe"/><path d="m35.4285714 43.7144045c.000075.3790073-.142904.7425029-.397447 1.010429-.2545429.2679261-.599772.4183074-.9596526.4180236h-1.8577941c-.7490933 0-1.3565348-.6393093-1.3565348-1.4285121 0-.7889649.6074415-1.4286307 1.3565348-1.4286307h1.8577941c.7490367.0002974 1.3564783.6397253 1.3570996 1.4286902z" fill="#e3edf1" fill-rule="nonzero"/><path d="m49.830269 46.0001192c0 .3791846-.137844.7428249-.3832382 1.0108052-.2454938.2676242-.57809.4178297-.9247844.4176469h-24.3585554c-.7215885 0-1.3065481-.639544-1.3065481-1.4284521 0-.788908.5849596-1.4286906 1.3065481-1.4286906h24.35861c.7224076 0 1.307968.6394244 1.307968 1.4286906zm5.0268739 0c0 .7885499-.5846866 1.4280937-1.3062752 1.4284519h-1.0432835c-.7219162 0-1.3068759-.6395438-1.3068759-1.4284519 0-.788908.5849597-1.4286906 1.3068759-1.4286906h1.0432289c.7207694 0 1.3063298.6394244 1.3063298 1.4286906z" fill="#f6fafe"/><path d="m38.7520096 11.4341951h-23.0998599s-1.7762212-.2200604-1.8883821 2.0929792c-.1113342 2.3123837 0 26.5665855 0 29.720949-.0373135 2.5754067 3.1819531 3.1365444 4.3313959 1.6700215 1.5551512-1.8718802.5554584-4.0754908.2228338-4.1860677-.3341128-.1110141 21.6569246 0 21.6569246 0v-26.3242785c-.0000551 0 .3065548-2.97978-1.2229123-2.9736035z" fill="#fff" fill-rule="nonzero"/><path d="m16.5718712 46.2857143c-.7962457 0-1.5508273-.2990648-2.0695885-.8224144-.4941264-.4972205-.749787-1.1658661-.7385994-1.9327423 0-.7052702-.0056213-2.4822757-.0130062-4.8379505-.0254063-8.0709767-.0734081-23.0944028.0130062-24.894203.08432-1.7475965 1.1158903-2.3698327 2.0528347-2.3698327.0993654 0 .1582241.0079809.1582241.0079809l23.061806-.0018039c.3749761 0 .6871256.1370418.9341888.4080094.7732644.848817.582139 2.7968103.5740927 2.8792978l.0017636 26.5833094-.2885068-.0010933c-.0006062 0-9.7722515-.0493066-16.1879593-.0493066-2.9085453 0-4.2795451.0105501-4.9110085.0216468.1103325.2251595.180489.4523416.2020926.5280507.1719467.5957243.4418259 2.1364736-.7581088 3.5812336-.4462349.569923-1.1884717.8998181-2.0312312.8998181zm-.7553532-34.2880397c-.4181833 0-1.3994371.17875-1.4793482 1.8277333-.0858081 1.7850411-.0384125 16.7991743-.0130062 24.8650673.00744 2.3563854.0130062 4.1348122.0130062 4.8444555-.0088178.6155126.1890863 1.1423607.5732109 1.5283407.4127824.4150063 1.0179578.6529571 1.6614905.6529571.6640892 0 1.2411028-.2497035 1.5822959-.6861926.7622972-.9172012.8359808-1.870535.764667-2.5094983-.0775414-.6972893-.3474206-1.1758148-.4411647-1.2482988-.101184-.0284251-.1837405-.1626243-.160704-.3010873.0180764-.1118965.0289884-.1796794.3772908-.2207864v-.0008747l.0011573.0008747c.5430101-.0642845 1.902712-.0642845 5.3735011-.0642845 5.7652862 0 14.2405522.0396312 15.9018223.047612v-26.0410461c.0520801-.5212177.0725263-1.9203882-.4270011-2.4689925-.1257385-.1452678-.3109995-.2259794-.5039362-.2204038h-23.1011002c-.0402311-.0023505-.0725263-.0055756-.1221814-.0055756z" fill="#a5d2ff" fill-rule="nonzero"/><path d="m17.1428571 16.5714286h20v5.7142857h-20zm0 7.4285714h18.8571429v1.1428571h-18.8571429zm0 2.8571429h9.7142858v1.1428571h-9.7142858zm0 3.4285714h16.5714286v1.1428571h-16.5714286zm0 3.4285714h12v1.1428572h-12zm29.2304311 4.6051335c.4928786.4897003.6319822 1.1584828.3113634 1.4934155-.3192033.334662-.980204.2084869-1.4718849-.2822966l-4.7299033-4.707037c-.4916809-.4897004-.6314378-1.1587536-.3096212-1.4933073.3189311-.3349869.9798773-.2085951 1.4707415.2822966z" fill="#edf6ff"/><path d="m46.5991198 40.5714286c-.3768644 0-.8011622-.1988712-1.1345553-.5325435l-4.916953-4.9066929c-.5774096-.5758402-.7193705-1.3501563-.3242799-1.7621803.3759586-.3963311 1.1879886-.2585382 1.7399267.2926336l4.9163305 4.9064671c.5774096.5747676.7215214 1.348858.3260912 1.7612771-.1494891.1576631-.3592041.2410389-.6065602.2410389zm-5.7703601-7.1480156c-.1139989 0-.2753181.0254587-.3917509.148857-.2753182.2860855-.128263.9053916.319129 1.352132l4.9168965 4.9065801c.2796199.2789163.6258053.4455549.9260855.4455549.1145649 0 .2759407-.0253458.3932792-.148857.2747521-.2866499.1266781-.9056174-.3206573-1.3512852l-4.9166134-4.9071446c-.279337-.2791422-.6254658-.4458372-.9263686-.4458372z" fill="#65a4e2" fill-rule="nonzero"/><path d="m40.1400768 33.7257811c-.3735322.1131388.1392604-.2201882-.0455404.2442046-.0675525.3995143.0937762.7328413.3916698 1.0390788l4.6320914 4.7760746c.4770229.4936449 1.4303948.9940622 1.6643859.6973858.0241459-.0314717.051268-.0590165.0744594-.0892362z" fill="#65a4e2" fill-rule="nonzero"/><path d="m40.935204 25.3502683c-2.5620473-2.5624686-6.732797-2.5624686-9.2965655.001237-2.5652209 2.562361-2.5658125 6.7348772-.0017213 9.2984752 2.5643602 2.5619308 6.7357016 2.5619308 9.2982868 0 2.5625852-2.563598 2.5625852-6.7372975 0-9.2997122" fill="#fff" fill-rule="nonzero"/><path d="m36.572412 36.5713931c-1.8200333.0056398-3.5668158-.7164325-4.8515544-2.0055366-1.2902802-1.2841043-2.0128499-3.0312148-2.0065308-4.8515157 0-1.8347601.7136765-3.5578823 2.0077151-4.8507622 1.2841503-1.2898892 3.0310579-2.0123715 4.8512314-2.006399 1.8192562-.0056282 3.5652583.7162917 4.8492397 2.0050533 2.6747446 2.6748441 2.6747446 7.0281336 0 9.7036236-1.2840335 1.2892688-3.0304494 2.011406-4.850101 2.0055366zm.0013996-13.1534941c-1.6845271 0-3.2667219.6547939-4.45466 1.8425489-1.1851223 1.17885-1.8491822 2.7829055-1.8441107 4.4544312 0 1.6850662.6540733 3.2671606 1.8420652 4.4549694 1.188261 1.1875935 2.7701866 1.840735 4.4553059 1.840735 1.6851192 0 3.2667219-.6531953 4.4540678-1.840735 2.4568914-2.45722 2.4568914-6.4537954 0-8.909885-1.1783329-1.1844471-2.7818817-1.8478201-4.4526682-1.8420645z" fill="#65a4e2" fill-rule="nonzero"/><path d="m40 28.5714286h-.5714286v-.5714286h.5714286zm-1.7142857 0h-.5714286v-.5714286h.5714286zm-1.7142857 0h-.5714286v-.5714286h.5714286zm-1.7142857 0h-.5714286v-.5714286h.5714286zm-1.7142858 0h-.5714285v-.5714286h.5714285zm5.1428572-2.2857143h-.5714286v-.5714286h.5714286zm-1.7142857 0h-.5714286v-.5714286h.5714286zm-1.7142857 0h-.5714286v-.5714286h.5714286zm6.2857142 5.1428571h-.5714285v-.5714285h.5714285zm-1.7142857 0h-.5714285v-.5714285h.5714285zm-1.7142857 0h-.5714286v-.5714285h.5714286zm-1.7142857 0h-.5714286v-.5714285h.5714286zm-1.7142857 0h-.5714286v-.5714285h.5714286zm-1.7142857 0h-.5714286v-.5714285h.5714286zm5.7142857 2.8571429h-.5714286v-.5714286h.5714286zm-1.7142857 0h-.5714286v-.5714286h.5714286zm-1.7142857 0h-.5714286v-.5714286h.5714286zm-16.9217574 6.3659021s2.1341588 4.2030032-1.840675 5.5183056c0 0-.2130986-.0239972 0 0 4.4531365-.0417621 25.6225976.1157923 25.6225976.1157923s1.6825212-1.0968813 2.1458491-2.2892272c.4612126-1.190948-.336571-2.873256-1.0100471-3.3626356-1.4705917-.1501572-24.9177246.0177649-24.9177246.0177649z" fill="#edf6ff"/><g fill-rule="nonzero"><path d="m41.6389279 46.2857143h-.0417124c-.1630477-.0012722-16.3694562-.1164285-23.1643394-.1164285-.9083061 0-1.6536196.0017147-2.1733994.0062501l-.0079899.0029315-.2334133-.0254981-.0180735-.1392717.0073837-.136672h.1361027l.0153735.0020465v-.000885l.0639186.0070244c1.0423149-.3369511 1.7323057-.9051551 2.0517887-1.6880741.6118558-1.4996315-.3331484-3.3202294-.3422954-3.3383712l-.1112515-.2096818.2364439-.0019359c.1112515-.0007743 11.1755149-.0757199 18.4215755-.0757199 3.7462391 0 5.8522484.0198564 6.2581869.0596246l.0369737.0038717.0310226.0209627c.739693.5156037 1.5246251 2.1936114 1.0506352 3.3658605-.4710694 1.1621826-2.1110787 2.1980362-2.1811688 2.2422292zm-23.2060518-.4042639c6.6241763 0 22.1909024.1096253 23.1241147.1164284.2376011-.1550351 1.632295-1.0961419 2.0326131-2.0839861.4286958-1.06373-.3281341-2.5556181-.9183898-2.9989864-.478949-.0368367-2.5612644-.0545361-6.1921744-.0545361-6.6697459 0-16.5756489.0640495-18.1931765.0737841.2426154.5450289.7961729 2.0418396.2550134 3.3714468-.2754564.6771102-.793528 1.205712-1.545013 1.5781723.4089141-.0017699.8935387-.002323 1.4370125-.002323z" fill="#a5d2ff"/><path d="m56 19.7598471c0 1.0792375-.923967 1.9544386-2.0607163 1.9544386h-9.021371c-1.1376062 0-2.0607698-.8752011-2.0607698-1.9544386v-.6620871c0-1.0789281.92311-1.9549029 2.0607698-1.9549029h9.021371c1.1367493 0 2.0607163.8754074 2.0607163 1.9549029z" fill="#fff"/><path d="m53.7756827 21.7142857h-9.2655961c-1.2259956 0-2.2243723-.9930916-2.2243723-2.2148793v-.713432c0-1.2214543.9977716-2.2145458 2.2243723-2.2145458h9.2655961c1.2256655 0 2.2243173.9931471 2.2243173 2.2145458v.713432c-.0006051 1.2211764-.9985967 2.2148793-2.2243173 2.2148793zm-9.2655961-4.9258875c-1.1076206 0-2.008965.8961666-2.008965 1.9975762v.713432c0 1.1014652.9013994 1.9976319 2.008965 1.9976319h9.2655961c1.1075656 0 2.0086899-.8961667 2.0086899-1.9976319v-.713432c0-1.1014096-.9011243-1.9975762-2.0086899-1.9975762z" fill="#a5d2ff"/><path d="m46.2857143 24 .8520269-2.2857143h3.1479731zm1.1800652-2.2857143-.6086366 1.7142857 2.8571428-1.7142857z" fill="#a5d2ff"/><path d="m47.4285714 22v-1.1428571l1.0558449.2857142.7886385.1723642.2623695.1316802.75029-.0183301-1.7142857.8571429z" fill="#fff"/><path d="m45.7935163 18.857143c-.3515261-.0002428-.63936.2445108-.6503261.5526884-.007577.2080473.1146117.4031935.3187938.5091419.2040859.1060223.4577701.1061154.661957.000243.2043008-.1057681.32672-.3007978.3194031-.5088503-.0107446-.3081776-.2983016-.553223-.6498278-.553223zm7.842019 0c-.3515262-.0002428-.6396924.2445108-.6506585.5526884-.0080136.2083792.1140603.4040202.3184417.5103488.2043815.1063286.4585631.1064331.663058.0002726.2044948-.1061606.3267775-.3017011.3189865-.5100868-.0107446-.3081776-.2986893-.553223-.6498277-.553223zm-4.0509893 0c-.3515262-.0002428-.6396923.2445108-.6506585.5526884-.0080135.2083792.1140604.4040202.3184418.5103488s.4585631.1064331.6630579.0002726c.2044949-.1061606.3267776-.3017011.3189865-.5100868-.0107446-.3081776-.2986892-.553223-.6498277-.553223z" fill="#65a4e2"/><path d="m24.0697143 20.5714286v-1.7897143h.0137143l1.224 1.7897143h.3908571v-2.448h-.4045714v1.7657143h-.0137143l-1.2102857-1.7657143h-.4011429v2.448zm3.1268571.048c.3222857 0 .5725715-.0822857.7508572-.2468572.1782857-.1691428.2674285-.4125714.2674285-.7302857v-1.5188571h-.4011428v1.5257143c0 .208-.0491429.3645714-.1474286.4697142-.1005714.1005715-.2571428.1508572-.4697143.1508572-.2171428 0-.3737143-.0502857-.4697143-.1508572-.0982857-.1005714-.1474285-.2571428-.1474285-.4697142v-1.5257143h-.4011429v1.5188571c0 .3177143.0902857.5622857.2708572.7337143.1737142.1622857.4228571.2434286.7474285.2434286zm3.2194286-.048v-.3428572h-1.3234286v-2.1051428h-.3977143v2.448zm2.0297143 0v-.3428572h-1.3234286v-2.1051428h-.3977143v2.448z" fill="#65a4e2"/></g></g></svg>