<svg height="56" viewBox="0 0 56 56" width="56" xmlns="http://www.w3.org/2000/svg"><g fill="none" fill-rule="evenodd"><circle cx="28" cy="28" fill="#e3edff" r="28"/><g fill-rule="nonzero"><path d="m8 8h39.243243v39.243243h-39.243243z" fill="#000" opacity="0"/><path d="m45.5073615 22.5514253-1.1765309 3.5449218-.8201224 2.4795292c-.0383235.1111381-.1801204.1417968-.2605997.0536528l-1.234016-1.3834776-2.9853991-3.3571368c-.076647-.088144-.0306588-.2299409.0843117-.252935l1.0807221-.2222762c.3947318-.0804793.605511-.5173669.4215583-.8776076-.6783256-1.3528189-1.563598-2.5791702-2.6443201-3.6598924-1.1267103-1.1267103-2.4182116-2.0464738-3.8400127-2.7324641-.0996411-.0498205-.3065878-.1417968-.517367-.2299408-.2912584-.1264675-.6285051-.0076647-.781799.2682643-.9350929 1.7015625-2.7477935 2.8550993-4.8287584 2.8550993-2.2802471 0-4.2347445-1.3796453-5.0778611-3.3533045-.2835937-.6668286-.44072-1.398807-.44072-2.1652766 0-.0958087.0038323-.1916174.0076647-.2874261.1494616-2.9125845 2.5600084-5.231155 5.5109164-5.231155 2.8282728 0 5.1583404 2.1269531 5.4802576 4.8670819.0268264.2261086.1801203.417726.3947318.4982053 4.1887564 1.5904244 7.5650549 4.8287584 9.3317673 8.9255384.1149705.2682643.4023966.4177259.6859903.3564084l1.4332982-.2950908c.1188028-.0229941.2146115.088144.176288.1992821zm1.5063652 13.7083087c-.0309113 3.0850401-2.6177461 5.5607369-5.7027863 5.4610958-.6706609-.0229941-1.3144953-.1647909-1.9046769-.4062289-.2146115-.088144-.4560494-.0459881-.6323374.1034734-2.8934227 2.4871939-6.6567884 3.9856419-10.7688978 3.9856419-.7588049 0-1.5022804-.0498205-2.2342589-.1494616-.2835937-.0383234-.5518581.1226352-.6553315.3870672l-.4982052 1.2915013c-.0421559.111138-.1877851.1341321-.2605997.0421558l-2.0962943-2.5944996-1.8931799-2.3415646c-.0728146-.0919764-.0191618-.2299409.0958087-.2491026l1.4332981-.2261086 4.8364232-.7626372c.1149704-.0191617.2107791.0958087.1686233.2069468l-.4138936 1.0768898c-.1494616.3870671.1188028.804793.5326964.8316195.3257495.0229941.6553315.0344911.9849134.0344911 1.9046769 0 3.7518686-.3717377 5.4879223-1.1075486 1.1497044-.4867081 2.2189295-1.1152132 3.1923458-1.8778505.2491027-.1954497.3065879-.5480257.1379646-.8162901-.5365287-.8507812-.8507813-1.8625211-.8507813-2.9432432 0-3.0467167 2.4718645-5.5185811 5.5185811-5.5185811.164791 0 .3295819.0076647.4905405.0229941.858446.0766469 1.6632391.3487437 2.3645587.7741343 1.6134185.9734164 2.686476 2.7516258 2.6675667 4.7751056zm-32.0041904-12.8996833c-.7358108 1.7360536-1.1075486 3.5832453-1.1075486 5.4879223 0 .4330553.0191618.8661106.0574853 1.2915012.0268264.3142526.2874261.5595228.6055109.5595228.2299409.0038324.4637141.0076647.5633552.0191618 2.7592905.3065878 4.9054054 2.6443201 4.9054054 5.4840899 0 1.2761719-.4330553 2.4527027-1.1612014 3.3877956-.5135347.6591639-1.1726985 1.199525-1.9276711 1.5712627-.6821579.3334143-1.4409628.5326964-2.2419235.5556905-3.0850401.099641-5.67187503-2.3760558-5.70253381-5.4610959-.02299409-1.8893475.91209881-3.5640836 2.34922931-4.5719911.187785-.1302999.2835937-.3564084.252935-.5863493-.0996411-.7358108-.153294-1.486951-.153294-2.2534206 0-3.8591744 1.3183277-7.4079286 3.5334249-10.2247044.176288-.2261085.1724556-.5441934-.0038324-.7664696l-.9542546-1.1765308c-.0728146-.0919763-.0229941-.2299409.0958087-.2491026l3.6215688-.5748522 2.6443201-.4215583c.1149705-.0191617.2107792.0958087.1686233.2069468l-.628505 1.6440773-1.640245 4.284565c-.0421558.1111381-.187785.1341322-.2605996.0421559l-.6514992-.8047931c-.2567673-.3180849-.7473078-.3027555-.9772487.0344911-.5518581.793296-1.0117399 1.6325802-1.38731 2.521685z" fill="#2f54eb"/></g></g></svg>