<svg height="24" viewBox="0 0 24 24" width="24" xmlns="http://www.w3.org/2000/svg"><g fill="#6b7b8d"><path d="m0 0h24v24h-24z" opacity="0"/><path d="m4.12499996 1.5c1.1895 0 2.1975.76324138 2.52 1.81034483h10.23000004c2.6408559-.00300678 4.8040095 2.02483163 4.8787936 4.5736028.0747842 2.54877117-1.9659969 4.69159817-4.6027936 4.83294897l-.276.0072413h-1.6095c-.3311006 1.0741918-1.3536033 1.8108783-2.5143821 1.8115466-1.1607788.0006684-2.1841908-.7348403-2.5166179-1.80865l-3.10950004-.0028966c-1.8213872-.0032361-3.31686686 1.3894868-3.37923163 3.1470394-.06236477 1.7575525 1.33088579 3.2458315 3.14823163 3.3629606l.231.0072414h10.23000004c.3338524-1.0744866 1.3581405-1.8103258 2.52-1.8103448 1.4497474 0 2.625 1.1347266 2.625 2.5344827 0 1.3997562-1.1752526 2.5344828-2.625 2.5344828-1.1618595 0-2.1861476-.7358582-2.52-1.8103448h-10.23000004c-2.64085596.0030068-4.80400952-2.0248317-4.87879366-4.5736028-.07478414-2.5487712 1.96599688-4.6915982 4.60279366-4.832949l.276-.0072413h3.10950004c.3309274-1.0752206 1.3544989-1.81252962 2.51625-1.81252962 1.161751 0 2.1853225.73730902 2.51625 1.81252962h1.608c1.8213872.0032361 3.3168668-1.38948683 3.3792316-3.14703938s-1.3308858-3.24583148-3.1482316-3.36296065l-.231-.00724138h-10.23000004c-.33385243 1.07448664-1.35814054 1.81032579-2.52 1.81034483-1.44974745-.00000002-2.62499996-1.1347266-2.62499996-2.53448276s1.17525251-2.53448276 2.62499996-2.53448276zm15.75000004 17.3793103c-.6213204 0-1.125.4863114-1.125 1.0862069s.5036796 1.0862069 1.125 1.0862069c.6213203 0 1.125-.4863114 1.125-1.0862069s-.5036797-1.0862069-1.125-1.0862069zm-7.125-7.9655172c-.3880372.0001551-.7485991.1933775-.954.5112414l-.042.0695172c-.1202586.2198813-.1583981.4730485-.108.7168966l.0375.1346896.042.1013793.075.1332414.093.1231035-.0615-.0767587c.2167695.2958638.572086.4678567.9473136.4585523.3752275-.0093043.7209318-.1986802.9216864-.5048971l.045-.0767586.03-.0564828.0405-.1013793c.0908045-.2599952.0763354-.5435376-.0405-.7936551l-.03-.0579311-.042-.0695172-.0375-.0550345c-.2110874-.2862513-.5525563-.4562069-.9165-.4562069zm-8.62500004-7.96551724c-.62132034 0-1.125.48631139-1.125 1.0862069 0 .5998955.50367966 1.0862069 1.125 1.0862069s1.125-.4863114 1.125-1.0862069c0-.59989551-.50367966-1.0862069-1.125-1.0862069z"/></g></svg>