<svg height="56" viewBox="0 0 56 56" width="56" xmlns="http://www.w3.org/2000/svg"><g fill="none" fill-rule="evenodd"><circle cx="28" cy="28" fill="#e6fedc" r="28"/><g fill-rule="nonzero"><path d="m7 7h42.810811v42.810811h-42.810811z" fill="#000" opacity="0"/><path d="m34.5283859 12c-5.7868898 0-10.5021334 4.7152436-10.5021334 10.5021334 0 .6906165.0714431 1.3812329.2143293 2.0718494l.0952574.5001016-12.3358392 12.3358392v7.382452h8.6207988v-4.286585h4.0246271v-4.0246271h3.9769984v-4.0484414h1.3574186v-.3810298l1.2383467.4048441c1.0478319.3572155 2.1671069.523916 3.2625676.523916 5.7868898 0 10.5021333-4.7152436 10.5021333-10.5021334.0476288-5.7630754-4.6676148-10.478319-10.4545046-10.478319zm3.9293696 8.7874994c0 1.2145324-1.0002032 2.2147356-2.2147356 2.2147356s-2.2147356-1.0002032-2.2147356-2.2147356c0-1.2145325 1.0002032-2.2147357 2.2147356-2.2147357s2.2147356.9763889 2.2147356 2.2147357z" fill="#389e0d"/></g></g></svg>