<svg height="24" viewBox="0 0 24 24" width="24" xmlns="http://www.w3.org/2000/svg"><g fill="none"><path d="m0 0h24v24h-24z" fill="#000" opacity="0"/><path d="m18.75 7.5c-2.06775 0-3.75 1.68225-3.75 3.75 0 .41025.0825.79875.2055 1.16925-1.7775.63675-3.6.49575-5.55525-.44625-1.803-.8685-2.96925-1.9095-3.4815-3.09975 1.62225-.41325 2.83125-1.87425 2.83125-3.62325 0-2.06775-1.68225-3.75-3.75-3.75s-3.75 1.68225-3.75 3.75c.00260403 1.78104384 1.25546283 3.31548266 3 3.67425v6.1515c-1.74453717.3587673-2.99739597 1.8932062-3 3.67425 0 2.06775 1.68225 3.75 3.75 3.75s3.75-1.68225 3.75-3.75c-.00260403-1.7810438-1.25546283-3.3154827-3-3.67425v-3.822c.74775.7755 1.749 1.46775 2.99925 2.06925 1.36425.65775 2.7105.98625 4.0275.98625.9975 0 1.97625-.20025 2.9355-.57675.687.77175 1.67625 1.2675 2.78775 1.2675 2.06775 0 3.75-1.68225 3.75-3.75s-1.68225-3.75-3.75-3.75zm-15.75-2.25c0-1.2405 1.0095-2.25 2.25-2.25s2.25 1.0095 2.25 2.25-1.0095 2.25-2.25 2.25-2.25-1.0095-2.25-2.25zm4.5 13.5c0 1.2405-1.0095 2.25-2.25 2.25s-2.25-1.0095-2.25-2.25 1.0095-2.25 2.25-2.25 2.25 1.0095 2.25 2.25zm11.25-5.25c-1.2405 0-2.25-1.0095-2.25-2.25s1.0095-2.25 2.25-2.25 2.25 1.0095 2.25 2.25-1.0095 2.25-2.25 2.25z" fill="#6b7b8d"/></g></svg>